<svg width="102" height="14" viewBox="0 0 102 14" fill="none" xmlns="http://www.w3.org/2000/svg">
<path d="M9.93954 5.74353H12.617L12.5986 4.07471H10.1413L10.5264 0.957147H8.85756L8.47245 4.07471H5.39156L5.77667 0.957147H4.10785L3.72274 4.07471H1.0453V5.74353H3.52102L3.09923 9.00781H0.421789V10.6766H2.8975L2.51239 13.7942H4.18121L4.56632 10.6766H7.66555L7.28044 13.7942H8.94925L9.33436 10.6766H12.0118V9.00781H9.53609L9.93954 5.74353ZM4.76804 9.00781L5.18983 5.74353H8.27072L7.86727 9.00781H4.76804ZM23.9245 13.7942H26.4186L20.6235 0.957147H18.2762L12.4995 13.7942H14.9569L16.2223 10.8233H22.6408L23.9245 13.7942ZM17.0292 8.95279L19.4315 3.34117L21.8522 8.95279H17.0292ZM25.481 0.957147V5.15669H27.7V2.9744H32.7431L27.9201 13.7942H30.4691L35.4572 2.55261V0.957147H25.481ZM41.4819 13.9776C44.5445 13.9776 46.8552 11.5936 46.8552 7.37567C46.8552 3.15778 44.5445 0.773761 41.4819 0.773761C38.4377 0.773761 36.1271 3.15778 36.1271 7.37567C36.1271 11.5936 38.4377 13.9776 41.4819 13.9776ZM41.4819 11.9053C39.7398 11.9053 38.5294 10.4749 38.5294 7.37567C38.5294 4.27644 39.7398 2.84603 41.4819 2.84603C43.2424 2.84603 44.4528 4.27644 44.4528 7.37567C44.4528 10.4749 43.2424 11.9053 41.4819 11.9053ZM53.3747 13.9776C56.4373 13.9776 58.7479 11.5936 58.7479 7.37567C58.7479 3.15778 56.4373 0.773761 53.3747 0.773761C50.3305 0.773761 48.0198 3.15778 48.0198 7.37567C48.0198 11.5936 50.3305 13.9776 53.3747 13.9776ZM53.3747 11.9053C51.6325 11.9053 50.4222 10.4749 50.4222 7.37567C50.4222 4.27644 51.6325 2.84603 53.3747 2.84603C55.1352 2.84603 56.3456 4.27644 56.3456 7.37567C56.3456 10.4749 55.1352 11.9053 53.3747 11.9053ZM65.1984 6.25701L68.316 2.55261V0.957147H59.5685V2.95606H65.4002L62.4843 6.42206V8.0542H63.658C65.6019 8.0542 66.4455 8.80608 66.4455 9.96142C66.4455 11.1534 65.4368 11.9053 63.7313 11.9053C62.2826 11.9053 60.8889 11.4102 59.9719 10.6399L58.945 12.4921C60.137 13.4274 61.9525 13.9776 63.768 13.9776C67.2157 13.9776 68.8478 12.107 68.8478 9.94308C68.8478 8.01752 67.6191 6.56877 65.1984 6.25701ZM78.2865 7.04557C79.3318 6.47708 79.9187 5.56014 79.9187 4.34979C79.9187 2.14916 77.9748 0.773761 75.1139 0.773761C72.2715 0.773761 70.3459 2.14916 70.3459 4.34979C70.3459 5.56014 70.9144 6.47708 71.9414 7.04557C70.621 7.65075 69.8874 8.69605 69.8874 10.1081C69.8874 12.4921 71.923 13.9776 75.1139 13.9776C78.3049 13.9776 80.3771 12.4921 80.3771 10.1081C80.3771 8.69605 79.6252 7.65075 78.2865 7.04557ZM75.1139 2.6443C76.581 2.6443 77.5713 3.30449 77.5713 4.45983C77.5713 5.56014 76.636 6.25701 75.1139 6.25701C73.6102 6.25701 72.6932 5.56014 72.6932 4.45983C72.6932 3.30449 73.6468 2.6443 75.1139 2.6443ZM75.1139 12.107C73.3534 12.107 72.2898 11.3368 72.2898 10.0348C72.2898 8.7694 73.3534 7.98084 75.1139 7.98084C76.8744 7.98084 77.9748 8.7694 77.9748 10.0348C77.9748 11.3368 76.8744 12.107 75.1139 12.107ZM84.7234 11.7769L88.1527 8.51266C89.9316 6.84385 90.28 5.70685 90.28 4.45983C90.28 2.18584 88.4828 0.773761 85.6954 0.773761C83.5864 0.773761 81.8076 1.56232 80.8173 2.90104L82.4861 4.18475C83.2013 3.26782 84.2466 2.84603 85.4936 2.84603C87.0708 2.84603 87.8777 3.52456 87.8777 4.69823C87.8777 5.41343 87.6576 6.16532 86.4106 7.35733L81.3124 12.1987V13.7942H90.7752V11.7769H84.7234ZM96.0327 0.773761C93.4102 0.773761 91.338 2.38756 91.338 4.93663C91.338 7.33899 93.2268 8.87944 95.7576 8.87944C97.188 8.87944 98.4167 8.43931 99.1869 7.54072V7.55905C99.1869 10.4749 97.6648 11.9787 95.2441 11.9787C94.3455 11.9787 93.5019 11.8136 92.8051 11.3552L91.9248 13.1523C92.7867 13.7025 94.0154 13.9776 95.2991 13.9776C99.0218 13.9776 101.589 11.5569 101.589 7.1556C101.589 3.02941 99.5353 0.773761 96.0327 0.773761ZM96.216 7.0089C94.6573 7.0089 93.6486 6.16532 93.6486 4.8266C93.6486 3.48788 94.6756 2.6443 96.161 2.6443C97.8665 2.6443 98.8201 3.59791 98.8201 4.80826C98.8201 6.07363 97.7565 7.0089 96.216 7.0089Z" fill="white"/>
</svg>
