<svg width="67" height="43" viewBox="0 0 67 43" fill="none" xmlns="http://www.w3.org/2000/svg">
<path d="M25.4492 38.4408H26.7967V33.995H25.7333V33.5642C26.2283 33.4786 26.6347 33.3411 26.9525 33.1517H27.4658V38.4408H28.685V39H25.4492V38.4408ZM31.3907 39.11C30.8102 39.11 30.358 38.8442 30.0341 38.3125C29.7102 37.7808 29.5482 37.0292 29.5482 36.0575C29.5482 35.0858 29.7102 34.3403 30.0341 33.8208C30.358 33.3014 30.8102 33.0417 31.3907 33.0417C31.9713 33.0417 32.4235 33.3014 32.7474 33.8208C33.0713 34.3403 33.2332 35.0858 33.2332 36.0575C33.2332 37.0292 33.0713 37.7808 32.7474 38.3125C32.4235 38.8442 31.9713 39.11 31.3907 39.11ZM31.3907 38.5692C31.7635 38.5692 32.0538 38.3614 32.2616 37.9458C32.4755 37.5242 32.5824 36.8947 32.5824 36.0575C32.5824 35.2203 32.4755 34.6 32.2616 34.1967C32.0538 33.7872 31.7635 33.5825 31.3907 33.5825C31.018 33.5825 30.7246 33.7872 30.5107 34.1967C30.303 34.6 30.1991 35.2203 30.1991 36.0575C30.1991 36.8947 30.303 37.5242 30.5107 37.9458C30.7246 38.3614 31.018 38.5692 31.3907 38.5692ZM34.4266 34.5542H34.9766L35.0316 35.0858H35.0591C35.5786 34.6581 36.0583 34.4442 36.4983 34.4442C37.0666 34.4442 37.5005 34.6489 37.8 35.0583C38.1055 35.4617 38.2583 36.0117 38.2583 36.7083C38.2583 37.1972 38.1697 37.625 37.9925 37.9917C37.8152 38.3522 37.58 38.6303 37.2866 38.8258C36.9933 39.0153 36.6755 39.11 36.3333 39.11C35.9361 39.11 35.5144 38.9358 35.0683 38.5875L35.0866 39.3758V40.9067H34.4266V34.5542ZM36.2233 38.5417C36.48 38.5417 36.7091 38.4683 36.9108 38.3217C37.1186 38.1689 37.2805 37.955 37.3966 37.68C37.5127 37.405 37.5708 37.0842 37.5708 36.7175C37.5708 36.1858 37.47 35.7703 37.2683 35.4708C37.0727 35.1653 36.7641 35.0125 36.3425 35.0125C35.9697 35.0125 35.5511 35.2264 35.0866 35.6542V38.0558C35.2883 38.2269 35.4869 38.3522 35.6825 38.4317C35.878 38.505 36.0583 38.5417 36.2233 38.5417ZM40.6887 39.11C40.2487 39.11 39.934 38.9847 39.7445 38.7342C39.5551 38.4836 39.4603 38.1261 39.4603 37.6617V35.1042H38.7912V34.6L39.4878 34.5542L39.5703 33.2983H40.1295V34.5542H41.3487V35.1042H40.1295V37.68C40.1295 37.9733 40.1815 38.1933 40.2853 38.34C40.3953 38.4867 40.5787 38.56 40.8353 38.56C40.9637 38.56 41.1348 38.5203 41.3487 38.4408L41.4862 38.945C41.1562 39.055 40.8903 39.11 40.6887 39.11Z" fill="#181818"/>
<rect x="0.25" y="29.25" width="66.5" height="13.5" rx="6.75" stroke="#C4C4C4" stroke-width="0.5"/>
<rect y="29" width="14" height="14" rx="7" fill="#181818"/>
<rect x="53" y="29" width="14" height="14" rx="7" fill="#181818"/>
<rect x="4" y="35.6309" width="5.83333" height="0.972222" rx="0.25" fill="white"/>
<rect x="59.4307" y="39.0334" width="5.83333" height="0.972223" rx="0.25" transform="rotate(-90 59.4307 39.0334)" fill="white"/>
<rect x="57" y="35.6309" width="5.83333" height="0.972222" rx="0.25" fill="white"/>
<rect width="66.6667" height="20" rx="10" fill="#181818"/>
<rect x="22.4727" y="14.3335" width="8.33333" height="1.38889" rx="0.25" transform="rotate(-90 22.4727 14.3335)" fill="white"/>
<rect x="19" y="9.47241" width="8.33333" height="1.38889" rx="0.25" fill="white"/>
<path d="M32.0367 13L34.0992 6.9775H34.8508L36.9042 13H36.1892L35.0983 9.59C34.9883 9.24778 34.8814 8.91167 34.7775 8.58167C34.6797 8.24556 34.5789 7.90028 34.475 7.54583H34.4383C34.3467 7.90028 34.2489 8.24556 34.145 8.58167C34.0472 8.91167 33.9403 9.24778 33.8242 9.59L32.7242 13H32.0367ZM33.0817 11.1025V10.5617H35.8408V11.1025H33.0817ZM39.2147 13.11C38.6586 13.11 38.2156 12.9083 37.8856 12.505C37.5556 12.0956 37.3906 11.5211 37.3906 10.7817C37.3906 10.305 37.4792 9.8925 37.6564 9.54417C37.8397 9.19583 38.0781 8.92694 38.3714 8.7375C38.6647 8.54194 38.9825 8.44417 39.3247 8.44417C39.5875 8.44417 39.8136 8.49 40.0031 8.58167C40.1925 8.67333 40.3881 8.80167 40.5897 8.96667L40.5622 8.19667V6.455H41.2222V13H40.6722L40.6172 12.4592H40.5897C40.4186 12.6364 40.2139 12.7892 39.9756 12.9175C39.7434 13.0458 39.4897 13.11 39.2147 13.11ZM39.3614 12.5417C39.5753 12.5417 39.78 12.4897 39.9756 12.3858C40.1711 12.2758 40.3667 12.1169 40.5622 11.9092V9.49833C40.3606 9.32111 40.1681 9.19583 39.9847 9.1225C39.8014 9.04917 39.615 9.0125 39.4256 9.0125C39.175 9.0125 38.9459 9.08889 38.7381 9.24167C38.5364 9.38833 38.3745 9.59611 38.2522 9.865C38.1361 10.1278 38.0781 10.4333 38.0781 10.7817C38.0781 11.3256 38.1881 11.7564 38.4081 12.0742C38.6342 12.3858 38.952 12.5417 39.3614 12.5417ZM44.2725 13.11C43.7164 13.11 43.2734 12.9083 42.9434 12.505C42.6134 12.0956 42.4484 11.5211 42.4484 10.7817C42.4484 10.305 42.537 9.8925 42.7142 9.54417C42.8975 9.19583 43.1359 8.92694 43.4292 8.7375C43.7225 8.54194 44.0403 8.44417 44.3825 8.44417C44.6453 8.44417 44.8714 8.49 45.0609 8.58167C45.2503 8.67333 45.4459 8.80167 45.6475 8.96667L45.62 8.19667V6.455H46.28V13H45.73L45.675 12.4592H45.6475C45.4764 12.6364 45.2717 12.7892 45.0334 12.9175C44.8011 13.0458 44.5475 13.11 44.2725 13.11ZM44.4192 12.5417C44.6331 12.5417 44.8378 12.4897 45.0334 12.3858C45.2289 12.2758 45.4245 12.1169 45.62 11.9092V9.49833C45.4184 9.32111 45.2259 9.19583 45.0425 9.1225C44.8592 9.04917 44.6728 9.0125 44.4834 9.0125C44.2328 9.0125 44.0036 9.08889 43.7959 9.24167C43.5942 9.38833 43.4322 9.59611 43.31 9.865C43.1939 10.1278 43.1359 10.4333 43.1359 10.7817C43.1359 11.3256 43.2459 11.7564 43.4659 12.0742C43.692 12.3858 44.0097 12.5417 44.4192 12.5417Z" fill="white"/>
</svg>
