<svg width="19" height="18" viewBox="0 0 19 18" fill="none" xmlns="http://www.w3.org/2000/svg">
<path d="M5.25748 1.71341L3.9187 0.424948C1.6718 2.07381 0.192593 4.61469 0.0615234 7.49795H1.93394C2.00026 6.35529 2.33354 5.24174 2.90897 4.24021C3.4844 3.23869 4.28716 2.37498 5.25748 1.71341V1.71341ZM16.8571 7.49795H18.7295C18.5891 4.61469 17.1099 2.07381 14.8723 0.424948L13.5429 1.71341C14.5091 2.37824 15.3083 3.2429 15.8818 4.24389C16.4553 5.24488 16.7885 6.35678 16.8571 7.49795ZM15.0128 7.94846C15.0128 5.18233 13.4774 2.86671 10.7998 2.25402V0.289795H7.99121V2.25402C5.30429 2.86671 3.77827 5.17332 3.77827 7.94846V12.4536L1.90585 14.2556V15.1566H16.8852V14.2556L15.0128 12.4536V7.94846ZM9.39552 17.8597C9.52659 17.8597 9.6483 17.8507 9.77001 17.8236C10.3785 17.6975 10.8747 17.301 11.1181 16.7604C11.2118 16.5442 11.2586 16.3099 11.2586 16.0576H7.51374C7.52311 17.0488 8.35633 17.8597 9.39552 17.8597Z" fill="#FFBD02"/>
</svg>
