<svg width="53" height="53" viewBox="0 0 53 53" fill="none" xmlns="http://www.w3.org/2000/svg">
<path d="M13.25 35.7121C13.7403 41.234 18.2618 45.1527 25.1452 45.6595V49.6875H28.6001V45.6595C36.1195 45.0666 40.7835 40.8961 40.7835 34.7283C40.7835 29.4614 37.6466 26.4139 30.9917 24.698L28.6001 24.0786V11.4844C32.3167 11.8488 34.8243 13.8496 35.457 16.8374H40.3264C39.7765 11.5374 35.2251 7.73469 28.6001 7.314V3.3125H25.1452V7.39681C18.7223 8.15869 14.3133 12.2728 14.3133 17.8511C14.3133 22.6674 17.5132 26.076 23.1279 27.5136L25.1485 28.0503V41.4029C21.3424 40.8398 18.7222 38.7529 18.0896 35.7121H13.25V35.7121ZM24.4827 23.0053C21.0277 22.1341 19.1827 20.2725 19.1827 17.6523C19.1827 14.5253 21.5147 12.2165 25.1452 11.5971V23.1742L24.4827 23.0086V23.0053ZM29.7529 29.2063C34.0161 30.2763 35.8876 32.0518 35.8876 35.0661C35.8876 38.6999 33.1515 41.1214 28.6001 41.4891V28.9181L29.7529 29.203V29.2063Z" fill="#FFBD02"/>
</svg>
