<svg width="49" height="22" viewBox="0 0 49 22" fill="none" xmlns="http://www.w3.org/2000/svg">
<path d="M37.6006 0.811879C37.9405 6.01666 35.3629 9.66551 35.3629 9.66551C35.6977 5.65668 34.0389 0.115908 34.0389 0.115908C32.622 -0.15608 30.3577 0.135907 30.3577 0.135907C30.6844 4.45972 28.4396 8.23557 26.7817 9.62551C27.6015 4.83071 26.2968 1.20286 26.2968 1.20286C24.0541 0.648886 20.8395 0.987871 20.8395 0.987871C21.5377 6.08866 18.6651 9.8415 18.6651 9.8415C19.1408 6.28565 17.2012 1.72484 17.2012 1.72484C15.5546 1.61985 12.931 2.14482 12.931 2.14482C14.3143 4.56572 13.2097 9.8865 13.2097 9.8865C12.4553 5.53568 9.91957 2.96979 9.91957 2.96979C-4.62123 9.03553 -0.791048 17.3922 6.31908 19.8811C13.027 22.225 34.6412 23.3799 44.3116 19.2701C53.983 15.1583 47.173 3.60376 37.6006 0.811879Z" fill="white"/>
</svg>
