<svg width="50" height="50" viewBox="0 0 50 50" fill="none" xmlns="http://www.w3.org/2000/svg">
<path d="M24.9996 12.4999C32.3684 12.4999 39.2434 15.3187 44.36 20.4353L47.3059 17.4895C41.4038 11.5853 33.4809 8.33325 24.9996 8.33325C16.5184 8.33534 8.59544 11.5853 2.69336 17.4895L5.63919 20.4353C10.7559 15.3187 17.6309 12.4999 24.9996 12.4999ZM36.8142 29.8062C30.41 23.402 19.5892 23.402 13.185 29.8062L16.1309 32.752C20.9371 27.9458 29.0621 27.9458 33.8684 32.752L36.8142 29.8062Z" fill="#FFBD02"/>
<path d="M42.5769 23.527C33.0519 13.9978 16.9498 13.9978 7.4248 23.527L10.3706 26.4728C18.3019 18.5416 31.6998 18.5416 39.6311 26.4728L42.5769 23.527Z" fill="#FFBD02"/>
<path d="M24.9997 41.6666C27.3009 41.6666 29.1663 39.8011 29.1663 37.4999C29.1663 35.1987 27.3009 33.3333 24.9997 33.3333C22.6985 33.3333 20.833 35.1987 20.833 37.4999C20.833 39.8011 22.6985 41.6666 24.9997 41.6666Z" fill="#FFBD02"/>
</svg>
