<svg width="407" height="365" viewBox="0 0 407 365" fill="none" xmlns="http://www.w3.org/2000/svg">
<g filter="url(#filter0_dd_66_2270)">
<rect x="32" y="35" width="343" height="274" rx="10" fill="white"/>
<path d="M293.666 277.3V285H292.885V278.84L289.86 284.021H289.475L286.45 278.873V285H285.669V277.3H286.34L289.684 283.009L292.995 277.3H293.666ZM298.034 279.17C298.789 279.17 299.368 279.361 299.772 279.742C300.175 280.116 300.377 280.673 300.377 281.414V285H299.629V284.098C299.453 284.399 299.192 284.633 298.848 284.802C298.51 284.971 298.107 285.055 297.638 285.055C296.992 285.055 296.479 284.901 296.098 284.593C295.716 284.285 295.526 283.878 295.526 283.372C295.526 282.881 295.702 282.485 296.054 282.184C296.413 281.883 296.981 281.733 297.759 281.733H299.596V281.381C299.596 280.882 299.456 280.505 299.178 280.248C298.899 279.984 298.492 279.852 297.957 279.852C297.59 279.852 297.238 279.914 296.901 280.039C296.563 280.156 296.274 280.321 296.032 280.534L295.68 279.951C295.973 279.702 296.325 279.511 296.736 279.379C297.146 279.24 297.579 279.17 298.034 279.17ZM297.759 284.439C298.199 284.439 298.576 284.34 298.892 284.142C299.207 283.937 299.442 283.643 299.596 283.262V282.316H297.781C296.791 282.316 296.296 282.661 296.296 283.35C296.296 283.687 296.424 283.955 296.681 284.153C296.937 284.344 297.297 284.439 297.759 284.439ZM307.252 279.214L304.359 285.693C304.125 286.236 303.853 286.621 303.545 286.848C303.237 287.075 302.867 287.189 302.434 287.189C302.156 287.189 301.895 287.145 301.653 287.057C301.411 286.969 301.202 286.837 301.026 286.661L301.389 286.078C301.683 286.371 302.035 286.518 302.445 286.518C302.709 286.518 302.933 286.445 303.116 286.298C303.307 286.151 303.483 285.902 303.644 285.55L303.897 284.989L301.312 279.214H302.126L304.304 284.131L306.482 279.214H307.252Z" fill="#999999"/>
<path d="M239.145 282.943H234.855L233.931 285H233.084L236.604 277.3H237.407L240.927 285H240.069L239.145 282.943ZM238.848 282.283L237 278.147L235.152 282.283H238.848ZM245.017 279.17C245.56 279.17 246.051 279.295 246.491 279.544C246.931 279.786 247.276 280.131 247.525 280.578C247.774 281.025 247.899 281.535 247.899 282.107C247.899 282.686 247.774 283.2 247.525 283.647C247.276 284.094 246.931 284.443 246.491 284.692C246.058 284.934 245.567 285.055 245.017 285.055C244.548 285.055 244.122 284.96 243.741 284.769C243.367 284.571 243.059 284.285 242.817 283.911V287.134H242.036V279.214H242.784V280.358C243.019 279.977 243.327 279.683 243.708 279.478C244.097 279.273 244.533 279.17 245.017 279.17ZM244.962 284.362C245.365 284.362 245.732 284.27 246.062 284.087C246.392 283.896 246.649 283.629 246.832 283.284C247.023 282.939 247.118 282.547 247.118 282.107C247.118 281.667 247.023 281.278 246.832 280.941C246.649 280.596 246.392 280.329 246.062 280.138C245.732 279.947 245.365 279.852 244.962 279.852C244.551 279.852 244.181 279.947 243.851 280.138C243.528 280.329 243.272 280.596 243.081 280.941C242.898 281.278 242.806 281.667 242.806 282.107C242.806 282.547 242.898 282.939 243.081 283.284C243.272 283.629 243.528 283.896 243.851 284.087C244.181 284.27 244.551 284.362 244.962 284.362ZM250.239 280.347C250.422 279.958 250.694 279.665 251.053 279.467C251.42 279.269 251.871 279.17 252.406 279.17V279.929L252.219 279.918C251.61 279.918 251.134 280.105 250.789 280.479C250.444 280.853 250.272 281.377 250.272 282.052V285H249.491V279.214H250.239V280.347Z" fill="#999999"/>
<path d="M191.225 277.3V285H190.444V278.84L187.419 284.021H187.034L184.009 278.873V285H183.228V277.3H183.899L187.243 283.009L190.554 277.3H191.225ZM195.593 279.17C196.349 279.17 196.928 279.361 197.331 279.742C197.735 280.116 197.936 280.673 197.936 281.414V285H197.188V284.098C197.012 284.399 196.752 284.633 196.407 284.802C196.07 284.971 195.667 285.055 195.197 285.055C194.552 285.055 194.039 284.901 193.657 284.593C193.276 284.285 193.085 283.878 193.085 283.372C193.085 282.881 193.261 282.485 193.613 282.184C193.973 281.883 194.541 281.733 195.318 281.733H197.155V281.381C197.155 280.882 197.016 280.505 196.737 280.248C196.459 279.984 196.052 279.852 195.516 279.852C195.15 279.852 194.798 279.914 194.46 280.039C194.123 280.156 193.833 280.321 193.591 280.534L193.239 279.951C193.533 279.702 193.885 279.511 194.295 279.379C194.706 279.24 195.139 279.17 195.593 279.17ZM195.318 284.439C195.758 284.439 196.136 284.34 196.451 284.142C196.767 283.937 197.001 283.643 197.155 283.262V282.316H195.34C194.35 282.316 193.855 282.661 193.855 283.35C193.855 283.687 193.984 283.955 194.24 284.153C194.497 284.344 194.856 284.439 195.318 284.439ZM200.806 280.347C200.989 279.958 201.26 279.665 201.62 279.467C201.986 279.269 202.437 279.17 202.973 279.17V279.929L202.786 279.918C202.177 279.918 201.7 280.105 201.356 280.479C201.011 280.853 200.839 281.377 200.839 282.052V285H200.058V279.214H200.806V280.347Z" fill="#999999"/>
<path d="M133.527 278.004V281.029H137.509V281.733H133.527V285H132.713V277.3H137.993V278.004H133.527ZM144.354 282.349H139.514C139.558 282.95 139.789 283.438 140.207 283.812C140.625 284.179 141.153 284.362 141.791 284.362C142.15 284.362 142.48 284.3 142.781 284.175C143.082 284.043 143.342 283.852 143.562 283.603L144.002 284.109C143.745 284.417 143.423 284.652 143.034 284.813C142.653 284.974 142.231 285.055 141.769 285.055C141.175 285.055 140.647 284.93 140.185 284.681C139.73 284.424 139.375 284.072 139.118 283.625C138.861 283.178 138.733 282.672 138.733 282.107C138.733 281.542 138.854 281.036 139.096 280.589C139.345 280.142 139.683 279.793 140.108 279.544C140.541 279.295 141.025 279.17 141.56 279.17C142.095 279.17 142.576 279.295 143.001 279.544C143.426 279.793 143.76 280.142 144.002 280.589C144.244 281.029 144.365 281.535 144.365 282.107L144.354 282.349ZM141.56 279.841C141.003 279.841 140.533 280.021 140.152 280.38C139.778 280.732 139.565 281.194 139.514 281.766H143.617C143.566 281.194 143.349 280.732 142.968 280.38C142.594 280.021 142.125 279.841 141.56 279.841ZM148.936 279.17C149.478 279.17 149.97 279.295 150.41 279.544C150.85 279.786 151.194 280.131 151.444 280.578C151.693 281.025 151.818 281.535 151.818 282.107C151.818 282.679 151.693 283.189 151.444 283.636C151.194 284.083 150.85 284.432 150.41 284.681C149.97 284.93 149.478 285.055 148.936 285.055C148.452 285.055 148.015 284.952 147.627 284.747C147.245 284.542 146.937 284.245 146.703 283.856V285H145.955V276.838H146.736V280.314C146.978 279.94 147.286 279.658 147.66 279.467C148.041 279.269 148.466 279.17 148.936 279.17ZM148.881 284.362C149.284 284.362 149.651 284.27 149.981 284.087C150.311 283.896 150.567 283.629 150.751 283.284C150.941 282.939 151.037 282.547 151.037 282.107C151.037 281.667 150.941 281.275 150.751 280.93C150.567 280.585 150.311 280.321 149.981 280.138C149.651 279.947 149.284 279.852 148.881 279.852C148.47 279.852 148.1 279.947 147.77 280.138C147.447 280.321 147.19 280.585 147 280.93C146.816 281.275 146.725 281.667 146.725 282.107C146.725 282.547 146.816 282.939 147 283.284C147.19 283.629 147.447 283.896 147.77 284.087C148.1 284.27 148.47 284.362 148.881 284.362Z" fill="#999999"/>
<path d="M339.057 285.066C338.617 285.066 338.21 284.971 337.836 284.78C337.462 284.589 337.157 284.318 336.923 283.966L337.407 283.416C337.832 284.047 338.386 284.362 339.068 284.362C340.021 284.362 340.498 283.797 340.498 282.668V278.004H337.682V277.3H341.301V282.635C341.301 283.442 341.11 284.05 340.729 284.461C340.355 284.864 339.797 285.066 339.057 285.066ZM348.791 279.214V285H348.043V283.944C347.838 284.296 347.556 284.571 347.196 284.769C346.837 284.96 346.426 285.055 345.964 285.055C345.209 285.055 344.611 284.846 344.171 284.428C343.739 284.003 343.522 283.383 343.522 282.569V279.214H344.303V282.492C344.303 283.101 344.454 283.563 344.754 283.878C345.055 284.193 345.484 284.351 346.041 284.351C346.65 284.351 347.13 284.168 347.482 283.801C347.834 283.427 348.01 282.91 348.01 282.25V279.214H348.791ZM353.927 279.17C354.653 279.17 355.228 279.383 355.654 279.808C356.086 280.226 356.303 280.838 356.303 281.645V285H355.522V281.722C355.522 281.121 355.371 280.662 355.071 280.347C354.77 280.032 354.341 279.874 353.784 279.874C353.16 279.874 352.665 280.061 352.299 280.435C351.939 280.802 351.76 281.311 351.76 281.964V285H350.979V279.214H351.727V280.281C351.939 279.929 352.233 279.658 352.607 279.467C352.988 279.269 353.428 279.17 353.927 279.17Z" fill="#999999"/>
<path d="M82.4034 285.066C81.9634 285.066 81.5564 284.971 81.1824 284.78C80.8084 284.589 80.504 284.318 80.2694 283.966L80.7534 283.416C81.1787 284.047 81.7324 284.362 82.4144 284.362C83.3677 284.362 83.8444 283.797 83.8444 282.668V278.004H81.0284V277.3H84.6474V282.635C84.6474 283.442 84.4567 284.05 84.0754 284.461C83.7014 284.864 83.144 285.066 82.4034 285.066ZM88.9481 279.17C89.7034 279.17 90.2828 279.361 90.6861 279.742C91.0894 280.116 91.2911 280.673 91.2911 281.414V285H90.5431V284.098C90.3671 284.399 90.1068 284.633 89.7621 284.802C89.4248 284.971 89.0214 285.055 88.5521 285.055C87.9068 285.055 87.3934 284.901 87.0121 284.593C86.6308 284.285 86.4401 283.878 86.4401 283.372C86.4401 282.881 86.6161 282.485 86.9681 282.184C87.3274 281.883 87.8958 281.733 88.6731 281.733H90.5101V281.381C90.5101 280.882 90.3708 280.505 90.0921 280.248C89.8134 279.984 89.4064 279.852 88.8711 279.852C88.5044 279.852 88.1524 279.914 87.8151 280.039C87.4778 280.156 87.1881 280.321 86.9461 280.534L86.5941 279.951C86.8874 279.702 87.2394 279.511 87.6501 279.379C88.0608 279.24 88.4934 279.17 88.9481 279.17ZM88.6731 284.439C89.1131 284.439 89.4908 284.34 89.8061 284.142C90.1214 283.937 90.3561 283.643 90.5101 283.262V282.316H88.6951C87.7051 282.316 87.2101 282.661 87.2101 283.35C87.2101 283.687 87.3384 283.955 87.5951 284.153C87.8518 284.344 88.2111 284.439 88.6731 284.439ZM96.3604 279.17C97.0864 279.17 97.662 279.383 98.0874 279.808C98.52 280.226 98.7364 280.838 98.7364 281.645V285H97.9554V281.722C97.9554 281.121 97.805 280.662 97.5044 280.347C97.2037 280.032 96.7747 279.874 96.2174 279.874C95.594 279.874 95.099 280.061 94.7324 280.435C94.373 280.802 94.1934 281.311 94.1934 281.964V285H93.4124V279.214H94.1604V280.281C94.373 279.929 94.6664 279.658 95.0404 279.467C95.4217 279.269 95.8617 279.17 96.3604 279.17Z" fill="#999999"/>
<path d="M56.1539 113.296V114H50.7529V113.439L53.9539 110.304C54.3572 109.908 54.6285 109.567 54.7679 109.281C54.9145 108.988 54.9879 108.694 54.9879 108.401C54.9879 107.946 54.8302 107.594 54.5149 107.345C54.2069 107.088 53.7632 106.96 53.1839 106.96C52.2819 106.96 51.5815 107.246 51.0829 107.818L50.5219 107.334C50.8225 106.982 51.2039 106.711 51.6659 106.52C52.1352 106.329 52.6632 106.234 53.2499 106.234C54.0345 106.234 54.6542 106.421 55.1089 106.795C55.5709 107.162 55.8019 107.668 55.8019 108.313C55.8019 108.709 55.7139 109.09 55.5379 109.457C55.3619 109.824 55.0282 110.245 54.5369 110.722L51.9189 113.296H56.1539ZM59.5458 106.234C60.5652 106.234 61.3462 106.571 61.8888 107.246C62.4315 107.913 62.7028 108.859 62.7028 110.084C62.7028 110.942 62.5562 111.668 62.2628 112.262C61.9695 112.856 61.5588 113.307 61.0308 113.615C60.5028 113.916 59.8868 114.066 59.1828 114.066C58.4202 114.066 57.8115 113.927 57.3568 113.648L57.6758 113.01C58.0425 113.252 58.5412 113.373 59.1718 113.373C60.0225 113.373 60.6898 113.105 61.1738 112.57C61.6578 112.027 61.8998 111.243 61.8998 110.216C61.8998 110.025 61.8888 109.816 61.8668 109.589C61.6762 110.007 61.3718 110.333 60.9538 110.568C60.5358 110.795 60.0555 110.909 59.5128 110.909C59.0068 110.909 58.5558 110.814 58.1598 110.623C57.7712 110.432 57.4668 110.165 57.2468 109.82C57.0268 109.468 56.9168 109.061 56.9168 108.599C56.9168 108.13 57.0305 107.715 57.2578 107.356C57.4852 106.997 57.7968 106.722 58.1928 106.531C58.5962 106.333 59.0472 106.234 59.5458 106.234ZM59.6338 110.238C60.0225 110.238 60.3635 110.165 60.6568 110.018C60.9575 109.871 61.1922 109.67 61.3608 109.413C61.5295 109.156 61.6138 108.87 61.6138 108.555C61.6138 108.262 61.5332 107.99 61.3718 107.741C61.2178 107.492 60.9868 107.29 60.6788 107.136C60.3708 106.982 60.0042 106.905 59.5788 106.905C59.0215 106.905 58.5668 107.059 58.2148 107.367C57.8702 107.668 57.6978 108.071 57.6978 108.577C57.6978 109.083 57.8702 109.486 58.2148 109.787C58.5668 110.088 59.0398 110.238 59.6338 110.238Z" fill="#999999"/>
<path d="M55.4706 146.296V147H50.0696V146.439L53.2706 143.304C53.674 142.908 53.9453 142.567 54.0846 142.281C54.2313 141.988 54.3046 141.694 54.3046 141.401C54.3046 140.946 54.147 140.594 53.8316 140.345C53.5236 140.088 53.08 139.96 52.5006 139.96C51.5986 139.96 50.8983 140.246 50.3996 140.818L49.8386 140.334C50.1393 139.982 50.5206 139.711 50.9826 139.52C51.452 139.329 51.98 139.234 52.5666 139.234C53.3513 139.234 53.971 139.421 54.4256 139.795C54.8876 140.162 55.1186 140.668 55.1186 141.313C55.1186 141.709 55.0306 142.09 54.8546 142.457C54.6786 142.824 54.345 143.245 53.8536 143.722L51.2356 146.296H55.4706ZM60.8756 142.963C61.3596 143.124 61.7299 143.366 61.9866 143.689C62.2506 144.012 62.3826 144.4 62.3826 144.855C62.3826 145.302 62.2616 145.695 62.0196 146.032C61.7776 146.362 61.4292 146.619 60.9746 146.802C60.5272 146.978 59.9992 147.066 59.3906 147.066C58.4666 147.066 57.7406 146.868 57.2126 146.472C56.6846 146.076 56.4206 145.537 56.4206 144.855C56.4206 144.393 56.5452 144.004 56.7946 143.689C57.0512 143.366 57.4216 143.124 57.9056 142.963C57.5096 142.809 57.2089 142.589 57.0036 142.303C56.7982 142.01 56.6956 141.665 56.6956 141.269C56.6956 140.646 56.9376 140.151 57.4216 139.784C57.9129 139.417 58.5692 139.234 59.3906 139.234C59.9332 139.234 60.4062 139.318 60.8096 139.487C61.2202 139.648 61.5392 139.883 61.7666 140.191C61.9939 140.499 62.1076 140.858 62.1076 141.269C62.1076 141.665 62.0012 142.01 61.7886 142.303C61.5759 142.589 61.2716 142.809 60.8756 142.963ZM57.4876 141.291C57.4876 141.716 57.6562 142.054 57.9936 142.303C58.3309 142.552 58.7966 142.677 59.3906 142.677C59.9846 142.677 60.4502 142.552 60.7876 142.303C61.1322 142.054 61.3046 141.72 61.3046 141.302C61.3046 140.869 61.1286 140.528 60.7766 140.279C60.4319 140.03 59.9699 139.905 59.3906 139.905C58.8039 139.905 58.3382 140.03 57.9936 140.279C57.6562 140.528 57.4876 140.866 57.4876 141.291ZM59.3906 146.395C60.0726 146.395 60.6042 146.256 60.9856 145.977C61.3742 145.698 61.5686 145.321 61.5686 144.844C61.5686 144.367 61.3742 143.993 60.9856 143.722C60.6042 143.443 60.0726 143.304 59.3906 143.304C58.7159 143.304 58.1842 143.443 57.7956 143.722C57.4142 143.993 57.2236 144.367 57.2236 144.844C57.2236 145.328 57.4142 145.709 57.7956 145.988C58.1769 146.259 58.7086 146.395 59.3906 146.395Z" fill="#999999"/>
<path d="M56.2881 185.296V186H50.8871V185.439L54.0881 182.304C54.4915 181.908 54.7628 181.567 54.9021 181.281C55.0488 180.988 55.1221 180.694 55.1221 180.401C55.1221 179.946 54.9645 179.594 54.6491 179.345C54.3411 179.088 53.8975 178.96 53.3181 178.96C52.4161 178.96 51.7158 179.246 51.2171 179.818L50.6561 179.334C50.9568 178.982 51.3381 178.711 51.8001 178.52C52.2695 178.329 52.7975 178.234 53.3841 178.234C54.1688 178.234 54.7885 178.421 55.2431 178.795C55.7051 179.162 55.9361 179.668 55.9361 180.313C55.9361 180.709 55.8481 181.09 55.6721 181.457C55.4961 181.824 55.1625 182.245 54.6711 182.722L52.0531 185.296H56.2881ZM62.6731 178.3V178.861L59.4501 186H58.5921L61.7601 179.004H57.8001V180.445H57.0191V178.3H62.6731Z" fill="#999999"/>
<path d="M56.1754 223.296V224H50.7744V223.439L53.9754 220.304C54.3787 219.908 54.65 219.567 54.7894 219.281C54.936 218.988 55.0094 218.694 55.0094 218.401C55.0094 217.946 54.8517 217.594 54.5364 217.345C54.2284 217.088 53.7847 216.96 53.2054 216.96C52.3034 216.96 51.603 217.246 51.1044 217.818L50.5434 217.334C50.844 216.982 51.2254 216.711 51.6874 216.52C52.1567 216.329 52.6847 216.234 53.2714 216.234C54.056 216.234 54.6757 216.421 55.1304 216.795C55.5924 217.162 55.8234 217.668 55.8234 218.313C55.8234 218.709 55.7354 219.09 55.5594 219.457C55.3834 219.824 55.0497 220.245 54.5584 220.722L51.9404 223.296H56.1754ZM60.3163 219.391C60.8223 219.391 61.2697 219.486 61.6583 219.677C62.0543 219.868 62.3623 220.139 62.5823 220.491C62.8023 220.836 62.9123 221.239 62.9123 221.701C62.9123 222.17 62.7987 222.585 62.5713 222.944C62.344 223.303 62.0287 223.582 61.6253 223.78C61.2293 223.971 60.782 224.066 60.2833 224.066C59.264 224.066 58.483 223.732 57.9403 223.065C57.3977 222.39 57.1263 221.441 57.1263 220.216C57.1263 219.358 57.273 218.632 57.5663 218.038C57.8597 217.444 58.2703 216.997 58.7983 216.696C59.3263 216.388 59.9423 216.234 60.6463 216.234C61.409 216.234 62.0177 216.373 62.4723 216.652L62.1533 217.29C61.7867 217.048 61.288 216.927 60.6573 216.927C59.8067 216.927 59.1393 217.198 58.6553 217.741C58.1713 218.276 57.9293 219.057 57.9293 220.084C57.9293 220.267 57.9403 220.476 57.9623 220.711C58.153 220.293 58.4573 219.97 58.8753 219.743C59.2933 219.508 59.7737 219.391 60.3163 219.391ZM60.2503 223.395C60.8077 223.395 61.2587 223.245 61.6033 222.944C61.9553 222.636 62.1313 222.229 62.1313 221.723C62.1313 221.217 61.9553 220.814 61.6033 220.513C61.2587 220.212 60.7893 220.062 60.1953 220.062C59.8067 220.062 59.462 220.135 59.1613 220.282C58.868 220.429 58.637 220.63 58.4683 220.887C58.2997 221.144 58.2153 221.43 58.2153 221.745C58.2153 222.038 58.2923 222.31 58.4463 222.559C58.6077 222.808 58.8423 223.01 59.1503 223.164C59.4583 223.318 59.825 223.395 60.2503 223.395Z" fill="#999999"/>
<path d="M56.3902 260.296V261H50.9892V260.439L54.1902 257.304C54.5935 256.908 54.8649 256.567 55.0042 256.281C55.1509 255.988 55.2242 255.694 55.2242 255.401C55.2242 254.946 55.0665 254.594 54.7512 254.345C54.4432 254.088 53.9995 253.96 53.4202 253.96C52.5182 253.96 51.8179 254.246 51.3192 254.818L50.7582 254.334C51.0589 253.982 51.4402 253.711 51.9022 253.52C52.3715 253.329 52.8995 253.234 53.4862 253.234C54.2709 253.234 54.8905 253.421 55.3452 253.795C55.8072 254.162 56.0382 254.668 56.0382 255.313C56.0382 255.709 55.9502 256.09 55.7742 256.457C55.5982 256.824 55.2645 257.245 54.7732 257.722L52.1552 260.296H56.3902ZM59.4081 256.457C60.5228 256.457 61.3331 256.659 61.8391 257.062C62.3525 257.458 62.6091 258.015 62.6091 258.734C62.6091 259.181 62.5028 259.581 62.2901 259.933C62.0848 260.285 61.7731 260.564 61.3551 260.769C60.9371 260.967 60.4238 261.066 59.8151 261.066C59.2651 261.066 58.7408 260.978 58.2421 260.802C57.7508 260.619 57.3548 260.377 57.0541 260.076L57.4391 259.449C57.6958 259.713 58.0331 259.929 58.4511 260.098C58.8691 260.259 59.3201 260.34 59.8041 260.34C60.4421 260.34 60.9335 260.197 61.2781 259.911C61.6301 259.625 61.8061 259.244 61.8061 258.767C61.8061 258.239 61.6081 257.839 61.2121 257.568C60.8235 257.297 60.1635 257.161 59.2321 257.161H57.5931L57.9891 253.3H62.2021V254.004H58.6821L58.4181 256.457H59.4081Z" fill="#999999"/>
<path d="M81.603 257.5H358.114" stroke="#E4E4E4" stroke-opacity="0.2" stroke-linecap="square"/>
<path d="M81.603 220.5H358.114" stroke="#E4E4E4" stroke-opacity="0.2" stroke-linecap="square"/>
<path d="M81.603 183.5H358.114" stroke="#E4E4E4" stroke-opacity="0.2" stroke-linecap="square"/>
<path d="M81.603 146.5H358.114" stroke="#E4E4E4" stroke-opacity="0.2" stroke-linecap="square"/>
<path d="M81.603 109.5H358.114" stroke="#E4E4E4" stroke-opacity="0.2" stroke-linecap="square"/>
<path d="M86.0884 198.043C87.3461 196.525 92.6842 199.919 99.2149 197.994C104.357 196.477 108.83 191.608 115.413 190.136C127.909 187.343 138.106 184.473 143.901 177.802C149.695 171.132 158.393 148.513 168.757 148.513C179.122 148.513 184.397 160.278 188.307 168.028C192.052 175.451 199.266 193.279 210.93 195.245C223.803 197.415 234.39 210.646 249.75 212.869C257.938 214.055 264.496 211.748 271.814 208.163C279.132 204.579 277.699 203.031 294.157 200.267C307.738 197.987 311.291 190.136 324.599 189.192C337.908 188.247 344.063 217.808 358.114 215.34" stroke="#6979F8" stroke-width="2" stroke-linecap="round" stroke-linejoin="round"/>
<g filter="url(#filter1_dd_66_2270)">
<rect x="163.514" y="140" width="14.7754" height="14" rx="7" fill="#6979F8"/>
<rect x="164.514" y="141" width="12.7754" height="12" rx="6" stroke="white" stroke-width="2"/>
</g>
<circle cx="175.5" cy="288.5" r="3.5" fill="#181818"/>
<circle cx="193.5" cy="288.5" r="3.5" fill="#C4C4C4"/>
<circle cx="211.5" cy="288.5" r="3.5" fill="#C4C4C4"/>
</g>
<defs>
<filter id="filter0_dd_66_2270" x="0" y="-8" width="407" height="374" filterUnits="userSpaceOnUse" color-interpolation-filters="sRGB">
<feFlood flood-opacity="0" result="BackgroundImageFix"/>
<feColorMatrix in="SourceAlpha" type="matrix" values="0 0 0 0 0 0 0 0 0 0 0 0 0 0 0 0 0 0 127 0" result="hardAlpha"/>
<feOffset dy="24"/>
<feGaussianBlur stdDeviation="16"/>
<feColorMatrix type="matrix" values="0 0 0 0 0.196487 0 0 0 0 0.196487 0 0 0 0 0.279476 0 0 0 0.08 0"/>
<feBlend mode="multiply" in2="BackgroundImageFix" result="effect1_dropShadow_66_2270"/>
<feColorMatrix in="SourceAlpha" type="matrix" values="0 0 0 0 0 0 0 0 0 0 0 0 0 0 0 0 0 0 127 0" result="hardAlpha"/>
<feOffset dy="16"/>
<feGaussianBlur stdDeviation="8"/>
<feColorMatrix type="matrix" values="0 0 0 0 0.196487 0 0 0 0 0.196487 0 0 0 0 0.279476 0 0 0 0.08 0"/>
<feBlend mode="multiply" in2="effect1_dropShadow_66_2270" result="effect2_dropShadow_66_2270"/>
<feBlend mode="normal" in="SourceGraphic" in2="effect2_dropShadow_66_2270" result="shape"/>
</filter>
<filter id="filter1_dd_66_2270" x="159.514" y="138" width="22.7754" height="22" filterUnits="userSpaceOnUse" color-interpolation-filters="sRGB">
<feFlood flood-opacity="0" result="BackgroundImageFix"/>
<feColorMatrix in="SourceAlpha" type="matrix" values="0 0 0 0 0 0 0 0 0 0 0 0 0 0 0 0 0 0 127 0" result="hardAlpha"/>
<feOffset dy="2"/>
<feGaussianBlur stdDeviation="2"/>
<feColorMatrix type="matrix" values="0 0 0 0 0.196487 0 0 0 0 0.196487 0 0 0 0 0.279476 0 0 0 0.06 0"/>
<feBlend mode="multiply" in2="BackgroundImageFix" result="effect1_dropShadow_66_2270"/>
<feColorMatrix in="SourceAlpha" type="matrix" values="0 0 0 0 0 0 0 0 0 0 0 0 0 0 0 0 0 0 127 0" result="hardAlpha"/>
<feOffset dy="2"/>
<feGaussianBlur stdDeviation="1"/>
<feColorMatrix type="matrix" values="0 0 0 0 0.196487 0 0 0 0 0.196487 0 0 0 0 0.279476 0 0 0 0.06 0"/>
<feBlend mode="multiply" in2="effect1_dropShadow_66_2270" result="effect2_dropShadow_66_2270"/>
<feBlend mode="normal" in="SourceGraphic" in2="effect2_dropShadow_66_2270" result="shape"/>
</filter>
</defs>
</svg>
