<svg width="407" height="365" viewBox="0 0 407 365" fill="none" xmlns="http://www.w3.org/2000/svg">
<g filter="url(#filter0_dd_47_528)">
<rect x="32" y="35" width="343" height="274" rx="10" fill="white"/>
<path d="M293.666 277.3V285H292.885V278.84L289.86 284.021H289.475L286.45 278.873V285H285.669V277.3H286.34L289.684 283.009L292.995 277.3H293.666ZM298.034 279.17C298.789 279.17 299.368 279.361 299.772 279.742C300.175 280.116 300.377 280.673 300.377 281.414V285H299.629V284.098C299.453 284.399 299.192 284.633 298.848 284.802C298.51 284.971 298.107 285.055 297.638 285.055C296.992 285.055 296.479 284.901 296.098 284.593C295.716 284.285 295.526 283.878 295.526 283.372C295.526 282.881 295.702 282.485 296.054 282.184C296.413 281.883 296.981 281.733 297.759 281.733H299.596V281.381C299.596 280.882 299.456 280.505 299.178 280.248C298.899 279.984 298.492 279.852 297.957 279.852C297.59 279.852 297.238 279.914 296.901 280.039C296.563 280.156 296.274 280.321 296.032 280.534L295.68 279.951C295.973 279.702 296.325 279.511 296.736 279.379C297.146 279.24 297.579 279.17 298.034 279.17ZM297.759 284.439C298.199 284.439 298.576 284.34 298.892 284.142C299.207 283.937 299.442 283.643 299.596 283.262V282.316H297.781C296.791 282.316 296.296 282.661 296.296 283.35C296.296 283.687 296.424 283.955 296.681 284.153C296.937 284.344 297.297 284.439 297.759 284.439ZM307.252 279.214L304.359 285.693C304.125 286.236 303.853 286.621 303.545 286.848C303.237 287.075 302.867 287.189 302.434 287.189C302.156 287.189 301.895 287.145 301.653 287.057C301.411 286.969 301.202 286.837 301.026 286.661L301.389 286.078C301.683 286.371 302.035 286.518 302.445 286.518C302.709 286.518 302.933 286.445 303.116 286.298C303.307 286.151 303.483 285.902 303.644 285.55L303.897 284.989L301.312 279.214H302.126L304.304 284.131L306.482 279.214H307.252Z" fill="#999999"/>
<path d="M239.145 282.943H234.855L233.931 285H233.084L236.604 277.3H237.407L240.927 285H240.069L239.145 282.943ZM238.848 282.283L237 278.147L235.152 282.283H238.848ZM245.017 279.17C245.56 279.17 246.051 279.295 246.491 279.544C246.931 279.786 247.276 280.131 247.525 280.578C247.774 281.025 247.899 281.535 247.899 282.107C247.899 282.686 247.774 283.2 247.525 283.647C247.276 284.094 246.931 284.443 246.491 284.692C246.058 284.934 245.567 285.055 245.017 285.055C244.548 285.055 244.122 284.96 243.741 284.769C243.367 284.571 243.059 284.285 242.817 283.911V287.134H242.036V279.214H242.784V280.358C243.019 279.977 243.327 279.683 243.708 279.478C244.097 279.273 244.533 279.17 245.017 279.17ZM244.962 284.362C245.365 284.362 245.732 284.27 246.062 284.087C246.392 283.896 246.649 283.629 246.832 283.284C247.023 282.939 247.118 282.547 247.118 282.107C247.118 281.667 247.023 281.278 246.832 280.941C246.649 280.596 246.392 280.329 246.062 280.138C245.732 279.947 245.365 279.852 244.962 279.852C244.551 279.852 244.181 279.947 243.851 280.138C243.528 280.329 243.272 280.596 243.081 280.941C242.898 281.278 242.806 281.667 242.806 282.107C242.806 282.547 242.898 282.939 243.081 283.284C243.272 283.629 243.528 283.896 243.851 284.087C244.181 284.27 244.551 284.362 244.962 284.362ZM250.239 280.347C250.422 279.958 250.694 279.665 251.053 279.467C251.42 279.269 251.871 279.17 252.406 279.17V279.929L252.219 279.918C251.61 279.918 251.134 280.105 250.789 280.479C250.444 280.853 250.272 281.377 250.272 282.052V285H249.491V279.214H250.239V280.347Z" fill="#999999"/>
<path d="M191.225 277.3V285H190.444V278.84L187.419 284.021H187.034L184.009 278.873V285H183.228V277.3H183.899L187.243 283.009L190.554 277.3H191.225ZM195.593 279.17C196.348 279.17 196.928 279.361 197.331 279.742C197.734 280.116 197.936 280.673 197.936 281.414V285H197.188V284.098C197.012 284.399 196.752 284.633 196.407 284.802C196.07 284.971 195.666 285.055 195.197 285.055C194.552 285.055 194.038 284.901 193.657 284.593C193.276 284.285 193.085 283.878 193.085 283.372C193.085 282.881 193.261 282.485 193.613 282.184C193.972 281.883 194.541 281.733 195.318 281.733H197.155V281.381C197.155 280.882 197.016 280.505 196.737 280.248C196.458 279.984 196.051 279.852 195.516 279.852C195.149 279.852 194.797 279.914 194.46 280.039C194.123 280.156 193.833 280.321 193.591 280.534L193.239 279.951C193.532 279.702 193.884 279.511 194.295 279.379C194.706 279.24 195.138 279.17 195.593 279.17ZM195.318 284.439C195.758 284.439 196.136 284.34 196.451 284.142C196.766 283.937 197.001 283.643 197.155 283.262V282.316H195.34C194.35 282.316 193.855 282.661 193.855 283.35C193.855 283.687 193.983 283.955 194.24 284.153C194.497 284.344 194.856 284.439 195.318 284.439ZM200.805 280.347C200.988 279.958 201.26 279.665 201.619 279.467C201.986 279.269 202.437 279.17 202.972 279.17V279.929L202.785 279.918C202.176 279.918 201.7 280.105 201.355 280.479C201.01 280.853 200.838 281.377 200.838 282.052V285H200.057V279.214H200.805V280.347Z" fill="#999999"/>
<path d="M133.527 278.004V281.029H137.509V281.733H133.527V285H132.713V277.3H137.993V278.004H133.527ZM144.354 282.349H139.514C139.558 282.95 139.789 283.438 140.207 283.812C140.625 284.179 141.153 284.362 141.791 284.362C142.15 284.362 142.48 284.3 142.781 284.175C143.082 284.043 143.342 283.852 143.562 283.603L144.002 284.109C143.745 284.417 143.423 284.652 143.034 284.813C142.653 284.974 142.231 285.055 141.769 285.055C141.175 285.055 140.647 284.93 140.185 284.681C139.73 284.424 139.375 284.072 139.118 283.625C138.861 283.178 138.733 282.672 138.733 282.107C138.733 281.542 138.854 281.036 139.096 280.589C139.345 280.142 139.683 279.793 140.108 279.544C140.541 279.295 141.025 279.17 141.56 279.17C142.095 279.17 142.576 279.295 143.001 279.544C143.426 279.793 143.76 280.142 144.002 280.589C144.244 281.029 144.365 281.535 144.365 282.107L144.354 282.349ZM141.56 279.841C141.003 279.841 140.533 280.021 140.152 280.38C139.778 280.732 139.565 281.194 139.514 281.766H143.617C143.566 281.194 143.349 280.732 142.968 280.38C142.594 280.021 142.125 279.841 141.56 279.841ZM148.936 279.17C149.478 279.17 149.97 279.295 150.41 279.544C150.85 279.786 151.194 280.131 151.444 280.578C151.693 281.025 151.818 281.535 151.818 282.107C151.818 282.679 151.693 283.189 151.444 283.636C151.194 284.083 150.85 284.432 150.41 284.681C149.97 284.93 149.478 285.055 148.936 285.055C148.452 285.055 148.015 284.952 147.627 284.747C147.245 284.542 146.937 284.245 146.703 283.856V285H145.955V276.838H146.736V280.314C146.978 279.94 147.286 279.658 147.66 279.467C148.041 279.269 148.466 279.17 148.936 279.17ZM148.881 284.362C149.284 284.362 149.651 284.27 149.981 284.087C150.311 283.896 150.567 283.629 150.751 283.284C150.941 282.939 151.037 282.547 151.037 282.107C151.037 281.667 150.941 281.275 150.751 280.93C150.567 280.585 150.311 280.321 149.981 280.138C149.651 279.947 149.284 279.852 148.881 279.852C148.47 279.852 148.1 279.947 147.77 280.138C147.447 280.321 147.19 280.585 147 280.93C146.816 281.275 146.725 281.667 146.725 282.107C146.725 282.547 146.816 282.939 147 283.284C147.19 283.629 147.447 283.896 147.77 284.087C148.1 284.27 148.47 284.362 148.881 284.362Z" fill="#999999"/>
<path d="M339.056 285.066C338.616 285.066 338.209 284.971 337.835 284.78C337.461 284.589 337.156 284.318 336.922 283.966L337.406 283.416C337.831 284.047 338.385 284.362 339.067 284.362C340.02 284.362 340.497 283.797 340.497 282.668V278.004H337.681V277.3H341.3V282.635C341.3 283.442 341.109 284.05 340.728 284.461C340.354 284.864 339.796 285.066 339.056 285.066ZM348.79 279.214V285H348.042V283.944C347.837 284.296 347.555 284.571 347.195 284.769C346.836 284.96 346.425 285.055 345.963 285.055C345.208 285.055 344.61 284.846 344.17 284.428C343.738 284.003 343.521 283.383 343.521 282.569V279.214H344.302V282.492C344.302 283.101 344.453 283.563 344.753 283.878C345.054 284.193 345.483 284.351 346.04 284.351C346.649 284.351 347.129 284.168 347.481 283.801C347.833 283.427 348.009 282.91 348.009 282.25V279.214H348.79ZM353.926 279.17C354.652 279.17 355.227 279.383 355.653 279.808C356.085 280.226 356.302 280.838 356.302 281.645V285H355.521V281.722C355.521 281.121 355.37 280.662 355.07 280.347C354.769 280.032 354.34 279.874 353.783 279.874C353.159 279.874 352.664 280.061 352.298 280.435C351.938 280.802 351.759 281.311 351.759 281.964V285H350.978V279.214H351.726V280.281C351.938 279.929 352.232 279.658 352.606 279.467C352.987 279.269 353.427 279.17 353.926 279.17Z" fill="#999999"/>
<path d="M82.4034 285.066C81.9634 285.066 81.5564 284.971 81.1824 284.78C80.8084 284.589 80.504 284.318 80.2694 283.966L80.7534 283.416C81.1787 284.047 81.7324 284.362 82.4144 284.362C83.3677 284.362 83.8444 283.797 83.8444 282.668V278.004H81.0284V277.3H84.6474V282.635C84.6474 283.442 84.4567 284.05 84.0754 284.461C83.7014 284.864 83.144 285.066 82.4034 285.066ZM88.9481 279.17C89.7034 279.17 90.2828 279.361 90.6861 279.742C91.0894 280.116 91.2911 280.673 91.2911 281.414V285H90.5431V284.098C90.3671 284.399 90.1068 284.633 89.7621 284.802C89.4248 284.971 89.0214 285.055 88.5521 285.055C87.9068 285.055 87.3934 284.901 87.0121 284.593C86.6308 284.285 86.4401 283.878 86.4401 283.372C86.4401 282.881 86.6161 282.485 86.9681 282.184C87.3274 281.883 87.8958 281.733 88.6731 281.733H90.5101V281.381C90.5101 280.882 90.3708 280.505 90.0921 280.248C89.8134 279.984 89.4064 279.852 88.8711 279.852C88.5044 279.852 88.1524 279.914 87.8151 280.039C87.4778 280.156 87.1881 280.321 86.9461 280.534L86.5941 279.951C86.8874 279.702 87.2394 279.511 87.6501 279.379C88.0608 279.24 88.4934 279.17 88.9481 279.17ZM88.6731 284.439C89.1131 284.439 89.4908 284.34 89.8061 284.142C90.1214 283.937 90.3561 283.643 90.5101 283.262V282.316H88.6951C87.7051 282.316 87.2101 282.661 87.2101 283.35C87.2101 283.687 87.3384 283.955 87.5951 284.153C87.8518 284.344 88.2111 284.439 88.6731 284.439ZM96.3604 279.17C97.0864 279.17 97.662 279.383 98.0874 279.808C98.52 280.226 98.7364 280.838 98.7364 281.645V285H97.9554V281.722C97.9554 281.121 97.805 280.662 97.5044 280.347C97.2037 280.032 96.7747 279.874 96.2174 279.874C95.594 279.874 95.099 280.061 94.7324 280.435C94.373 280.802 94.1934 281.311 94.1934 281.964V285H93.4124V279.214H94.1604V280.281C94.373 279.929 94.6664 279.658 95.0404 279.467C95.4217 279.269 95.8617 279.17 96.3604 279.17Z" fill="#999999"/>
<path d="M56.1539 113.296V114H50.7529V113.439L53.9539 110.304C54.3572 109.908 54.6285 109.567 54.7679 109.281C54.9145 108.988 54.9879 108.694 54.9879 108.401C54.9879 107.946 54.8302 107.594 54.5149 107.345C54.2069 107.088 53.7632 106.96 53.1839 106.96C52.2819 106.96 51.5815 107.246 51.0829 107.818L50.5219 107.334C50.8225 106.982 51.2039 106.711 51.6659 106.52C52.1352 106.329 52.6632 106.234 53.2499 106.234C54.0345 106.234 54.6542 106.421 55.1089 106.795C55.5709 107.162 55.8019 107.668 55.8019 108.313C55.8019 108.709 55.7139 109.09 55.5379 109.457C55.3619 109.824 55.0282 110.245 54.5369 110.722L51.9189 113.296H56.1539ZM59.5458 106.234C60.5652 106.234 61.3462 106.571 61.8888 107.246C62.4315 107.913 62.7028 108.859 62.7028 110.084C62.7028 110.942 62.5562 111.668 62.2628 112.262C61.9695 112.856 61.5588 113.307 61.0308 113.615C60.5028 113.916 59.8868 114.066 59.1828 114.066C58.4202 114.066 57.8115 113.927 57.3568 113.648L57.6758 113.01C58.0425 113.252 58.5412 113.373 59.1718 113.373C60.0225 113.373 60.6898 113.105 61.1738 112.57C61.6578 112.027 61.8998 111.243 61.8998 110.216C61.8998 110.025 61.8888 109.816 61.8668 109.589C61.6762 110.007 61.3718 110.333 60.9538 110.568C60.5358 110.795 60.0555 110.909 59.5128 110.909C59.0068 110.909 58.5558 110.814 58.1598 110.623C57.7712 110.432 57.4668 110.165 57.2468 109.82C57.0268 109.468 56.9168 109.061 56.9168 108.599C56.9168 108.13 57.0305 107.715 57.2578 107.356C57.4852 106.997 57.7968 106.722 58.1928 106.531C58.5962 106.333 59.0472 106.234 59.5458 106.234ZM59.6338 110.238C60.0225 110.238 60.3635 110.165 60.6568 110.018C60.9575 109.871 61.1922 109.67 61.3608 109.413C61.5295 109.156 61.6138 108.87 61.6138 108.555C61.6138 108.262 61.5332 107.99 61.3718 107.741C61.2178 107.492 60.9868 107.29 60.6788 107.136C60.3708 106.982 60.0042 106.905 59.5788 106.905C59.0215 106.905 58.5668 107.059 58.2148 107.367C57.8702 107.668 57.6978 108.071 57.6978 108.577C57.6978 109.083 57.8702 109.486 58.2148 109.787C58.5668 110.088 59.0398 110.238 59.6338 110.238Z" fill="#999999"/>
<path d="M55.4701 146.296V147H50.0691V146.439L53.2701 143.304C53.6735 142.908 53.9448 142.567 54.0841 142.281C54.2308 141.988 54.3041 141.694 54.3041 141.401C54.3041 140.946 54.1465 140.594 53.8311 140.345C53.5231 140.088 53.0795 139.96 52.5001 139.96C51.5981 139.96 50.8978 140.246 50.3991 140.818L49.8381 140.334C50.1388 139.982 50.5201 139.711 50.9821 139.52C51.4515 139.329 51.9795 139.234 52.5661 139.234C53.3508 139.234 53.9705 139.421 54.4251 139.795C54.8871 140.162 55.1181 140.668 55.1181 141.313C55.1181 141.709 55.0301 142.09 54.8541 142.457C54.6781 142.824 54.3445 143.245 53.8531 143.722L51.2351 146.296H55.4701ZM60.8751 142.963C61.3591 143.124 61.7294 143.366 61.9861 143.689C62.2501 144.012 62.3821 144.4 62.3821 144.855C62.3821 145.302 62.2611 145.695 62.0191 146.032C61.7771 146.362 61.4288 146.619 60.9741 146.802C60.5268 146.978 59.9988 147.066 59.3901 147.066C58.4661 147.066 57.7401 146.868 57.2121 146.472C56.6841 146.076 56.4201 145.537 56.4201 144.855C56.4201 144.393 56.5448 144.004 56.7941 143.689C57.0508 143.366 57.4211 143.124 57.9051 142.963C57.5091 142.809 57.2084 142.589 57.0031 142.303C56.7978 142.01 56.6951 141.665 56.6951 141.269C56.6951 140.646 56.9371 140.151 57.4211 139.784C57.9124 139.417 58.5688 139.234 59.3901 139.234C59.9328 139.234 60.4058 139.318 60.8091 139.487C61.2198 139.648 61.5388 139.883 61.7661 140.191C61.9934 140.499 62.1071 140.858 62.1071 141.269C62.1071 141.665 62.0008 142.01 61.7881 142.303C61.5754 142.589 61.2711 142.809 60.8751 142.963ZM57.4871 141.291C57.4871 141.716 57.6558 142.054 57.9931 142.303C58.3304 142.552 58.7961 142.677 59.3901 142.677C59.9841 142.677 60.4498 142.552 60.7871 142.303C61.1318 142.054 61.3041 141.72 61.3041 141.302C61.3041 140.869 61.1281 140.528 60.7761 140.279C60.4314 140.03 59.9694 139.905 59.3901 139.905C58.8034 139.905 58.3378 140.03 57.9931 140.279C57.6558 140.528 57.4871 140.866 57.4871 141.291ZM59.3901 146.395C60.0721 146.395 60.6038 146.256 60.9851 145.977C61.3738 145.698 61.5681 145.321 61.5681 144.844C61.5681 144.367 61.3738 143.993 60.9851 143.722C60.6038 143.443 60.0721 143.304 59.3901 143.304C58.7154 143.304 58.1838 143.443 57.7951 143.722C57.4138 143.993 57.2231 144.367 57.2231 144.844C57.2231 145.328 57.4138 145.709 57.7951 145.988C58.1764 146.259 58.7081 146.395 59.3901 146.395Z" fill="#999999"/>
<path d="M56.2881 185.296V186H50.8871V185.439L54.0881 182.304C54.4915 181.908 54.7628 181.567 54.9021 181.281C55.0488 180.988 55.1221 180.694 55.1221 180.401C55.1221 179.946 54.9645 179.594 54.6491 179.345C54.3411 179.088 53.8975 178.96 53.3181 178.96C52.4161 178.96 51.7158 179.246 51.2171 179.818L50.6561 179.334C50.9568 178.982 51.3381 178.711 51.8001 178.52C52.2695 178.329 52.7975 178.234 53.3841 178.234C54.1688 178.234 54.7885 178.421 55.2431 178.795C55.7051 179.162 55.9361 179.668 55.9361 180.313C55.9361 180.709 55.8481 181.09 55.6721 181.457C55.4961 181.824 55.1625 182.245 54.6711 182.722L52.0531 185.296H56.2881ZM62.6731 178.3V178.861L59.4501 186H58.5921L61.7601 179.004H57.8001V180.445H57.0191V178.3H62.6731Z" fill="#999999"/>
<path d="M56.1754 223.296V224H50.7744V223.439L53.9754 220.304C54.3787 219.908 54.65 219.567 54.7894 219.281C54.936 218.988 55.0094 218.694 55.0094 218.401C55.0094 217.946 54.8517 217.594 54.5364 217.345C54.2284 217.088 53.7847 216.96 53.2054 216.96C52.3034 216.96 51.603 217.246 51.1044 217.818L50.5434 217.334C50.844 216.982 51.2254 216.711 51.6874 216.52C52.1567 216.329 52.6847 216.234 53.2714 216.234C54.056 216.234 54.6757 216.421 55.1304 216.795C55.5924 217.162 55.8234 217.668 55.8234 218.313C55.8234 218.709 55.7354 219.09 55.5594 219.457C55.3834 219.824 55.0497 220.245 54.5584 220.722L51.9404 223.296H56.1754ZM60.3163 219.391C60.8223 219.391 61.2697 219.486 61.6583 219.677C62.0543 219.868 62.3623 220.139 62.5823 220.491C62.8023 220.836 62.9123 221.239 62.9123 221.701C62.9123 222.17 62.7987 222.585 62.5713 222.944C62.344 223.303 62.0287 223.582 61.6253 223.78C61.2293 223.971 60.782 224.066 60.2833 224.066C59.264 224.066 58.483 223.732 57.9403 223.065C57.3977 222.39 57.1263 221.441 57.1263 220.216C57.1263 219.358 57.273 218.632 57.5663 218.038C57.8597 217.444 58.2703 216.997 58.7983 216.696C59.3263 216.388 59.9423 216.234 60.6463 216.234C61.409 216.234 62.0177 216.373 62.4723 216.652L62.1533 217.29C61.7867 217.048 61.288 216.927 60.6573 216.927C59.8067 216.927 59.1393 217.198 58.6553 217.741C58.1713 218.276 57.9293 219.057 57.9293 220.084C57.9293 220.267 57.9403 220.476 57.9623 220.711C58.153 220.293 58.4573 219.97 58.8753 219.743C59.2933 219.508 59.7737 219.391 60.3163 219.391ZM60.2503 223.395C60.8077 223.395 61.2587 223.245 61.6033 222.944C61.9553 222.636 62.1313 222.229 62.1313 221.723C62.1313 221.217 61.9553 220.814 61.6033 220.513C61.2587 220.212 60.7893 220.062 60.1953 220.062C59.8067 220.062 59.462 220.135 59.1613 220.282C58.868 220.429 58.637 220.63 58.4683 220.887C58.2997 221.144 58.2153 221.43 58.2153 221.745C58.2153 222.038 58.2923 222.31 58.4463 222.559C58.6077 222.808 58.8423 223.01 59.1503 223.164C59.4583 223.318 59.825 223.395 60.2503 223.395Z" fill="#999999"/>
<path d="M56.3902 260.296V261H50.9892V260.439L54.1902 257.304C54.5935 256.908 54.8649 256.567 55.0042 256.281C55.1509 255.988 55.2242 255.694 55.2242 255.401C55.2242 254.946 55.0665 254.594 54.7512 254.345C54.4432 254.088 53.9995 253.96 53.4202 253.96C52.5182 253.96 51.8179 254.246 51.3192 254.818L50.7582 254.334C51.0589 253.982 51.4402 253.711 51.9022 253.52C52.3715 253.329 52.8995 253.234 53.4862 253.234C54.2709 253.234 54.8905 253.421 55.3452 253.795C55.8072 254.162 56.0382 254.668 56.0382 255.313C56.0382 255.709 55.9502 256.09 55.7742 256.457C55.5982 256.824 55.2645 257.245 54.7732 257.722L52.1552 260.296H56.3902ZM59.4081 256.457C60.5228 256.457 61.3331 256.659 61.8391 257.062C62.3525 257.458 62.6091 258.015 62.6091 258.734C62.6091 259.181 62.5028 259.581 62.2901 259.933C62.0848 260.285 61.7731 260.564 61.3551 260.769C60.9371 260.967 60.4238 261.066 59.8151 261.066C59.2651 261.066 58.7408 260.978 58.2421 260.802C57.7508 260.619 57.3548 260.377 57.0541 260.076L57.4391 259.449C57.6958 259.713 58.0331 259.929 58.4511 260.098C58.8691 260.259 59.3201 260.34 59.8041 260.34C60.4421 260.34 60.9335 260.197 61.2781 259.911C61.6301 259.625 61.8061 259.244 61.8061 258.767C61.8061 258.239 61.6081 257.839 61.2121 257.568C60.8235 257.297 60.1635 257.161 59.2321 257.161H57.5931L57.9891 253.3H62.2021V254.004H58.6821L58.4181 256.457H59.4081Z" fill="#999999"/>
<path d="M81.6025 257.5H358.113" stroke="#E4E4E4" stroke-opacity="0.2" stroke-linecap="square"/>
<path d="M81.6025 220.5H358.113" stroke="#E4E4E4" stroke-opacity="0.2" stroke-linecap="square"/>
<path d="M81.6025 183.5H358.113" stroke="#E4E4E4" stroke-opacity="0.2" stroke-linecap="square"/>
<path d="M81.6025 146.5H358.113" stroke="#E4E4E4" stroke-opacity="0.2" stroke-linecap="square"/>
<path d="M81.6025 109.5H358.113" stroke="#E4E4E4" stroke-opacity="0.2" stroke-linecap="square"/>
<path d="M86.0879 198.043C87.3457 196.525 92.6837 199.919 99.2144 197.994C104.357 196.477 108.83 191.608 115.413 190.136C127.908 187.343 138.106 184.473 143.9 177.802C149.695 171.132 158.392 148.513 168.757 148.513C179.121 148.513 184.397 160.278 188.307 168.028C192.052 175.451 199.266 193.279 210.929 195.245C223.803 197.415 234.389 210.646 249.75 212.869C257.937 214.055 264.496 211.748 271.814 208.163C279.131 204.579 277.699 203.031 294.157 200.267C307.738 197.987 311.29 190.136 324.599 189.192C337.907 188.247 344.063 217.808 358.113 215.34" stroke="#6979F8" stroke-width="2" stroke-linecap="round" stroke-linejoin="round"/>
<g filter="url(#filter1_dd_47_528)">
<rect x="163.514" y="140" width="14.7754" height="14" rx="7" fill="#6979F8"/>
<rect x="164.514" y="141" width="12.7754" height="12" rx="6" stroke="white" stroke-width="2"/>
</g>
<path d="M54.6757 63.5C55.6057 63.5 56.4107 63.655 57.0907 63.965C57.7807 64.275 58.3107 64.715 58.6807 65.285C59.0507 65.855 59.2357 66.53 59.2357 67.31C59.2357 68.08 59.0507 68.755 58.6807 69.335C58.3107 69.905 57.7807 70.345 57.0907 70.655C56.4107 70.955 55.6057 71.105 54.6757 71.105H52.5607V74H50.1307V63.5H54.6757ZM54.5407 69.125C55.2707 69.125 55.8257 68.97 56.2057 68.66C56.5857 68.34 56.7757 67.89 56.7757 67.31C56.7757 66.72 56.5857 66.27 56.2057 65.96C55.8257 65.64 55.2707 65.48 54.5407 65.48H52.5607V69.125H54.5407ZM64.6309 74.12C63.7809 74.12 63.0159 73.945 62.3359 73.595C61.6659 73.235 61.1409 72.74 60.7609 72.11C60.3809 71.48 60.1909 70.765 60.1909 69.965C60.1909 69.165 60.3809 68.45 60.7609 67.82C61.1409 67.19 61.6659 66.7 62.3359 66.35C63.0159 65.99 63.7809 65.81 64.6309 65.81C65.4809 65.81 66.2409 65.99 66.9109 66.35C67.5809 66.7 68.1059 67.19 68.4859 67.82C68.8659 68.45 69.0559 69.165 69.0559 69.965C69.0559 70.765 68.8659 71.48 68.4859 72.11C68.1059 72.74 67.5809 73.235 66.9109 73.595C66.2409 73.945 65.4809 74.12 64.6309 74.12ZM64.6309 72.2C65.2309 72.2 65.7209 72 66.1009 71.6C66.4909 71.19 66.6859 70.645 66.6859 69.965C66.6859 69.285 66.4909 68.745 66.1009 68.345C65.7209 67.935 65.2309 67.73 64.6309 67.73C64.0309 67.73 63.5359 67.935 63.1459 68.345C62.7559 68.745 62.5609 69.285 62.5609 69.965C62.5609 70.645 62.7559 71.19 63.1459 71.6C63.5359 72 64.0309 72.2 64.6309 72.2ZM70.62 65.93H72.96V74H70.62V65.93ZM71.79 64.805C71.36 64.805 71.01 64.68 70.74 64.43C70.47 64.18 70.335 63.87 70.335 63.5C70.335 63.13 70.47 62.82 70.74 62.57C71.01 62.32 71.36 62.195 71.79 62.195C72.22 62.195 72.57 62.315 72.84 62.555C73.11 62.795 73.245 63.095 73.245 63.455C73.245 63.845 73.11 64.17 72.84 64.43C72.57 64.68 72.22 64.805 71.79 64.805ZM80.0368 65.81C81.0368 65.81 81.8418 66.11 82.4518 66.71C83.0718 67.31 83.3818 68.2 83.3818 69.38V74H81.0418V69.74C81.0418 69.1 80.9018 68.625 80.6218 68.315C80.3418 67.995 79.9368 67.835 79.4068 67.835C78.8168 67.835 78.3468 68.02 77.9968 68.39C77.6468 68.75 77.4718 69.29 77.4718 70.01V74H75.1318V65.93H77.3668V66.875C77.6768 66.535 78.0618 66.275 78.5218 66.095C78.9818 65.905 79.4868 65.81 80.0368 65.81ZM90.7079 73.61C90.4779 73.78 90.1929 73.91 89.8529 74C89.5229 74.08 89.1729 74.12 88.8029 74.12C87.8429 74.12 87.0979 73.875 86.5679 73.385C86.0479 72.895 85.7879 72.175 85.7879 71.225V67.91H84.5429V66.11H85.7879V64.145H88.1279V66.11H90.1379V67.91H88.1279V71.195C88.1279 71.535 88.2129 71.8 88.3829 71.99C88.5629 72.17 88.8129 72.26 89.1329 72.26C89.5029 72.26 89.8179 72.16 90.0779 71.96L90.7079 73.61ZM101.459 74.18C100.389 74.18 99.4195 73.95 98.5495 73.49C97.6895 73.02 97.0095 72.375 96.5095 71.555C96.0195 70.725 95.7745 69.79 95.7745 68.75C95.7745 67.71 96.0195 66.78 96.5095 65.96C97.0095 65.13 97.6895 64.485 98.5495 64.025C99.4195 63.555 100.394 63.32 101.474 63.32C102.384 63.32 103.204 63.48 103.934 63.8C104.674 64.12 105.294 64.58 105.794 65.18L104.234 66.62C103.524 65.8 102.644 65.39 101.594 65.39C100.944 65.39 100.364 65.535 99.8545 65.825C99.3445 66.105 98.9445 66.5 98.6545 67.01C98.3745 67.52 98.2345 68.1 98.2345 68.75C98.2345 69.4 98.3745 69.98 98.6545 70.49C98.9445 71 99.3445 71.4 99.8545 71.69C100.364 71.97 100.944 72.11 101.594 72.11C102.644 72.11 103.524 71.695 104.234 70.865L105.794 72.305C105.294 72.915 104.674 73.38 103.934 73.7C103.194 74.02 102.369 74.18 101.459 74.18ZM110.467 65.81C111.717 65.81 112.677 66.11 113.347 66.71C114.017 67.3 114.352 68.195 114.352 69.395V74H112.162V72.995C111.722 73.745 110.902 74.12 109.702 74.12C109.082 74.12 108.542 74.015 108.082 73.805C107.632 73.595 107.287 73.305 107.047 72.935C106.807 72.565 106.687 72.145 106.687 71.675C106.687 70.925 106.967 70.335 107.527 69.905C108.097 69.475 108.972 69.26 110.152 69.26H112.012C112.012 68.75 111.857 68.36 111.547 68.09C111.237 67.81 110.772 67.67 110.152 67.67C109.722 67.67 109.297 67.74 108.877 67.88C108.467 68.01 108.117 68.19 107.827 68.42L106.987 66.785C107.427 66.475 107.952 66.235 108.562 66.065C109.182 65.895 109.817 65.81 110.467 65.81ZM110.287 72.545C110.687 72.545 111.042 72.455 111.352 72.275C111.662 72.085 111.882 71.81 112.012 71.45V70.625H110.407C109.447 70.625 108.967 70.94 108.967 71.57C108.967 71.87 109.082 72.11 109.312 72.29C109.552 72.46 109.877 72.545 110.287 72.545ZM118.705 66.995C118.985 66.605 119.36 66.31 119.83 66.11C120.31 65.91 120.86 65.81 121.48 65.81V67.97C121.22 67.95 121.045 67.94 120.955 67.94C120.285 67.94 119.76 68.13 119.38 68.51C119 68.88 118.81 69.44 118.81 70.19V74H116.47V65.93H118.705V66.995ZM131.018 62.87V74H128.783V73.07C128.203 73.77 127.363 74.12 126.263 74.12C125.503 74.12 124.813 73.95 124.193 73.61C123.583 73.27 123.103 72.785 122.753 72.155C122.403 71.525 122.228 70.795 122.228 69.965C122.228 69.135 122.403 68.405 122.753 67.775C123.103 67.145 123.583 66.66 124.193 66.32C124.813 65.98 125.503 65.81 126.263 65.81C127.293 65.81 128.098 66.135 128.678 66.785V62.87H131.018ZM126.668 72.2C127.258 72.2 127.748 72 128.138 71.6C128.528 71.19 128.723 70.645 128.723 69.965C128.723 69.285 128.528 68.745 128.138 68.345C127.748 67.935 127.258 67.73 126.668 67.73C126.068 67.73 125.573 67.935 125.183 68.345C124.793 68.745 124.598 69.285 124.598 69.965C124.598 70.645 124.793 71.19 125.183 71.6C125.573 72 126.068 72.2 126.668 72.2Z" fill="#151522"/>
<path d="M295.731 67.175L295.341 70.325H297.471V71.15H295.236L294.891 74H294.081L294.426 71.15H291.351L290.991 74H290.181L290.526 71.15H288.396V70.325H290.631L291.021 67.175H288.876V66.35H291.126L291.471 63.5H292.296L291.936 66.35H295.026L295.371 63.5H296.181L295.836 66.35H297.951V67.175H295.731ZM294.921 67.175H291.846L291.441 70.325H294.531L294.921 67.175ZM304.675 74.09C303.635 74.09 302.695 73.86 301.855 73.4C301.025 72.94 300.37 72.305 299.89 71.495C299.42 70.675 299.185 69.76 299.185 68.75C299.185 67.74 299.42 66.83 299.89 66.02C300.37 65.2 301.03 64.56 301.87 64.1C302.71 63.64 303.65 63.41 304.69 63.41C305.47 63.41 306.19 63.54 306.85 63.8C307.51 64.06 308.07 64.44 308.53 64.94L307.825 65.645C307.005 64.815 305.97 64.4 304.72 64.4C303.89 64.4 303.135 64.59 302.455 64.97C301.775 65.35 301.24 65.87 300.85 66.53C300.47 67.19 300.28 67.93 300.28 68.75C300.28 69.57 300.47 70.31 300.85 70.97C301.24 71.63 301.775 72.15 302.455 72.53C303.135 72.91 303.89 73.1 304.72 73.1C305.98 73.1 307.015 72.68 307.825 71.84L308.53 72.545C308.07 73.045 307.505 73.43 306.835 73.7C306.175 73.96 305.455 74.09 304.675 74.09ZM315.776 68.495C316.436 68.715 316.941 69.045 317.291 69.485C317.651 69.925 317.831 70.455 317.831 71.075C317.831 71.685 317.666 72.22 317.336 72.68C317.006 73.13 316.531 73.48 315.911 73.73C315.301 73.97 314.581 74.09 313.751 74.09C312.491 74.09 311.501 73.82 310.781 73.28C310.061 72.74 309.701 72.005 309.701 71.075C309.701 70.445 309.871 69.915 310.211 69.485C310.561 69.045 311.066 68.715 311.726 68.495C311.186 68.285 310.776 67.985 310.496 67.595C310.216 67.195 310.076 66.725 310.076 66.185C310.076 65.335 310.406 64.66 311.066 64.16C311.736 63.66 312.631 63.41 313.751 63.41C314.491 63.41 315.136 63.525 315.686 63.755C316.246 63.975 316.681 64.295 316.991 64.715C317.301 65.135 317.456 65.625 317.456 66.185C317.456 66.725 317.311 67.195 317.021 67.595C316.731 67.985 316.316 68.285 315.776 68.495ZM311.156 66.215C311.156 66.795 311.386 67.255 311.846 67.595C312.306 67.935 312.941 68.105 313.751 68.105C314.561 68.105 315.196 67.935 315.656 67.595C316.126 67.255 316.361 66.8 316.361 66.23C316.361 65.64 316.121 65.175 315.641 64.835C315.171 64.495 314.541 64.325 313.751 64.325C312.951 64.325 312.316 64.495 311.846 64.835C311.386 65.175 311.156 65.635 311.156 66.215ZM313.751 73.175C314.681 73.175 315.406 72.985 315.926 72.605C316.456 72.225 316.721 71.71 316.721 71.06C316.721 70.41 316.456 69.9 315.926 69.53C315.406 69.15 314.681 68.96 313.751 68.96C312.831 68.96 312.106 69.15 311.576 69.53C311.056 69.9 310.796 70.41 310.796 71.06C310.796 71.72 311.056 72.24 311.576 72.62C312.096 72.99 312.821 73.175 313.751 73.175ZM322.897 68C323.997 68.06 324.832 68.36 325.402 68.9C325.982 69.43 326.272 70.125 326.272 70.985C326.272 71.585 326.127 72.12 325.837 72.59C325.547 73.05 325.117 73.415 324.547 73.685C323.977 73.955 323.282 74.09 322.462 74.09C321.702 74.09 320.982 73.97 320.302 73.73C319.632 73.48 319.092 73.15 318.682 72.74L319.207 71.885C319.557 72.245 320.022 72.54 320.602 72.77C321.182 72.99 321.802 73.1 322.462 73.1C323.322 73.1 323.987 72.915 324.457 72.545C324.927 72.165 325.162 71.645 325.162 70.985C325.162 70.335 324.927 69.825 324.457 69.455C323.987 69.085 323.277 68.9 322.327 68.9H321.577V68.105L324.487 64.46H319.117V63.5H325.867V64.265L322.897 68ZM331.063 63.41C332.453 63.41 333.518 63.87 334.258 64.79C334.998 65.7 335.368 66.99 335.368 68.66C335.368 69.83 335.168 70.82 334.768 71.63C334.368 72.44 333.808 73.055 333.088 73.475C332.368 73.885 331.528 74.09 330.568 74.09C329.528 74.09 328.698 73.9 328.078 73.52L328.513 72.65C329.013 72.98 329.693 73.145 330.553 73.145C331.713 73.145 332.623 72.78 333.283 72.05C333.943 71.31 334.273 70.24 334.273 68.84C334.273 68.58 334.258 68.295 334.228 67.985C333.968 68.555 333.553 69 332.983 69.32C332.413 69.63 331.758 69.785 331.018 69.785C330.328 69.785 329.713 69.655 329.173 69.395C328.643 69.135 328.228 68.77 327.928 68.3C327.628 67.82 327.478 67.265 327.478 66.635C327.478 65.995 327.633 65.43 327.943 64.94C328.253 64.45 328.678 64.075 329.218 63.815C329.768 63.545 330.383 63.41 331.063 63.41ZM331.183 68.87C331.713 68.87 332.178 68.77 332.578 68.57C332.988 68.37 333.308 68.095 333.538 67.745C333.768 67.395 333.883 67.005 333.883 66.575C333.883 66.175 333.773 65.805 333.553 65.465C333.343 65.125 333.028 64.85 332.608 64.64C332.188 64.43 331.688 64.325 331.108 64.325C330.348 64.325 329.728 64.535 329.248 64.955C328.778 65.365 328.543 65.915 328.543 66.605C328.543 67.295 328.778 67.845 329.248 68.255C329.728 68.665 330.373 68.87 331.183 68.87ZM345.859 71.24H343.759V74H342.679V71.24H336.754V70.46L342.319 63.5H343.519L338.149 70.28H342.709V67.85H343.759V70.28H345.859V71.24ZM351.036 74.09C350.226 74.09 349.501 73.875 348.861 73.445C348.231 73.015 347.736 72.4 347.376 71.6C347.026 70.79 346.851 69.84 346.851 68.75C346.851 67.66 347.026 66.715 347.376 65.915C347.736 65.105 348.231 64.485 348.861 64.055C349.501 63.625 350.226 63.41 351.036 63.41C351.846 63.41 352.566 63.625 353.196 64.055C353.836 64.485 354.336 65.105 354.696 65.915C355.056 66.715 355.236 67.66 355.236 68.75C355.236 69.84 355.056 70.79 354.696 71.6C354.336 72.4 353.836 73.015 353.196 73.445C352.566 73.875 351.846 74.09 351.036 74.09ZM351.036 73.1C351.646 73.1 352.181 72.93 352.641 72.59C353.111 72.25 353.476 71.755 353.736 71.105C353.996 70.455 354.126 69.67 354.126 68.75C354.126 67.83 353.996 67.045 353.736 66.395C353.476 65.745 353.111 65.25 352.641 64.91C352.181 64.57 351.646 64.4 351.036 64.4C350.426 64.4 349.886 64.57 349.416 64.91C348.956 65.25 348.596 65.745 348.336 66.395C348.076 67.045 347.946 67.83 347.946 68.75C347.946 69.67 348.076 70.455 348.336 71.105C348.596 71.755 348.956 72.25 349.416 72.59C349.886 72.93 350.426 73.1 351.036 73.1Z" fill="#151522"/>
</g>
<defs>
<filter id="filter0_dd_47_528" x="0" y="-8" width="407" height="374" filterUnits="userSpaceOnUse" color-interpolation-filters="sRGB">
<feFlood flood-opacity="0" result="BackgroundImageFix"/>
<feColorMatrix in="SourceAlpha" type="matrix" values="0 0 0 0 0 0 0 0 0 0 0 0 0 0 0 0 0 0 127 0" result="hardAlpha"/>
<feOffset dy="24"/>
<feGaussianBlur stdDeviation="16"/>
<feColorMatrix type="matrix" values="0 0 0 0 0.196487 0 0 0 0 0.196487 0 0 0 0 0.279476 0 0 0 0.08 0"/>
<feBlend mode="multiply" in2="BackgroundImageFix" result="effect1_dropShadow_47_528"/>
<feColorMatrix in="SourceAlpha" type="matrix" values="0 0 0 0 0 0 0 0 0 0 0 0 0 0 0 0 0 0 127 0" result="hardAlpha"/>
<feOffset dy="16"/>
<feGaussianBlur stdDeviation="8"/>
<feColorMatrix type="matrix" values="0 0 0 0 0.196487 0 0 0 0 0.196487 0 0 0 0 0.279476 0 0 0 0.08 0"/>
<feBlend mode="multiply" in2="effect1_dropShadow_47_528" result="effect2_dropShadow_47_528"/>
<feBlend mode="normal" in="SourceGraphic" in2="effect2_dropShadow_47_528" result="shape"/>
</filter>
<filter id="filter1_dd_47_528" x="159.514" y="138" width="22.7754" height="22" filterUnits="userSpaceOnUse" color-interpolation-filters="sRGB">
<feFlood flood-opacity="0" result="BackgroundImageFix"/>
<feColorMatrix in="SourceAlpha" type="matrix" values="0 0 0 0 0 0 0 0 0 0 0 0 0 0 0 0 0 0 127 0" result="hardAlpha"/>
<feOffset dy="2"/>
<feGaussianBlur stdDeviation="2"/>
<feColorMatrix type="matrix" values="0 0 0 0 0.196487 0 0 0 0 0.196487 0 0 0 0 0.279476 0 0 0 0.06 0"/>
<feBlend mode="multiply" in2="BackgroundImageFix" result="effect1_dropShadow_47_528"/>
<feColorMatrix in="SourceAlpha" type="matrix" values="0 0 0 0 0 0 0 0 0 0 0 0 0 0 0 0 0 0 127 0" result="hardAlpha"/>
<feOffset dy="2"/>
<feGaussianBlur stdDeviation="1"/>
<feColorMatrix type="matrix" values="0 0 0 0 0.196487 0 0 0 0 0.196487 0 0 0 0 0.279476 0 0 0 0.06 0"/>
<feBlend mode="multiply" in2="effect1_dropShadow_47_528" result="effect2_dropShadow_47_528"/>
<feBlend mode="normal" in="SourceGraphic" in2="effect2_dropShadow_47_528" result="shape"/>
</filter>
</defs>
</svg>
