<svg width="20" height="16" viewBox="0 0 20 16"  xmlns="http://www.w3.org/2000/svg" fill="#FFBD02">
<path d="M18.3201 15.9989H1.68063C1.65328 15.9989 1.62695 15.9888 1.60712 15.9707C1.58728 15.9525 1.57546 15.9277 1.57409 15.9014L0.000383087 0.117947C-0.00169468 0.0935903 0.00472112 0.0692655 0.0186162 0.0488173C0.0325114 0.0283692 0.0530919 0.0129688 0.0770973 0.0050568C0.101179 -0.00363251 0.127709 -0.00363867 0.151796 0.00503801C0.175882 0.0137147 0.195898 0.0304847 0.20815 0.0522625L5.36717 8.44124L9.71856 0.061502C9.72734 0.0432018 9.74152 0.027795 9.75933 0.017209C9.77715 0.00662305 9.7978 0.00132504 9.81872 0.0019749C9.8395 0.0019546 9.85989 0.00751547 9.87758 0.0180296C9.89527 0.0285438 9.90957 0.0435971 9.91887 0.061502L14.4365 8.76452L19.7926 0.0543172C19.8049 0.0325393 19.8249 0.015763 19.849 0.00708635C19.8731 -0.00159033 19.8996 -0.00158417 19.9237 0.00710514C19.9477 0.0150171 19.9682 0.0304175 19.9821 0.0508657C19.996 0.0713138 20.0025 0.0956449 20.0004 0.120002L18.4309 15.9014C18.4296 15.9284 18.4171 15.9539 18.3964 15.9721C18.3756 15.9904 18.3482 16 18.3201 15.9989Z"/>
</svg>
