<svg width="50" height="50" viewBox="0 0 50 50" xmlns="http://www.w3.org/2000/svg">
<path d="M32.4813 37.5L37.8938 46.875H34.2875L28.875 37.5H21.1437L15.7312 46.875H12.125L17.5375 37.5H7.8125C7.3981 37.5 7.00067 37.3354 6.70765 37.0424C6.41462 36.7493 6.25 36.3519 6.25 35.9375V9.375H3.125C2.7106 9.375 2.31317 9.21038 2.02015 8.91735C1.72712 8.62433 1.5625 8.2269 1.5625 7.8125C1.5625 7.3981 1.72712 7.00067 2.02015 6.70765C2.31317 6.41462 2.7106 6.25 3.125 6.25H46.875C47.2894 6.25 47.6868 6.41462 47.9799 6.70765C48.2729 7.00067 48.4375 7.3981 48.4375 7.8125C48.4375 8.2269 48.2729 8.62433 47.9799 8.91735C47.6868 9.21038 47.2894 9.375 46.875 9.375H43.75V35.9375C43.75 36.3519 43.5854 36.7493 43.2924 37.0424C42.9993 37.3354 42.6019 37.5 42.1875 37.5H32.4813ZM40.625 9.375H9.375V34.375H40.625V9.375ZM17.1875 21.875C17.6019 21.875 17.9993 22.0396 18.2924 22.3326C18.5854 22.6257 18.75 23.0231 18.75 23.4375V26.5625C18.75 26.9769 18.5854 27.3743 18.2924 27.6674C17.9993 27.9604 17.6019 28.125 17.1875 28.125C16.7731 28.125 16.3757 27.9604 16.0826 27.6674C15.7896 27.3743 15.625 26.9769 15.625 26.5625V23.4375C15.625 23.0231 15.7896 22.6257 16.0826 22.3326C16.3757 22.0396 16.7731 21.875 17.1875 21.875V21.875ZM25 18.75C25.4144 18.75 25.8118 18.9146 26.1049 19.2076C26.3979 19.5007 26.5625 19.8981 26.5625 20.3125V26.5625C26.5625 26.9769 26.3979 27.3743 26.1049 27.6674C25.8118 27.9604 25.4144 28.125 25 28.125C24.5856 28.125 24.1882 27.9604 23.8951 27.6674C23.6021 27.3743 23.4375 26.9769 23.4375 26.5625V20.3125C23.4375 19.8981 23.6021 19.5007 23.8951 19.2076C24.1882 18.9146 24.5856 18.75 25 18.75V18.75ZM32.8125 15.625C33.2269 15.625 33.6243 15.7896 33.9174 16.0826C34.2104 16.3757 34.375 16.7731 34.375 17.1875V26.5625C34.375 26.9769 34.2104 27.3743 33.9174 27.6674C33.6243 27.9604 33.2269 28.125 32.8125 28.125C32.3981 28.125 32.0007 27.9604 31.7076 27.6674C31.4146 27.3743 31.25 26.9769 31.25 26.5625V17.1875C31.25 16.7731 31.4146 16.3757 31.7076 16.0826C32.0007 15.7896 32.3981 15.625 32.8125 15.625Z" />
</svg>
