<svg width="43" height="34" viewBox="0 0 43 34"  xmlns="http://www.w3.org/2000/svg">
<path d="M6.45 14.875C8.82172 14.875 10.75 12.9691 10.75 10.625C10.75 8.28086 8.82172 6.375 6.45 6.375C4.07828 6.375 2.15 8.28086 2.15 10.625C2.15 12.9691 4.07828 14.875 6.45 14.875ZM36.55 14.875C38.9217 14.875 40.85 12.9691 40.85 10.625C40.85 8.28086 38.9217 6.375 36.55 6.375C34.1783 6.375 32.25 8.28086 32.25 10.625C32.25 12.9691 34.1783 14.875 36.55 14.875ZM38.7 17H34.4C33.2175 17 32.1492 17.4715 31.3698 18.2352C34.0775 19.7027 35.9991 22.3523 36.4156 25.5H40.85C42.0392 25.5 43 24.5504 43 23.375V21.25C43 18.9059 41.0717 17 38.7 17ZM21.5 17C25.6589 17 29.025 13.673 29.025 9.5625C29.025 5.45195 25.6589 2.125 21.5 2.125C17.3411 2.125 13.975 5.45195 13.975 9.5625C13.975 13.673 17.3411 17 21.5 17ZM26.66 19.125H26.1023C24.7048 19.7891 23.1528 20.1875 21.5 20.1875C19.8472 20.1875 18.3019 19.7891 16.8977 19.125H16.34C12.0669 19.125 8.6 22.5516 8.6 26.775V28.6875C8.6 30.4473 10.0445 31.875 11.825 31.875H31.175C32.9555 31.875 34.4 30.4473 34.4 28.6875V26.775C34.4 22.5516 30.9331 19.125 26.66 19.125ZM11.6302 18.2352C10.8508 17.4715 9.7825 17 8.6 17H4.3C1.92828 17 0 18.9059 0 21.25V23.375C0 24.5504 0.960781 25.5 2.15 25.5H6.57766C7.00094 22.3523 8.9225 19.7027 11.6302 18.2352Z" />
</svg>
