<svg width="51" height="51" viewBox="0 0 51 51" fill="none" xmlns="http://www.w3.org/2000/svg">
<path d="M35.7002 7.0126C35.7002 6.50537 35.9017 6.01892 36.2604 5.66026C36.6191 5.30159 37.1055 5.1001 37.6127 5.1001H43.9877C44.495 5.1001 44.9814 5.30159 45.3401 5.66026C45.6988 6.01892 45.9002 6.50537 45.9002 7.0126V13.3876C45.9002 13.8948 45.6988 14.3813 45.3401 14.7399C44.9814 15.0986 44.495 15.3001 43.9877 15.3001C43.4805 15.3001 42.9941 15.0986 42.6354 14.7399C42.2767 14.3813 42.0752 13.8948 42.0752 13.3876V11.6281L30.6767 23.0266C30.3181 23.3847 29.8321 23.5859 29.3252 23.5859C28.8184 23.5859 28.3323 23.3847 27.9737 23.0266L21.6752 16.7281L10.9142 27.4891C10.7392 27.677 10.528 27.8277 10.2934 27.9322C10.0588 28.0368 9.80557 28.093 9.54878 28.0975C9.29199 28.102 9.03691 28.0548 8.79877 27.9586C8.56063 27.8624 8.34431 27.7193 8.1627 27.5376C7.98109 27.356 7.83792 27.1397 7.74173 26.9016C7.64554 26.6634 7.59831 26.4084 7.60284 26.1516C7.60737 25.8948 7.66357 25.6415 7.7681 25.4069C7.87263 25.1723 8.02334 24.9612 8.21125 24.7861L20.3237 12.6736C20.6823 12.3154 21.1684 12.1143 21.6752 12.1143C22.1821 12.1143 22.6681 12.3154 23.0267 12.6736L29.3252 18.9721L39.3722 8.9251H37.6127C37.1055 8.9251 36.6191 8.7236 36.2604 8.36494C35.9017 8.00628 35.7002 7.51982 35.7002 7.0126V7.0126ZM9.56275 35.7001C10.07 35.7001 10.5564 35.9016 10.9151 36.2603C11.2738 36.6189 11.4752 37.1054 11.4752 37.6126V43.9876C11.4752 44.4948 11.2738 44.9813 10.9151 45.3399C10.5564 45.6986 10.07 45.9001 9.56275 45.9001C9.05552 45.9001 8.56907 45.6986 8.2104 45.3399C7.85174 44.9813 7.65025 44.4948 7.65025 43.9876V37.6126C7.65025 37.1054 7.85174 36.6189 8.2104 36.2603C8.56907 35.9016 9.05552 35.7001 9.56275 35.7001V35.7001ZM21.6752 29.9626C21.6752 29.4554 21.4737 28.9689 21.1151 28.6103C20.7564 28.2516 20.27 28.0501 19.7627 28.0501C19.2555 28.0501 18.7691 28.2516 18.4104 28.6103C18.0517 28.9689 17.8502 29.4554 17.8502 29.9626V43.9876C17.8502 44.4948 18.0517 44.9813 18.4104 45.3399C18.7691 45.6986 19.2555 45.9001 19.7627 45.9001C20.27 45.9001 20.7564 45.6986 21.1151 45.3399C21.4737 44.9813 21.6752 44.4948 21.6752 43.9876V29.9626ZM29.9627 33.1501C30.47 33.1501 30.9564 33.3516 31.3151 33.7103C31.6737 34.0689 31.8752 34.5554 31.8752 35.0626V43.9876C31.8752 44.4948 31.6737 44.9813 31.3151 45.3399C30.9564 45.6986 30.47 45.9001 29.9627 45.9001C29.4555 45.9001 28.9691 45.6986 28.6104 45.3399C28.2517 44.9813 28.0502 44.4948 28.0502 43.9876V35.0626C28.0502 34.5554 28.2517 34.0689 28.6104 33.7103C28.9691 33.3516 29.4555 33.1501 29.9627 33.1501ZM42.0752 24.8626C42.0752 24.3554 41.8738 23.8689 41.5151 23.5103C41.1564 23.1516 40.67 22.9501 40.1627 22.9501C39.6555 22.9501 39.1691 23.1516 38.8104 23.5103C38.4517 23.8689 38.2502 24.3554 38.2502 24.8626V43.9876C38.2502 44.4948 38.4517 44.9813 38.8104 45.3399C39.1691 45.6986 39.6555 45.9001 40.1627 45.9001C40.67 45.9001 41.1564 45.6986 41.5151 45.3399C41.8738 44.9813 42.0752 44.4948 42.0752 43.9876V24.8626Z" fill="#FFBD02"/>
</svg>
