<svg width="67" height="43" viewBox="0 0 67 43" fill="none" xmlns="http://www.w3.org/2000/svg">
<path d="M25.3667 38.6058C26.0572 37.9092 26.5919 37.35 26.9708 36.9283C27.3497 36.5067 27.64 36.1186 27.8417 35.7642C28.0494 35.4097 28.1533 35.0767 28.1533 34.765C28.1533 34.4106 28.0556 34.1264 27.86 33.9125C27.6644 33.6986 27.3772 33.5917 26.9983 33.5917C26.7661 33.5917 26.54 33.6558 26.32 33.7842C26.1061 33.9125 25.9075 34.0867 25.7242 34.3067L25.33 33.9217C25.5867 33.6406 25.8556 33.4236 26.1367 33.2708C26.4178 33.1181 26.7325 33.0417 27.0808 33.0417C27.6125 33.0417 28.0342 33.1975 28.3458 33.5092C28.6575 33.8147 28.8133 34.2242 28.8133 34.7375C28.8133 35.0919 28.7125 35.4556 28.5108 35.8283C28.3153 36.2011 28.0556 36.5769 27.7317 36.9558C27.4078 37.3347 26.9464 37.8389 26.3475 38.4683L26.5675 38.4592C26.9097 38.4347 27.1633 38.4225 27.3283 38.4225H29.0975V39H25.3667V38.6058ZM31.7667 39.11C31.1862 39.11 30.7339 38.8442 30.4101 38.3125C30.0862 37.7808 29.9242 37.0292 29.9242 36.0575C29.9242 35.0858 30.0862 34.3403 30.4101 33.8208C30.7339 33.3014 31.1862 33.0417 31.7667 33.0417C32.3473 33.0417 32.7995 33.3014 33.1234 33.8208C33.4473 34.3403 33.6092 35.0858 33.6092 36.0575C33.6092 37.0292 33.4473 37.7808 33.1234 38.3125C32.7995 38.8442 32.3473 39.11 31.7667 39.11ZM31.7667 38.5692C32.1395 38.5692 32.4298 38.3614 32.6376 37.9458C32.8514 37.5242 32.9584 36.8947 32.9584 36.0575C32.9584 35.2203 32.8514 34.6 32.6376 34.1967C32.4298 33.7872 32.1395 33.5825 31.7667 33.5825C31.3939 33.5825 31.1006 33.7872 30.8867 34.1967C30.6789 34.6 30.5751 35.2203 30.5751 36.0575C30.5751 36.8947 30.6789 37.5242 30.8867 37.9458C31.1006 38.3614 31.3939 38.5692 31.7667 38.5692ZM34.8026 34.5542H35.3526L35.4076 35.0858H35.4351C35.9545 34.6581 36.4343 34.4442 36.8743 34.4442C37.4426 34.4442 37.8765 34.6489 38.1759 35.0583C38.4815 35.4617 38.6343 36.0117 38.6343 36.7083C38.6343 37.1972 38.5457 37.625 38.3684 37.9917C38.1912 38.3522 37.9559 38.6303 37.6626 38.8258C37.3693 39.0153 37.0515 39.11 36.7093 39.11C36.312 39.11 35.8904 38.9358 35.4443 38.5875L35.4626 39.3758V40.9067H34.8026V34.5542ZM36.5993 38.5417C36.8559 38.5417 37.0851 38.4683 37.2868 38.3217C37.4945 38.1689 37.6565 37.955 37.7726 37.68C37.8887 37.405 37.9468 37.0842 37.9468 36.7175C37.9468 36.1858 37.8459 35.7703 37.6443 35.4708C37.4487 35.1653 37.1401 35.0125 36.7184 35.0125C36.3457 35.0125 35.927 35.2264 35.4626 35.6542V38.0558C35.6643 38.2269 35.8629 38.3522 36.0584 38.4317C36.254 38.505 36.4343 38.5417 36.5993 38.5417ZM41.0647 39.11C40.6247 39.11 40.3099 38.9847 40.1205 38.7342C39.931 38.4836 39.8363 38.1261 39.8363 37.6617V35.1042H39.1672V34.6L39.8638 34.5542L39.9463 33.2983H40.5055V34.5542H41.7247V35.1042H40.5055V37.68C40.5055 37.9733 40.5574 38.1933 40.6613 38.34C40.7713 38.4867 40.9547 38.56 41.2113 38.56C41.3397 38.56 41.5108 38.5203 41.7247 38.4408L41.8622 38.945C41.5322 39.055 41.2663 39.11 41.0647 39.11Z" fill="#181818"/>
<rect x="0.25" y="29.25" width="66.5" height="13.5" rx="6.75" stroke="#C4C4C4" stroke-width="0.5"/>
<rect y="29" width="14" height="14" rx="7" fill="#181818"/>
<rect x="53" y="29" width="14" height="14" rx="7" fill="#181818"/>
<rect x="4" y="35.6309" width="5.83333" height="0.972222" rx="0.25" fill="white"/>
<rect x="59.4307" y="39.0334" width="5.83333" height="0.972223" rx="0.25" transform="rotate(-90 59.4307 39.0334)" fill="white"/>
<rect x="57" y="35.6309" width="5.83333" height="0.972222" rx="0.25" fill="white"/>
<rect width="66.6667" height="20" rx="10" fill="#181818"/>
<rect x="22.4727" y="14.3335" width="8.33333" height="1.38889" rx="0.25" transform="rotate(-90 22.4727 14.3335)" fill="white"/>
<rect x="19" y="9.47241" width="8.33333" height="1.38889" rx="0.25" fill="white"/>
<path d="M32.0367 13L34.0992 6.9775H34.8508L36.9042 13H36.1892L35.0983 9.59C34.9883 9.24778 34.8814 8.91167 34.7775 8.58167C34.6797 8.24556 34.5789 7.90028 34.475 7.54583H34.4383C34.3467 7.90028 34.2489 8.24556 34.145 8.58167C34.0472 8.91167 33.9403 9.24778 33.8242 9.59L32.7242 13H32.0367ZM33.0817 11.1025V10.5617H35.8408V11.1025H33.0817ZM39.2147 13.11C38.6586 13.11 38.2156 12.9083 37.8856 12.505C37.5556 12.0956 37.3906 11.5211 37.3906 10.7817C37.3906 10.305 37.4792 9.8925 37.6564 9.54417C37.8397 9.19583 38.0781 8.92694 38.3714 8.7375C38.6647 8.54194 38.9825 8.44417 39.3247 8.44417C39.5875 8.44417 39.8136 8.49 40.0031 8.58167C40.1925 8.67333 40.3881 8.80167 40.5897 8.96667L40.5622 8.19667V6.455H41.2222V13H40.6722L40.6172 12.4592H40.5897C40.4186 12.6364 40.2139 12.7892 39.9756 12.9175C39.7434 13.0458 39.4897 13.11 39.2147 13.11ZM39.3614 12.5417C39.5753 12.5417 39.78 12.4897 39.9756 12.3858C40.1711 12.2758 40.3667 12.1169 40.5622 11.9092V9.49833C40.3606 9.32111 40.1681 9.19583 39.9847 9.1225C39.8014 9.04917 39.615 9.0125 39.4256 9.0125C39.175 9.0125 38.9459 9.08889 38.7381 9.24167C38.5364 9.38833 38.3745 9.59611 38.2522 9.865C38.1361 10.1278 38.0781 10.4333 38.0781 10.7817C38.0781 11.3256 38.1881 11.7564 38.4081 12.0742C38.6342 12.3858 38.952 12.5417 39.3614 12.5417ZM44.2725 13.11C43.7164 13.11 43.2734 12.9083 42.9434 12.505C42.6134 12.0956 42.4484 11.5211 42.4484 10.7817C42.4484 10.305 42.537 9.8925 42.7142 9.54417C42.8975 9.19583 43.1359 8.92694 43.4292 8.7375C43.7225 8.54194 44.0403 8.44417 44.3825 8.44417C44.6453 8.44417 44.8714 8.49 45.0609 8.58167C45.2503 8.67333 45.4459 8.80167 45.6475 8.96667L45.62 8.19667V6.455H46.28V13H45.73L45.675 12.4592H45.6475C45.4764 12.6364 45.2717 12.7892 45.0334 12.9175C44.8011 13.0458 44.5475 13.11 44.2725 13.11ZM44.4192 12.5417C44.6331 12.5417 44.8378 12.4897 45.0334 12.3858C45.2289 12.2758 45.4245 12.1169 45.62 11.9092V9.49833C45.4184 9.32111 45.2259 9.19583 45.0425 9.1225C44.8592 9.04917 44.6728 9.0125 44.4834 9.0125C44.2328 9.0125 44.0036 9.08889 43.7959 9.24167C43.5942 9.38833 43.4322 9.59611 43.31 9.865C43.1939 10.1278 43.1359 10.4333 43.1359 10.7817C43.1359 11.3256 43.2459 11.7564 43.4659 12.0742C43.692 12.3858 44.0097 12.5417 44.4192 12.5417Z" fill="white"/>
</svg>
