<svg width="44" height="44" viewBox="0 0 44 44" fill="none" xmlns="http://www.w3.org/2000/svg">
<path fill-rule="evenodd" clip-rule="evenodd" d="M21.9997 12.8334C21.9997 7.77066 26.1036 3.66675 31.1663 3.66675C36.2291 3.66675 40.333 7.77066 40.333 12.8334C40.333 17.8962 36.2291 22.0001 31.1663 22.0001H22.9163C22.6732 22.0001 22.4401 21.9035 22.2682 21.7316C22.0963 21.5597 21.9997 21.3265 21.9997 21.0834V12.8334ZM7.12951 8.25008C6.45451 8.25129 5.8075 8.51997 5.3302 8.99727C4.8529 9.47457 4.58422 10.1216 4.58301 10.7966C4.58301 26.6045 17.3953 39.4167 33.2032 39.4167C33.8782 39.4155 34.5252 39.1469 35.0025 38.6696C35.4798 38.1923 35.7485 37.5452 35.7497 36.8702V31.1832C35.7485 30.5082 35.4798 29.8612 35.0025 29.3839C34.5252 28.9066 33.8782 28.638 33.2032 28.6367C31.3262 28.6384 29.4609 28.341 27.6775 27.7558C27.2298 27.6054 26.749 27.583 26.2893 27.691C25.8295 27.799 25.409 28.0332 25.0751 28.3672L21.9685 31.4738C17.9834 29.2933 14.7063 26.0168 12.525 22.0322L15.6325 18.9247C15.9657 18.5938 16.2011 18.1774 16.3129 17.7213C16.4246 17.2652 16.4084 16.7871 16.2659 16.3397L16.2641 16.3332L16.2623 16.3268C15.6747 14.5424 15.3767 12.6753 15.3795 10.7966C15.3783 10.1216 15.1096 9.47457 14.6323 8.99727C14.155 8.51997 13.508 8.25129 12.833 8.25008H7.12951ZM30.2497 17.4167V13.7501H26.583V11.9167H30.2497V8.25008H32.083V11.9167H35.7497V13.7501H32.083V17.4167H30.2497Z" fill="#FFBD02"/>
</svg>
