<svg width="80" height="26" viewBox="0 0 80 26" fill="none" xmlns="http://www.w3.org/2000/svg">
<path d="M4.72079 25C7.69725 25 9.44159 23.3101 9.44159 20.3771V15H6.22979V20.2793C6.22979 21.7737 5.66218 22.3324 4.74848 22.3324C3.83478 22.3324 3.26718 21.7737 3.26718 20.2793V15H0V20.3771C0 23.3101 1.74434 25 4.72079 25Z" fill="black"/>
<path d="M17.0306 15V19.4413L13.3481 15H10.6623V24.7765H13.8465V20.3352L17.529 24.7765H20.2147V15H17.0306Z" fill="black"/>
<path d="M21.512 24.7765H26.2882C29.5277 24.7765 31.7566 22.919 31.7566 19.8883C31.7566 16.8575 29.5277 15 26.2882 15H21.512V24.7765ZM24.7792 22.2067V17.5698H26.1497C27.5203 17.5698 28.4617 18.3939 28.4617 19.8883C28.4617 21.3827 27.5203 22.2067 26.1497 22.2067H24.7792Z" fill="black"/>
<path d="M35.8844 22.2905V21.0056H39.9822V18.6313H35.8844V17.486H40.5499V15H32.6726V24.7765H40.7298V22.2905H35.8844Z" fill="black"/>
<path d="M47.5113 24.7765H51L48.9649 21.7598C50.1278 21.1592 50.7923 20.0978 50.7923 18.6872C50.7923 16.4246 49.0757 15 46.3761 15H41.7107V24.7765H44.9779V22.3184H45.8639L47.5113 24.7765ZM47.4975 18.6872C47.4975 19.3994 47.0683 19.8324 46.1684 19.8324H44.9779V17.5419H46.1684C47.0683 17.5419 47.4975 17.9749 47.4975 18.6872Z" fill="black"/>
<path d="M19 10.7814H23.7549C26.9799 10.7814 29.1989 8.96448 29.1989 6C29.1989 3.03552 26.9799 1.21858 23.7549 1.21858H19V10.7814ZM22.2526 8.26776V3.73224H23.6171C24.9815 3.73224 25.9187 4.53825 25.9187 6C25.9187 7.46175 24.9815 8.26776 23.6171 8.26776H22.2526Z" fill="black"/>
<path d="M35.1689 11C38.3113 11 40.6129 8.89618 40.6129 6C40.6129 3.10383 38.3113 1 35.1689 1C32.0266 1 29.725 3.10383 29.725 6C29.725 8.89618 32.0266 11 35.1689 11ZM35.1689 8.39071C33.9699 8.39071 33.0051 7.48907 33.0051 6C33.0051 4.51093 33.9699 3.60929 35.1689 3.60929C36.368 3.60929 37.3328 4.51093 37.3328 6C37.3328 7.48907 36.368 8.39071 35.1689 8.39071Z" fill="black"/>
<path d="M47.899 8.15847C47.4993 8.32241 47.1134 8.39071 46.7137 8.39071C45.3217 8.39071 44.4121 7.43443 44.4121 6C44.4121 4.52459 45.3217 3.60929 46.7551 3.60929C47.6096 3.60929 48.3125 3.96448 48.9189 4.6612L51 2.84426C50.0215 1.65574 48.4916 1 46.5897 1C43.406 1 41.1319 3.06284 41.1319 6C41.1319 8.93716 43.406 11 46.5208 11C47.9403 11 49.5529 10.5765 50.7244 9.78415V5.74044H47.899V8.15847Z" fill="black"/>
<path d="M79 13C79 19.6274 73.6274 25 67 25C60.3726 25 55 19.6274 55 13C55 6.37258 60.3726 1 67 1C73.6274 1 79 6.37258 79 13Z" stroke="black"/>
<path fill-rule="evenodd" clip-rule="evenodd" d="M67.7725 6.00201C67.61 6.00302 67.4476 6.00402 67.2855 6.00402L67.2882 6.00184C67.1017 6.00184 66.9152 6.00265 66.7287 6.00346C66.356 6.00507 65.9834 6.00668 65.6109 6.00184C63.5303 5.9743 61.8254 6.84412 60.497 8.55331C59.345 10.0306 58.8934 11.7709 59.0209 13.6787C59.1027 14.9037 59.9421 15.8533 61.137 16.1758C61.162 16.1825 61.1869 16.1887 61.2115 16.1948C61.4242 16.2477 61.6178 16.2958 61.6966 16.6252C62.3145 19.2245 64.3139 20.9953 66.8139 21.1961C69.6419 21.4237 72.0251 19.7102 72.8409 16.8173C72.9597 16.3962 73.1315 16.2295 73.5152 16.1345C74.6344 15.8554 75.4905 14.7914 75.5012 13.6149C75.5182 12.8331 75.454 12.0517 75.31 11.2853C74.7618 8.5881 72.4726 6.36644 69.9311 6.0765C69.2191 5.99308 68.4946 5.99755 67.7725 6.00201ZM61.5074 14.7943V15.2052C60.6486 15.1371 59.9884 14.4159 59.9246 13.5533C59.7079 10.3241 61.7221 7.55302 64.6789 7.04055C65.107 6.96807 65.5485 6.96807 65.9839 6.96807C66.2751 6.9686 66.5664 6.96678 66.8577 6.96495H66.8577H66.8577C67.7533 6.95934 68.6489 6.95373 69.5399 7.01663C71.7795 7.17537 73.7434 8.95415 74.3787 11.2932C74.5907 12.0713 74.6568 12.8872 74.5733 13.6932C74.4941 14.4855 73.8272 15.1545 73.0691 15.1915V13.2039C73.0697 12.8976 73.0713 12.5914 73.073 12.2852L73.073 12.2848C73.075 11.9022 73.0771 11.5198 73.0771 11.1374C73.0764 10.7431 72.8946 10.5119 72.6135 10.5162C72.3324 10.5206 72.1613 10.7547 72.1613 11.1504C72.1613 11.5686 72.1609 11.9869 72.1605 12.4053V12.4057V12.406V12.4073V12.4078C72.1598 13.2448 72.159 14.0822 72.1613 14.9197C72.17 18.0126 70.0961 20.2176 67.2265 20.2342C64.9641 20.2473 62.9486 18.549 62.5406 16.1881C62.4241 15.512 62.4244 14.8107 62.4248 14.1108V14.1108V14.1108C62.4249 13.8519 62.425 13.5931 62.4192 13.3359C62.4112 12.901 62.414 12.466 62.4168 12.0311C62.4187 11.7412 62.4205 11.4513 62.4192 11.1613C62.4172 10.7402 62.2354 10.5039 61.9402 10.5177C61.659 10.5321 61.5074 10.7568 61.5074 11.17V14.7943ZM67.5938 16.2734C67.4912 16.2527 67.3869 16.2316 67.2809 16.2066C67.1782 16.2312 67.074 16.2524 66.9693 16.2737L66.9693 16.2737C66.7307 16.3224 66.4893 16.3716 66.2557 16.4618C65.9196 16.5915 65.8464 16.8619 65.9732 17.2243C66.1551 17.7419 66.6757 18.0978 67.248 18.1043C67.8203 18.1108 68.3591 17.7622 68.549 17.2627C68.6959 16.8793 68.6094 16.585 68.2471 16.4444C68.0407 16.3639 67.8218 16.3196 67.5938 16.2734ZM64.6577 12.3475C65.1347 12.3526 65.5111 12.8034 65.5064 13.3623C65.501 13.9487 65.0696 14.4496 64.5798 14.4445C64.09 14.4394 63.7264 13.9886 63.7324 13.4297C63.7391 12.8295 64.1571 12.3417 64.6577 12.3475ZM70.0071 14.446C70.4848 14.4395 70.8491 13.998 70.8431 13.4247C70.8377 12.8216 70.4264 12.3403 69.9232 12.3475C69.4435 12.3519 69.0772 12.7984 69.0819 13.3667C69.0872 13.9596 69.5079 14.4496 70.0071 14.446Z" fill="black"/>
</svg>
