<svg width="103" height="103" viewBox="0 0 103 103" fill="none" xmlns="http://www.w3.org/2000/svg">
<path d="M4.08744 0H0V4.08744H4.08744V0Z" fill="white"/>
<path d="M8.17488 0H4.08744V4.08744H8.17488V0Z" fill="white"/>
<path d="M12.2623 0H8.17488V4.08744H12.2623V0Z" fill="white"/>
<path d="M16.3498 0H12.2623V4.08744H16.3498V0Z" fill="white"/>
<path d="M20.4372 0H16.3498V4.08744H20.4372V0Z" fill="white"/>
<path d="M24.5246 0H20.4372V4.08744H24.5246V0Z" fill="white"/>
<path d="M28.6121 0H24.5246V4.08744H28.6121V0Z" fill="white"/>
<path d="M36.787 0H32.6995V4.08744H36.787V0Z" fill="white"/>
<path d="M40.8744 0H36.787V4.08744H40.8744V0Z" fill="white"/>
<path d="M57.2242 0H53.1367V4.08744H57.2242V0Z" fill="white"/>
<path d="M69.4865 0H65.3991V4.08744H69.4865V0Z" fill="white"/>
<path d="M77.6614 0H73.5739V4.08744H77.6614V0Z" fill="white"/>
<path d="M81.7488 0H77.6614V4.08744H81.7488V0Z" fill="white"/>
<path d="M85.8363 0H81.7488V4.08744H85.8363V0Z" fill="white"/>
<path d="M89.9237 0H85.8363V4.08744H89.9237V0Z" fill="white"/>
<path d="M94.0112 0H89.9237V4.08744H94.0112V0Z" fill="white"/>
<path d="M98.0986 0H94.0112V4.08744H98.0986V0Z" fill="white"/>
<path d="M102.186 0H98.0986V4.08744H102.186V0Z" fill="white"/>
<path d="M4.08744 4.08744H0V8.17488H4.08744V4.08744Z" fill="white"/>
<path d="M28.6121 4.08744H24.5246L24.5246 8.17488H28.6121V4.08744Z" fill="white"/>
<path d="M53.1367 4.08744H49.0493V8.17488H53.1367V4.08744Z" fill="white"/>
<path d="M57.2242 4.08744H53.1367V8.17488H57.2242V4.08744Z" fill="white"/>
<path d="M69.4865 4.08744H65.3991V8.17488H69.4865V4.08744Z" fill="white"/>
<path d="M77.6614 4.08744H73.5739V8.17488H77.6614V4.08744Z" fill="white"/>
<path d="M102.186 4.08744H98.0986V8.17488H102.186V4.08744Z" fill="white"/>
<path d="M4.08744 8.17488H0V12.2623H4.08744V8.17488Z" fill="white"/>
<path d="M12.2623 8.17488H8.17488V12.2623H12.2623V8.17488Z" fill="white"/>
<path d="M16.3498 8.17488H12.2623V12.2623H16.3498V8.17488Z" fill="white"/>
<path d="M20.4372 8.17488H16.3498V12.2623H20.4372V8.17488Z" fill="white"/>
<path d="M28.6121 8.17488H24.5246V12.2623H28.6121V8.17488Z" fill="white"/>
<path d="M40.8744 8.17488H36.787V12.2623H40.8744V8.17488Z" fill="white"/>
<path d="M44.9619 8.17488H40.8744V12.2623H44.9619V8.17488Z" fill="white"/>
<path d="M49.0493 8.17488H44.9619V12.2623H49.0493V8.17488Z" fill="white"/>
<path d="M53.1367 8.17488H49.0493V12.2623H53.1367V8.17488Z" fill="white"/>
<path d="M57.2242 8.17488H53.1367V12.2623H57.2242V8.17488Z" fill="white"/>
<path d="M69.4865 8.17488H65.3991V12.2623H69.4865V8.17488Z" fill="white"/>
<path d="M77.6614 8.17488H73.5739V12.2623H77.6614V8.17488Z" fill="white"/>
<path d="M85.8363 8.17488H81.7488V12.2623H85.8363V8.17488Z" fill="white"/>
<path d="M89.9237 8.17488H85.8363V12.2623H89.9237V8.17488Z" fill="white"/>
<path d="M94.0112 8.17488H89.9237V12.2623H94.0112V8.17488Z" fill="white"/>
<path d="M102.186 8.17488H98.0986V12.2623H102.186V8.17488Z" fill="white"/>
<path d="M4.08744 12.2623H0V16.3498H4.08744V12.2623Z" fill="white"/>
<path d="M12.2623 12.2623H8.17488V16.3498H12.2623V12.2623Z" fill="white"/>
<path d="M16.3498 12.2623H12.2623V16.3498H16.3498V12.2623Z" fill="white"/>
<path d="M20.4372 12.2623H16.3498V16.3498H20.4372V12.2623Z" fill="white"/>
<path d="M28.6121 12.2623H24.5246V16.3498H28.6121V12.2623Z" fill="white"/>
<path d="M40.8744 12.2623H36.787V16.3498H40.8744V12.2623Z" fill="white"/>
<path d="M44.9619 12.2623H40.8744V16.3498H44.9619V12.2623Z" fill="white"/>
<path d="M57.2242 12.2623H53.1367V16.3498H57.2242V12.2623Z" fill="white"/>
<path d="M77.6614 12.2623H73.5739V16.3498H77.6614V12.2623Z" fill="white"/>
<path d="M85.8363 12.2623H81.7488V16.3498H85.8363V12.2623Z" fill="white"/>
<path d="M89.9237 12.2623H85.8363V16.3498H89.9237V12.2623Z" fill="white"/>
<path d="M94.0112 12.2623H89.9237V16.3498H94.0112V12.2623Z" fill="white"/>
<path d="M102.186 12.2623H98.0986V16.3498H102.186V12.2623Z" fill="white"/>
<path d="M4.08744 16.3498H0V20.4372H4.08744V16.3498Z" fill="white"/>
<path d="M12.2623 16.3498H8.17488V20.4372H12.2623V16.3498Z" fill="white"/>
<path d="M16.3498 16.3498H12.2623V20.4372H16.3498V16.3498Z" fill="white"/>
<path d="M20.4372 16.3498H16.3498V20.4372H20.4372V16.3498Z" fill="white"/>
<path d="M28.6121 16.3498H24.5246V20.4372H28.6121V16.3498Z" fill="white"/>
<path d="M36.787 16.3498H32.6995V20.4372H36.787V16.3498Z" fill="white"/>
<path d="M44.9619 16.3498H40.8744V20.4372H44.9619V16.3498Z" fill="white"/>
<path d="M49.0493 16.3498H44.9619V20.4372H49.0493V16.3498Z" fill="white"/>
<path d="M53.1367 16.3498H49.0493V20.4372H53.1367V16.3498Z" fill="white"/>
<path d="M61.3116 16.3498H57.2242V20.4372H61.3116V16.3498Z" fill="white"/>
<path d="M77.6614 16.3498H73.5739V20.4372H77.6614V16.3498Z" fill="white"/>
<path d="M85.8363 16.3498H81.7488V20.4372H85.8363V16.3498Z" fill="white"/>
<path d="M89.9237 16.3498H85.8363V20.4372H89.9237V16.3498Z" fill="white"/>
<path d="M94.0112 16.3498H89.9237V20.4372H94.0112V16.3498Z" fill="white"/>
<path d="M102.186 16.3498H98.0986V20.4372H102.186V16.3498Z" fill="white"/>
<path d="M4.08744 20.4372H0V24.5246H4.08744V20.4372Z" fill="white"/>
<path d="M28.6121 20.4372H24.5246V24.5246H28.6121V20.4372Z" fill="white"/>
<path d="M61.3116 20.4372H57.2242V24.5246H61.3116V20.4372Z" fill="white"/>
<path d="M77.6614 20.4372H73.5739V24.5246H77.6614V20.4372Z" fill="white"/>
<path d="M102.186 20.4372H98.0986V24.5246H102.186V20.4372Z" fill="white"/>
<path d="M4.08744 24.5246H0V28.6121H4.08744V24.5246Z" fill="white"/>
<path d="M8.17488 24.5246L4.08744 24.5246V28.6121H8.17488V24.5246Z" fill="white"/>
<path d="M12.2623 24.5246H8.17488V28.6121H12.2623V24.5246Z" fill="white"/>
<path d="M16.3498 24.5246H12.2623V28.6121H16.3498V24.5246Z" fill="white"/>
<path d="M20.4372 24.5246H16.3498V28.6121H20.4372V24.5246Z" fill="white"/>
<path d="M24.5246 24.5246L20.4372 24.5246V28.6121H24.5246L24.5246 24.5246Z" fill="white"/>
<path d="M28.6121 24.5246H24.5246L24.5246 28.6121H28.6121V24.5246Z" fill="white"/>
<path d="M36.787 24.5246H32.6995V28.6121H36.787V24.5246Z" fill="white"/>
<path d="M44.9619 24.5246H40.8744V28.6121H44.9619V24.5246Z" fill="white"/>
<path d="M53.1367 24.5246H49.0493V28.6121H53.1367V24.5246Z" fill="white"/>
<path d="M61.3116 24.5246H57.2242V28.6121H61.3116V24.5246Z" fill="white"/>
<path d="M69.4865 24.5246H65.3991V28.6121H69.4865V24.5246Z" fill="white"/>
<path d="M77.6614 24.5246H73.5739V28.6121H77.6614V24.5246Z" fill="white"/>
<path d="M81.7488 24.5246L77.6614 24.5246V28.6121H81.7488V24.5246Z" fill="white"/>
<path d="M85.8363 24.5246H81.7488V28.6121H85.8363V24.5246Z" fill="white"/>
<path d="M89.9237 24.5246H85.8363V28.6121H89.9237V24.5246Z" fill="white"/>
<path d="M94.0112 24.5246H89.9237V28.6121H94.0112V24.5246Z" fill="white"/>
<path d="M98.0986 24.5246L94.0112 24.5246V28.6121H98.0986V24.5246Z" fill="white"/>
<path d="M102.186 24.5246H98.0986V28.6121H102.186V24.5246Z" fill="white"/>
<path d="M36.787 28.6121H32.6995V32.6995H36.787V28.6121Z" fill="white"/>
<path d="M44.9619 28.6121H40.8744V32.6995H44.9619V28.6121Z" fill="white"/>
<path d="M53.1367 28.6121H49.0493V32.6995H53.1367V28.6121Z" fill="white"/>
<path d="M57.2242 28.6121H53.1367V32.6995H57.2242V28.6121Z" fill="white"/>
<path d="M65.3991 28.6121H61.3116L61.3116 32.6995H65.3991V28.6121Z" fill="white"/>
<path d="M69.4865 28.6121H65.3991V32.6995H69.4865V28.6121Z" fill="white"/>
<path d="M4.08744 32.6995H0V36.787H4.08744V32.6995Z" fill="white"/>
<path d="M16.3498 32.6995H12.2623V36.787H16.3498V32.6995Z" fill="white"/>
<path d="M20.4372 32.6995H16.3498V36.787H20.4372V32.6995Z" fill="white"/>
<path d="M24.5246 32.6995H20.4372V36.787H24.5246V32.6995Z" fill="white"/>
<path d="M28.6121 32.6995H24.5246V36.787H28.6121V32.6995Z" fill="white"/>
<path d="M32.6995 32.6995H28.6121V36.787H32.6995V32.6995Z" fill="white"/>
<path d="M36.787 32.6995H32.6995V36.787H36.787V32.6995Z" fill="white"/>
<path d="M40.8744 32.6995H36.787V36.787H40.8744V32.6995Z" fill="white"/>
<path d="M57.2242 32.6995H53.1367V36.787H57.2242V32.6995Z" fill="white"/>
<path d="M69.4865 32.6995H65.3991V36.787H69.4865V32.6995Z" fill="white"/>
<path d="M73.5739 32.6995H69.4865V36.787H73.5739V32.6995Z" fill="white"/>
<path d="M77.6614 32.6995H73.5739V36.787H77.6614V32.6995Z" fill="white"/>
<path d="M85.8363 32.6995H81.7488V36.787H85.8363V32.6995Z" fill="white"/>
<path d="M102.186 32.6995H98.0986V36.787H102.186V32.6995Z" fill="white"/>
<path d="M8.17488 36.787H4.08744V40.8744H8.17488V36.787Z" fill="white"/>
<path d="M16.3498 36.787H12.2623V40.8744H16.3498V36.787Z" fill="white"/>
<path d="M20.4372 36.787H16.3498V40.8744H20.4372V36.787Z" fill="white"/>
<path d="M32.6995 36.787H28.6121V40.8744H32.6995V36.787Z" fill="white"/>
<path d="M36.787 36.787H32.6995V40.8744H36.787V36.787Z" fill="white"/>
<path d="M53.1367 36.787H49.0493V40.8744H53.1367V36.787Z" fill="white"/>
<path d="M65.3991 36.787H61.3116V40.8744H65.3991V36.787Z" fill="white"/>
<path d="M73.5739 36.787H69.4865V40.8744H73.5739V36.787Z" fill="white"/>
<path d="M77.6614 36.787H73.5739V40.8744H77.6614V36.787Z" fill="white"/>
<path d="M85.8363 36.787H81.7488V40.8744H85.8363V36.787Z" fill="white"/>
<path d="M89.9237 36.787H85.8363V40.8744H89.9237V36.787Z" fill="white"/>
<path d="M94.0112 36.787H89.9237V40.8744H94.0112V36.787Z" fill="white"/>
<path d="M98.0986 36.787H94.0112V40.8744H98.0986V36.787Z" fill="white"/>
<path d="M102.186 36.787H98.0986V40.8744H102.186V36.787Z" fill="white"/>
<path d="M4.08744 40.8744H0V44.9619H4.08744V40.8744Z" fill="white"/>
<path d="M8.17488 40.8744H4.08744V44.9619H8.17488V40.8744Z" fill="white"/>
<path d="M16.3498 40.8744H12.2623V44.9619H16.3498V40.8744Z" fill="white"/>
<path d="M20.4372 40.8744H16.3498V44.9619H20.4372V40.8744Z" fill="white"/>
<path d="M24.5246 40.8744H20.4372V44.9619H24.5246V40.8744Z" fill="white"/>
<path d="M28.6121 40.8744H24.5246V44.9619H28.6121V40.8744Z" fill="white"/>
<path d="M32.6995 40.8744H28.6121V44.9619H32.6995V40.8744Z" fill="white"/>
<path d="M40.8744 40.8744H36.787V44.9619H40.8744V40.8744Z" fill="white"/>
<path d="M49.0493 40.8744H44.9619V44.9619H49.0493V40.8744Z" fill="white"/>
<path d="M53.1367 40.8744H49.0493V44.9619H53.1367V40.8744Z" fill="white"/>
<path d="M61.3116 40.8744H57.2242V44.9619H61.3116L61.3116 40.8744Z" fill="white"/>
<path d="M69.4865 40.8744H65.3991V44.9619H69.4865V40.8744Z" fill="white"/>
<path d="M73.5739 40.8744H69.4865V44.9619H73.5739V40.8744Z" fill="white"/>
<path d="M77.6614 40.8744H73.5739V44.9619H77.6614V40.8744Z" fill="white"/>
<path d="M81.7488 40.8744H77.6614V44.9619H81.7488V40.8744Z" fill="white"/>
<path d="M85.8363 40.8744H81.7488V44.9619H85.8363V40.8744Z" fill="white"/>
<path d="M89.9237 40.8744H85.8363V44.9619H89.9237V40.8744Z" fill="white"/>
<path d="M94.0112 40.8744H89.9237V44.9619H94.0112V40.8744Z" fill="white"/>
<path d="M98.0986 40.8744H94.0112V44.9619H98.0986V40.8744Z" fill="white"/>
<path d="M4.08744 44.9619H0V49.0493H4.08744V44.9619Z" fill="white"/>
<path d="M20.4372 44.9619H16.3498V49.0493H20.4372V44.9619Z" fill="white"/>
<path d="M24.5246 44.9619H20.4372V49.0493H24.5246V44.9619Z" fill="white"/>
<path d="M32.6995 44.9619H28.6121V49.0493H32.6995V44.9619Z" fill="white"/>
<path d="M40.8744 44.9619H36.787V49.0493H40.8744V44.9619Z" fill="white"/>
<path d="M44.9619 44.9619H40.8744V49.0493H44.9619V44.9619Z" fill="white"/>
<path d="M61.3116 44.9619H57.2242V49.0493H61.3116V44.9619Z" fill="white"/>
<path d="M65.3991 44.9619H61.3116V49.0493H65.3991V44.9619Z" fill="white"/>
<path d="M85.8363 44.9619H81.7488V49.0493H85.8363V44.9619Z" fill="white"/>
<path d="M94.0112 44.9619H89.9237V49.0493H94.0112V44.9619Z" fill="white"/>
<path d="M98.0986 44.9619H94.0112V49.0493H98.0986V44.9619Z" fill="white"/>
<path d="M4.08744 49.0493H0V53.1367H4.08744V49.0493Z" fill="white"/>
<path d="M16.3498 49.0493H12.2623V53.1367H16.3498V49.0493Z" fill="white"/>
<path d="M20.4372 49.0493H16.3498V53.1367H20.4372V49.0493Z" fill="white"/>
<path d="M24.5246 49.0493H20.4372V53.1367H24.5246V49.0493Z" fill="white"/>
<path d="M28.6121 49.0493H24.5246V53.1367H28.6121V49.0493Z" fill="white"/>
<path d="M32.6995 49.0493H28.6121V53.1367H32.6995V49.0493Z" fill="white"/>
<path d="M36.787 49.0493H32.6995V53.1367H36.787V49.0493Z" fill="white"/>
<path d="M44.9619 49.0493H40.8744V53.1367H44.9619V49.0493Z" fill="white"/>
<path d="M49.0493 49.0493H44.9619V53.1367H49.0493V49.0493Z" fill="white"/>
<path d="M57.2242 49.0493H53.1367V53.1367H57.2242V49.0493Z" fill="white"/>
<path d="M61.3116 49.0493H57.2242V53.1367H61.3116V49.0493Z" fill="white"/>
<path d="M69.4865 49.0493H65.3991V53.1367H69.4865V49.0493Z" fill="white"/>
<path d="M81.7488 49.0493H77.6614V53.1367H81.7488V49.0493Z" fill="white"/>
<path d="M89.9237 49.0493H85.8363V53.1367H89.9237V49.0493Z" fill="white"/>
<path d="M94.0112 49.0493H89.9237V53.1367H94.0112V49.0493Z" fill="white"/>
<path d="M102.186 49.0493H98.0986V53.1367H102.186V49.0493Z" fill="white"/>
<path d="M4.08744 53.1367H0V57.2242H4.08744V53.1367Z" fill="white"/>
<path d="M8.17488 53.1367H4.08744V57.2242H8.17488V53.1367Z" fill="white"/>
<path d="M32.6995 53.1367H28.6121V57.2242H32.6995V53.1367Z" fill="white"/>
<path d="M36.787 53.1367H32.6995V57.2242H36.787V53.1367Z" fill="white"/>
<path d="M40.8744 53.1367H36.787V57.2242H40.8744V53.1367Z" fill="white"/>
<path d="M53.1367 53.1367H49.0493V57.2242H53.1367V53.1367Z" fill="white"/>
<path d="M61.3116 53.1367H57.2242V57.2242H61.3116V53.1367Z" fill="white"/>
<path d="M65.3991 53.1367H61.3116V57.2242H65.3991V53.1367Z" fill="white"/>
<path d="M69.4865 53.1367H65.3991V57.2242H69.4865V53.1367Z" fill="white"/>
<path d="M73.5739 53.1367H69.4865V57.2242H73.5739V53.1367Z" fill="white"/>
<path d="M85.8363 53.1367H81.7488V57.2242H85.8363V53.1367Z" fill="white"/>
<path d="M94.0112 53.1367H89.9237V57.2242H94.0112V53.1367Z" fill="white"/>
<path d="M98.0986 53.1367H94.0112V57.2242H98.0986V53.1367Z" fill="white"/>
<path d="M102.186 53.1367H98.0986V57.2242H102.186V53.1367Z" fill="white"/>
<path d="M4.08744 57.2242H0V61.3116H4.08744V57.2242Z" fill="white"/>
<path d="M8.17488 57.2242H4.08744V61.3116H8.17488V57.2242Z" fill="white"/>
<path d="M12.2623 57.2242H8.17488V61.3116H12.2623V57.2242Z" fill="white"/>
<path d="M28.6121 57.2242H24.5246V61.3116H28.6121V57.2242Z" fill="white"/>
<path d="M40.8744 57.2242H36.787V61.3116H40.8744V57.2242Z" fill="white"/>
<path d="M49.0493 57.2242H44.9619V61.3116H49.0493V57.2242Z" fill="white"/>
<path d="M53.1367 57.2242H49.0493V61.3116H53.1367V57.2242Z" fill="white"/>
<path d="M61.3116 57.2242H57.2242V61.3116H61.3116V57.2242Z" fill="white"/>
<path d="M73.5739 57.2242H69.4865V61.3116H73.5739V57.2242Z" fill="white"/>
<path d="M81.7488 57.2242H77.6614V61.3116H81.7488V57.2242Z" fill="white"/>
<path d="M85.8363 57.2242H81.7488V61.3116H85.8363V57.2242Z" fill="white"/>
<path d="M94.0112 57.2242H89.9237V61.3116H94.0112V57.2242Z" fill="white"/>
<path d="M8.17488 61.3116H4.08744V65.3991H8.17488V61.3116Z" fill="white"/>
<path d="M32.6995 61.3116L28.6121 61.3116V65.3991H32.6995V61.3116Z" fill="white"/>
<path d="M53.1367 61.3116H49.0493V65.3991H53.1367V61.3116Z" fill="white"/>
<path d="M61.3116 61.3116H57.2242V65.3991H61.3116V61.3116Z" fill="white"/>
<path d="M65.3991 61.3116L61.3116 61.3116V65.3991H65.3991V61.3116Z" fill="white"/>
<path d="M77.6614 61.3116H73.5739V65.3991H77.6614V61.3116Z" fill="white"/>
<path d="M85.8363 61.3116H81.7488V65.3991H85.8363V61.3116Z" fill="white"/>
<path d="M98.0986 61.3116L94.0112 61.3116V65.3991H98.0986V61.3116Z" fill="white"/>
<path d="M4.08744 65.3991H0V69.4865H4.08744V65.3991Z" fill="white"/>
<path d="M24.5246 65.3991H20.4372V69.4865H24.5246V65.3991Z" fill="white"/>
<path d="M28.6121 65.3991H24.5246V69.4865H28.6121V65.3991Z" fill="white"/>
<path d="M32.6995 65.3991H28.6121V69.4865H32.6995V65.3991Z" fill="white"/>
<path d="M40.8744 65.3991H36.787V69.4865H40.8744V65.3991Z" fill="white"/>
<path d="M44.9619 65.3991H40.8744V69.4865H44.9619V65.3991Z" fill="white"/>
<path d="M53.1367 65.3991H49.0493V69.4865H53.1367V65.3991Z" fill="white"/>
<path d="M65.3991 65.3991H61.3116L61.3116 69.4865H65.3991V65.3991Z" fill="white"/>
<path d="M69.4865 65.3991H65.3991V69.4865H69.4865V65.3991Z" fill="white"/>
<path d="M73.5739 65.3991H69.4865V69.4865H73.5739V65.3991Z" fill="white"/>
<path d="M77.6614 65.3991H73.5739V69.4865H77.6614V65.3991Z" fill="white"/>
<path d="M81.7488 65.3991H77.6614V69.4865H81.7488V65.3991Z" fill="white"/>
<path d="M85.8363 65.3991H81.7488V69.4865H85.8363V65.3991Z" fill="white"/>
<path d="M89.9237 65.3991H85.8363V69.4865H89.9237V65.3991Z" fill="white"/>
<path d="M98.0986 65.3991H94.0112V69.4865H98.0986V65.3991Z" fill="white"/>
<path d="M36.787 69.4865H32.6995V73.5739H36.787V69.4865Z" fill="white"/>
<path d="M44.9619 69.4865H40.8744V73.5739H44.9619V69.4865Z" fill="white"/>
<path d="M53.1367 69.4865H49.0493V73.5739H53.1367V69.4865Z" fill="white"/>
<path d="M65.3991 69.4865H61.3116V73.5739H65.3991V69.4865Z" fill="white"/>
<path d="M69.4865 69.4865H65.3991V73.5739H69.4865V69.4865Z" fill="white"/>
<path d="M85.8363 69.4865H81.7488V73.5739H85.8363V69.4865Z" fill="white"/>
<path d="M89.9237 69.4865H85.8363V73.5739H89.9237V69.4865Z" fill="white"/>
<path d="M94.0112 69.4865H89.9237V73.5739H94.0112V69.4865Z" fill="white"/>
<path d="M4.08744 73.5739H0V77.6614H4.08744V73.5739Z" fill="white"/>
<path d="M8.17488 73.5739H4.08744V77.6614H8.17488V73.5739Z" fill="white"/>
<path d="M12.2623 73.5739H8.17488V77.6614H12.2623V73.5739Z" fill="white"/>
<path d="M16.3498 73.5739H12.2623V77.6614H16.3498V73.5739Z" fill="white"/>
<path d="M20.4372 73.5739H16.3498V77.6614H20.4372V73.5739Z" fill="white"/>
<path d="M24.5246 73.5739H20.4372V77.6614H24.5246V73.5739Z" fill="white"/>
<path d="M28.6121 73.5739H24.5246V77.6614H28.6121V73.5739Z" fill="white"/>
<path d="M36.787 73.5739H32.6995V77.6614H36.787V73.5739Z" fill="white"/>
<path d="M53.1367 73.5739H49.0493V77.6614H53.1367V73.5739Z" fill="white"/>
<path d="M65.3991 73.5739H61.3116V77.6614H65.3991V73.5739Z" fill="white"/>
<path d="M69.4865 73.5739H65.3991V77.6614H69.4865V73.5739Z" fill="white"/>
<path d="M77.6614 73.5739H73.5739V77.6614H77.6614V73.5739Z" fill="white"/>
<path d="M85.8363 73.5739H81.7488V77.6614H85.8363V73.5739Z" fill="white"/>
<path d="M89.9237 73.5739H85.8363V77.6614H89.9237V73.5739Z" fill="white"/>
<path d="M94.0112 73.5739H89.9237V77.6614H94.0112V73.5739Z" fill="white"/>
<path d="M102.186 73.5739H98.0986V77.6614H102.186V73.5739Z" fill="white"/>
<path d="M4.08744 77.6614H0V81.7488H4.08744V77.6614Z" fill="white"/>
<path d="M28.6121 77.6614H24.5246L24.5246 81.7488H28.6121V77.6614Z" fill="white"/>
<path d="M36.787 77.6614H32.6995V81.7488H36.787V77.6614Z" fill="white"/>
<path d="M44.9619 77.6614H40.8744V81.7488H44.9619V77.6614Z" fill="white"/>
<path d="M61.3116 77.6614H57.2242V81.7488H61.3116L61.3116 77.6614Z" fill="white"/>
<path d="M69.4865 77.6614H65.3991V81.7488H69.4865V77.6614Z" fill="white"/>
<path d="M85.8363 77.6614H81.7488V81.7488H85.8363V77.6614Z" fill="white"/>
<path d="M94.0112 77.6614H89.9237V81.7488H94.0112V77.6614Z" fill="white"/>
<path d="M4.08744 81.7488H0V85.8363H4.08744V81.7488Z" fill="white"/>
<path d="M12.2623 81.7488H8.17488V85.8363H12.2623V81.7488Z" fill="white"/>
<path d="M16.3498 81.7488H12.2623V85.8363H16.3498V81.7488Z" fill="white"/>
<path d="M20.4372 81.7488H16.3498V85.8363H20.4372V81.7488Z" fill="white"/>
<path d="M28.6121 81.7488H24.5246V85.8363H28.6121V81.7488Z" fill="white"/>
<path d="M36.787 81.7488H32.6995V85.8363H36.787V81.7488Z" fill="white"/>
<path d="M40.8744 81.7488H36.787V85.8363H40.8744V81.7488Z" fill="white"/>
<path d="M44.9619 81.7488H40.8744V85.8363H44.9619V81.7488Z" fill="white"/>
<path d="M57.2242 81.7488H53.1367V85.8363H57.2242V81.7488Z" fill="white"/>
<path d="M61.3116 81.7488H57.2242V85.8363H61.3116V81.7488Z" fill="white"/>
<path d="M69.4865 81.7488H65.3991V85.8363H69.4865V81.7488Z" fill="white"/>
<path d="M73.5739 81.7488H69.4865V85.8363H73.5739V81.7488Z" fill="white"/>
<path d="M77.6614 81.7488H73.5739V85.8363H77.6614V81.7488Z" fill="white"/>
<path d="M81.7488 81.7488H77.6614V85.8363H81.7488V81.7488Z" fill="white"/>
<path d="M85.8363 81.7488H81.7488V85.8363H85.8363V81.7488Z" fill="white"/>
<path d="M102.186 81.7488H98.0986V85.8363H102.186V81.7488Z" fill="white"/>
<path d="M4.08744 85.8363H0V89.9237H4.08744V85.8363Z" fill="white"/>
<path d="M12.2623 85.8363H8.17488V89.9237H12.2623V85.8363Z" fill="white"/>
<path d="M16.3498 85.8363H12.2623V89.9237H16.3498V85.8363Z" fill="white"/>
<path d="M20.4372 85.8363H16.3498V89.9237H20.4372V85.8363Z" fill="white"/>
<path d="M28.6121 85.8363H24.5246V89.9237H28.6121V85.8363Z" fill="white"/>
<path d="M36.787 85.8363H32.6995V89.9237H36.787V85.8363Z" fill="white"/>
<path d="M53.1367 85.8363H49.0493V89.9237H53.1367V85.8363Z" fill="white"/>
<path d="M69.4865 85.8363H65.3991V89.9237H69.4865V85.8363Z" fill="white"/>
<path d="M73.5739 85.8363H69.4865V89.9237H73.5739V85.8363Z" fill="white"/>
<path d="M89.9237 85.8363H85.8363V89.9237H89.9237V85.8363Z" fill="white"/>
<path d="M4.08744 89.9237H0V94.0112H4.08744V89.9237Z" fill="white"/>
<path d="M12.2623 89.9237H8.17488V94.0112H12.2623V89.9237Z" fill="white"/>
<path d="M16.3498 89.9237H12.2623V94.0112H16.3498V89.9237Z" fill="white"/>
<path d="M20.4372 89.9237H16.3498V94.0112H20.4372V89.9237Z" fill="white"/>
<path d="M28.6121 89.9237H24.5246V94.0112H28.6121V89.9237Z" fill="white"/>
<path d="M49.0493 89.9237H44.9619V94.0112H49.0493V89.9237Z" fill="white"/>
<path d="M53.1367 89.9237H49.0493V94.0112H53.1367V89.9237Z" fill="white"/>
<path d="M61.3116 89.9237H57.2242V94.0112H61.3116V89.9237Z" fill="white"/>
<path d="M65.3991 89.9237H61.3116V94.0112H65.3991V89.9237Z" fill="white"/>
<path d="M69.4865 89.9237H65.3991V94.0112H69.4865V89.9237Z" fill="white"/>
<path d="M81.7488 89.9237H77.6614V94.0112H81.7488V89.9237Z" fill="white"/>
<path d="M85.8363 89.9237H81.7488V94.0112H85.8363V89.9237Z" fill="white"/>
<path d="M94.0112 89.9237H89.9237V94.0112H94.0112V89.9237Z" fill="white"/>
<path d="M98.0986 89.9237H94.0112V94.0112H98.0986V89.9237Z" fill="white"/>
<path d="M102.186 89.9237H98.0986V94.0112H102.186V89.9237Z" fill="white"/>
<path d="M4.08744 94.0112H0V98.0986H4.08744V94.0112Z" fill="white"/>
<path d="M28.6121 94.0112H24.5246V98.0986H28.6121V94.0112Z" fill="white"/>
<path d="M40.8744 94.0112H36.787V98.0986H40.8744V94.0112Z" fill="white"/>
<path d="M44.9619 94.0112H40.8744V98.0986H44.9619V94.0112Z" fill="white"/>
<path d="M49.0493 94.0112H44.9619V98.0986H49.0493V94.0112Z" fill="white"/>
<path d="M57.2242 94.0112H53.1367V98.0986H57.2242V94.0112Z" fill="white"/>
<path d="M61.3116 94.0112H57.2242V98.0986H61.3116V94.0112Z" fill="white"/>
<path d="M73.5739 94.0112H69.4865V98.0986H73.5739V94.0112Z" fill="white"/>
<path d="M77.6614 94.0112H73.5739V98.0986H77.6614V94.0112Z" fill="white"/>
<path d="M81.7488 94.0112H77.6614V98.0986H81.7488V94.0112Z" fill="white"/>
<path d="M85.8363 94.0112H81.7488V98.0986H85.8363V94.0112Z" fill="white"/>
<path d="M94.0112 94.0112H89.9237V98.0986H94.0112V94.0112Z" fill="white"/>
<path d="M98.0986 94.0112H94.0112V98.0986H98.0986V94.0112Z" fill="white"/>
<path d="M102.186 94.0112H98.0986V98.0986H102.186V94.0112Z" fill="white"/>
<path d="M4.08744 98.0986H0V102.186H4.08744V98.0986Z" fill="white"/>
<path d="M8.17488 98.0986H4.08744V102.186H8.17488V98.0986Z" fill="white"/>
<path d="M12.2623 98.0986H8.17488V102.186H12.2623V98.0986Z" fill="white"/>
<path d="M16.3498 98.0986H12.2623V102.186H16.3498V98.0986Z" fill="white"/>
<path d="M20.4372 98.0986H16.3498V102.186H20.4372V98.0986Z" fill="white"/>
<path d="M24.5246 98.0986H20.4372V102.186H24.5246L24.5246 98.0986Z" fill="white"/>
<path d="M28.6121 98.0986H24.5246L24.5246 102.186H28.6121V98.0986Z" fill="white"/>
<path d="M36.787 98.0986H32.6995V102.186H36.787V98.0986Z" fill="white"/>
<path d="M49.0493 98.0986H44.9619V102.186H49.0493V98.0986Z" fill="white"/>
<path d="M53.1367 98.0986H49.0493V102.186H53.1367V98.0986Z" fill="white"/>
<path d="M69.4865 98.0986H65.3991V102.186H69.4865V98.0986Z" fill="white"/>
<path d="M89.9237 98.0986H85.8363V102.186H89.9237V98.0986Z" fill="white"/>
<path d="M102.186 98.0986H98.0986V102.186H102.186V98.0986Z" fill="white"/>
<mask id="mask0_47_1012" style="mask-type:alpha" maskUnits="userSpaceOnUse" x="0" y="0" width="103" height="103">
<path d="M4.08744 0H0V4.08744H4.08744V0Z" fill="white"/>
<path d="M8.17488 0H4.08744V4.08744H8.17488V0Z" fill="white"/>
<path d="M12.2623 0H8.17488V4.08744H12.2623V0Z" fill="white"/>
<path d="M16.3498 0H12.2623V4.08744H16.3498V0Z" fill="white"/>
<path d="M20.4372 0H16.3498V4.08744H20.4372V0Z" fill="white"/>
<path d="M24.5246 0H20.4372V4.08744H24.5246V0Z" fill="white"/>
<path d="M28.6121 0H24.5246V4.08744H28.6121V0Z" fill="white"/>
<path d="M36.787 0H32.6995V4.08744H36.787V0Z" fill="white"/>
<path d="M40.8744 0H36.787V4.08744H40.8744V0Z" fill="white"/>
<path d="M57.2242 0H53.1367V4.08744H57.2242V0Z" fill="white"/>
<path d="M69.4865 0H65.3991V4.08744H69.4865V0Z" fill="white"/>
<path d="M77.6614 0H73.5739V4.08744H77.6614V0Z" fill="white"/>
<path d="M81.7488 0H77.6614V4.08744H81.7488V0Z" fill="white"/>
<path d="M85.8363 0H81.7488V4.08744H85.8363V0Z" fill="white"/>
<path d="M89.9237 0H85.8363V4.08744H89.9237V0Z" fill="white"/>
<path d="M94.0112 0H89.9237V4.08744H94.0112V0Z" fill="white"/>
<path d="M98.0986 0H94.0112V4.08744H98.0986V0Z" fill="white"/>
<path d="M102.186 0H98.0986V4.08744H102.186V0Z" fill="white"/>
<path d="M4.08744 4.08744H0V8.17488H4.08744V4.08744Z" fill="white"/>
<path d="M28.6121 4.08744H24.5246L24.5246 8.17488H28.6121V4.08744Z" fill="white"/>
<path d="M53.1367 4.08744H49.0493V8.17488H53.1367V4.08744Z" fill="white"/>
<path d="M57.2242 4.08744H53.1367V8.17488H57.2242V4.08744Z" fill="white"/>
<path d="M69.4865 4.08744H65.3991V8.17488H69.4865V4.08744Z" fill="white"/>
<path d="M77.6614 4.08744H73.5739V8.17488H77.6614V4.08744Z" fill="white"/>
<path d="M102.186 4.08744H98.0986V8.17488H102.186V4.08744Z" fill="white"/>
<path d="M4.08744 8.17488H0V12.2623H4.08744V8.17488Z" fill="white"/>
<path d="M12.2623 8.17488H8.17488V12.2623H12.2623V8.17488Z" fill="white"/>
<path d="M16.3498 8.17488H12.2623V12.2623H16.3498V8.17488Z" fill="white"/>
<path d="M20.4372 8.17488H16.3498V12.2623H20.4372V8.17488Z" fill="white"/>
<path d="M28.6121 8.17488H24.5246V12.2623H28.6121V8.17488Z" fill="white"/>
<path d="M40.8744 8.17488H36.787V12.2623H40.8744V8.17488Z" fill="white"/>
<path d="M44.9619 8.17488H40.8744V12.2623H44.9619V8.17488Z" fill="white"/>
<path d="M49.0493 8.17488H44.9619V12.2623H49.0493V8.17488Z" fill="white"/>
<path d="M53.1367 8.17488H49.0493V12.2623H53.1367V8.17488Z" fill="white"/>
<path d="M57.2242 8.17488H53.1367V12.2623H57.2242V8.17488Z" fill="white"/>
<path d="M69.4865 8.17488H65.3991V12.2623H69.4865V8.17488Z" fill="white"/>
<path d="M77.6614 8.17488H73.5739V12.2623H77.6614V8.17488Z" fill="white"/>
<path d="M85.8363 8.17488H81.7488V12.2623H85.8363V8.17488Z" fill="white"/>
<path d="M89.9237 8.17488H85.8363V12.2623H89.9237V8.17488Z" fill="white"/>
<path d="M94.0112 8.17488H89.9237V12.2623H94.0112V8.17488Z" fill="white"/>
<path d="M102.186 8.17488H98.0986V12.2623H102.186V8.17488Z" fill="white"/>
<path d="M4.08744 12.2623H0V16.3498H4.08744V12.2623Z" fill="white"/>
<path d="M12.2623 12.2623H8.17488V16.3498H12.2623V12.2623Z" fill="white"/>
<path d="M16.3498 12.2623H12.2623V16.3498H16.3498V12.2623Z" fill="white"/>
<path d="M20.4372 12.2623H16.3498V16.3498H20.4372V12.2623Z" fill="white"/>
<path d="M28.6121 12.2623H24.5246V16.3498H28.6121V12.2623Z" fill="white"/>
<path d="M40.8744 12.2623H36.787V16.3498H40.8744V12.2623Z" fill="white"/>
<path d="M44.9619 12.2623H40.8744V16.3498H44.9619V12.2623Z" fill="white"/>
<path d="M57.2242 12.2623H53.1367V16.3498H57.2242V12.2623Z" fill="white"/>
<path d="M77.6614 12.2623H73.5739V16.3498H77.6614V12.2623Z" fill="white"/>
<path d="M85.8363 12.2623H81.7488V16.3498H85.8363V12.2623Z" fill="white"/>
<path d="M89.9237 12.2623H85.8363V16.3498H89.9237V12.2623Z" fill="white"/>
<path d="M94.0112 12.2623H89.9237V16.3498H94.0112V12.2623Z" fill="white"/>
<path d="M102.186 12.2623H98.0986V16.3498H102.186V12.2623Z" fill="white"/>
<path d="M4.08744 16.3498H0V20.4372H4.08744V16.3498Z" fill="white"/>
<path d="M12.2623 16.3498H8.17488V20.4372H12.2623V16.3498Z" fill="white"/>
<path d="M16.3498 16.3498H12.2623V20.4372H16.3498V16.3498Z" fill="white"/>
<path d="M20.4372 16.3498H16.3498V20.4372H20.4372V16.3498Z" fill="white"/>
<path d="M28.6121 16.3498H24.5246V20.4372H28.6121V16.3498Z" fill="white"/>
<path d="M36.787 16.3498H32.6995V20.4372H36.787V16.3498Z" fill="white"/>
<path d="M44.9619 16.3498H40.8744V20.4372H44.9619V16.3498Z" fill="white"/>
<path d="M49.0493 16.3498H44.9619V20.4372H49.0493V16.3498Z" fill="white"/>
<path d="M53.1367 16.3498H49.0493V20.4372H53.1367V16.3498Z" fill="white"/>
<path d="M61.3116 16.3498H57.2242V20.4372H61.3116V16.3498Z" fill="white"/>
<path d="M77.6614 16.3498H73.5739V20.4372H77.6614V16.3498Z" fill="white"/>
<path d="M85.8363 16.3498H81.7488V20.4372H85.8363V16.3498Z" fill="white"/>
<path d="M89.9237 16.3498H85.8363V20.4372H89.9237V16.3498Z" fill="white"/>
<path d="M94.0112 16.3498H89.9237V20.4372H94.0112V16.3498Z" fill="white"/>
<path d="M102.186 16.3498H98.0986V20.4372H102.186V16.3498Z" fill="white"/>
<path d="M4.08744 20.4372H0V24.5246H4.08744V20.4372Z" fill="white"/>
<path d="M28.6121 20.4372H24.5246V24.5246H28.6121V20.4372Z" fill="white"/>
<path d="M61.3116 20.4372H57.2242V24.5246H61.3116V20.4372Z" fill="white"/>
<path d="M77.6614 20.4372H73.5739V24.5246H77.6614V20.4372Z" fill="white"/>
<path d="M102.186 20.4372H98.0986V24.5246H102.186V20.4372Z" fill="white"/>
<path d="M4.08744 24.5246H0V28.6121H4.08744V24.5246Z" fill="white"/>
<path d="M8.17488 24.5246L4.08744 24.5246V28.6121H8.17488V24.5246Z" fill="white"/>
<path d="M12.2623 24.5246H8.17488V28.6121H12.2623V24.5246Z" fill="white"/>
<path d="M16.3498 24.5246H12.2623V28.6121H16.3498V24.5246Z" fill="white"/>
<path d="M20.4372 24.5246H16.3498V28.6121H20.4372V24.5246Z" fill="white"/>
<path d="M24.5246 24.5246L20.4372 24.5246V28.6121H24.5246L24.5246 24.5246Z" fill="white"/>
<path d="M28.6121 24.5246H24.5246L24.5246 28.6121H28.6121V24.5246Z" fill="white"/>
<path d="M36.787 24.5246H32.6995V28.6121H36.787V24.5246Z" fill="white"/>
<path d="M44.9619 24.5246H40.8744V28.6121H44.9619V24.5246Z" fill="white"/>
<path d="M53.1367 24.5246H49.0493V28.6121H53.1367V24.5246Z" fill="white"/>
<path d="M61.3116 24.5246H57.2242V28.6121H61.3116V24.5246Z" fill="white"/>
<path d="M69.4865 24.5246H65.3991V28.6121H69.4865V24.5246Z" fill="white"/>
<path d="M77.6614 24.5246H73.5739V28.6121H77.6614V24.5246Z" fill="white"/>
<path d="M81.7488 24.5246L77.6614 24.5246V28.6121H81.7488V24.5246Z" fill="white"/>
<path d="M85.8363 24.5246H81.7488V28.6121H85.8363V24.5246Z" fill="white"/>
<path d="M89.9237 24.5246H85.8363V28.6121H89.9237V24.5246Z" fill="white"/>
<path d="M94.0112 24.5246H89.9237V28.6121H94.0112V24.5246Z" fill="white"/>
<path d="M98.0986 24.5246L94.0112 24.5246V28.6121H98.0986V24.5246Z" fill="white"/>
<path d="M102.186 24.5246H98.0986V28.6121H102.186V24.5246Z" fill="white"/>
<path d="M36.787 28.6121H32.6995V32.6995H36.787V28.6121Z" fill="white"/>
<path d="M44.9619 28.6121H40.8744V32.6995H44.9619V28.6121Z" fill="white"/>
<path d="M53.1367 28.6121H49.0493V32.6995H53.1367V28.6121Z" fill="white"/>
<path d="M57.2242 28.6121H53.1367V32.6995H57.2242V28.6121Z" fill="white"/>
<path d="M65.3991 28.6121H61.3116L61.3116 32.6995H65.3991V28.6121Z" fill="white"/>
<path d="M69.4865 28.6121H65.3991V32.6995H69.4865V28.6121Z" fill="white"/>
<path d="M4.08744 32.6995H0V36.787H4.08744V32.6995Z" fill="white"/>
<path d="M16.3498 32.6995H12.2623V36.787H16.3498V32.6995Z" fill="white"/>
<path d="M20.4372 32.6995H16.3498V36.787H20.4372V32.6995Z" fill="white"/>
<path d="M24.5246 32.6995H20.4372V36.787H24.5246V32.6995Z" fill="white"/>
<path d="M28.6121 32.6995H24.5246V36.787H28.6121V32.6995Z" fill="white"/>
<path d="M32.6995 32.6995H28.6121V36.787H32.6995V32.6995Z" fill="white"/>
<path d="M36.787 32.6995H32.6995V36.787H36.787V32.6995Z" fill="white"/>
<path d="M40.8744 32.6995H36.787V36.787H40.8744V32.6995Z" fill="white"/>
<path d="M57.2242 32.6995H53.1367V36.787H57.2242V32.6995Z" fill="white"/>
<path d="M69.4865 32.6995H65.3991V36.787H69.4865V32.6995Z" fill="white"/>
<path d="M73.5739 32.6995H69.4865V36.787H73.5739V32.6995Z" fill="white"/>
<path d="M77.6614 32.6995H73.5739V36.787H77.6614V32.6995Z" fill="white"/>
<path d="M85.8363 32.6995H81.7488V36.787H85.8363V32.6995Z" fill="white"/>
<path d="M102.186 32.6995H98.0986V36.787H102.186V32.6995Z" fill="white"/>
<path d="M8.17488 36.787H4.08744V40.8744H8.17488V36.787Z" fill="white"/>
<path d="M16.3498 36.787H12.2623V40.8744H16.3498V36.787Z" fill="white"/>
<path d="M20.4372 36.787H16.3498V40.8744H20.4372V36.787Z" fill="white"/>
<path d="M32.6995 36.787H28.6121V40.8744H32.6995V36.787Z" fill="white"/>
<path d="M36.787 36.787H32.6995V40.8744H36.787V36.787Z" fill="white"/>
<path d="M53.1367 36.787H49.0493V40.8744H53.1367V36.787Z" fill="white"/>
<path d="M65.3991 36.787H61.3116V40.8744H65.3991V36.787Z" fill="white"/>
<path d="M73.5739 36.787H69.4865V40.8744H73.5739V36.787Z" fill="white"/>
<path d="M77.6614 36.787H73.5739V40.8744H77.6614V36.787Z" fill="white"/>
<path d="M85.8363 36.787H81.7488V40.8744H85.8363V36.787Z" fill="white"/>
<path d="M89.9237 36.787H85.8363V40.8744H89.9237V36.787Z" fill="white"/>
<path d="M94.0112 36.787H89.9237V40.8744H94.0112V36.787Z" fill="white"/>
<path d="M98.0986 36.787H94.0112V40.8744H98.0986V36.787Z" fill="white"/>
<path d="M102.186 36.787H98.0986V40.8744H102.186V36.787Z" fill="white"/>
<path d="M4.08744 40.8744H0V44.9619H4.08744V40.8744Z" fill="white"/>
<path d="M8.17488 40.8744H4.08744V44.9619H8.17488V40.8744Z" fill="white"/>
<path d="M16.3498 40.8744H12.2623V44.9619H16.3498V40.8744Z" fill="white"/>
<path d="M20.4372 40.8744H16.3498V44.9619H20.4372V40.8744Z" fill="white"/>
<path d="M24.5246 40.8744H20.4372V44.9619H24.5246V40.8744Z" fill="white"/>
<path d="M28.6121 40.8744H24.5246V44.9619H28.6121V40.8744Z" fill="white"/>
<path d="M32.6995 40.8744H28.6121V44.9619H32.6995V40.8744Z" fill="white"/>
<path d="M40.8744 40.8744H36.787V44.9619H40.8744V40.8744Z" fill="white"/>
<path d="M49.0493 40.8744H44.9619V44.9619H49.0493V40.8744Z" fill="white"/>
<path d="M53.1367 40.8744H49.0493V44.9619H53.1367V40.8744Z" fill="white"/>
<path d="M61.3116 40.8744H57.2242V44.9619H61.3116L61.3116 40.8744Z" fill="white"/>
<path d="M69.4865 40.8744H65.3991V44.9619H69.4865V40.8744Z" fill="white"/>
<path d="M73.5739 40.8744H69.4865V44.9619H73.5739V40.8744Z" fill="white"/>
<path d="M77.6614 40.8744H73.5739V44.9619H77.6614V40.8744Z" fill="white"/>
<path d="M81.7488 40.8744H77.6614V44.9619H81.7488V40.8744Z" fill="white"/>
<path d="M85.8363 40.8744H81.7488V44.9619H85.8363V40.8744Z" fill="white"/>
<path d="M89.9237 40.8744H85.8363V44.9619H89.9237V40.8744Z" fill="white"/>
<path d="M94.0112 40.8744H89.9237V44.9619H94.0112V40.8744Z" fill="white"/>
<path d="M98.0986 40.8744H94.0112V44.9619H98.0986V40.8744Z" fill="white"/>
<path d="M4.08744 44.9619H0V49.0493H4.08744V44.9619Z" fill="white"/>
<path d="M20.4372 44.9619H16.3498V49.0493H20.4372V44.9619Z" fill="white"/>
<path d="M24.5246 44.9619H20.4372V49.0493H24.5246V44.9619Z" fill="white"/>
<path d="M32.6995 44.9619H28.6121V49.0493H32.6995V44.9619Z" fill="white"/>
<path d="M40.8744 44.9619H36.787V49.0493H40.8744V44.9619Z" fill="white"/>
<path d="M44.9619 44.9619H40.8744V49.0493H44.9619V44.9619Z" fill="white"/>
<path d="M61.3116 44.9619H57.2242V49.0493H61.3116V44.9619Z" fill="white"/>
<path d="M65.3991 44.9619H61.3116V49.0493H65.3991V44.9619Z" fill="white"/>
<path d="M85.8363 44.9619H81.7488V49.0493H85.8363V44.9619Z" fill="white"/>
<path d="M94.0112 44.9619H89.9237V49.0493H94.0112V44.9619Z" fill="white"/>
<path d="M98.0986 44.9619H94.0112V49.0493H98.0986V44.9619Z" fill="white"/>
<path d="M4.08744 49.0493H0V53.1367H4.08744V49.0493Z" fill="white"/>
<path d="M16.3498 49.0493H12.2623V53.1367H16.3498V49.0493Z" fill="white"/>
<path d="M20.4372 49.0493H16.3498V53.1367H20.4372V49.0493Z" fill="white"/>
<path d="M24.5246 49.0493H20.4372V53.1367H24.5246V49.0493Z" fill="white"/>
<path d="M28.6121 49.0493H24.5246V53.1367H28.6121V49.0493Z" fill="white"/>
<path d="M32.6995 49.0493H28.6121V53.1367H32.6995V49.0493Z" fill="white"/>
<path d="M36.787 49.0493H32.6995V53.1367H36.787V49.0493Z" fill="white"/>
<path d="M44.9619 49.0493H40.8744V53.1367H44.9619V49.0493Z" fill="white"/>
<path d="M49.0493 49.0493H44.9619V53.1367H49.0493V49.0493Z" fill="white"/>
<path d="M57.2242 49.0493H53.1367V53.1367H57.2242V49.0493Z" fill="white"/>
<path d="M61.3116 49.0493H57.2242V53.1367H61.3116V49.0493Z" fill="white"/>
<path d="M69.4865 49.0493H65.3991V53.1367H69.4865V49.0493Z" fill="white"/>
<path d="M81.7488 49.0493H77.6614V53.1367H81.7488V49.0493Z" fill="white"/>
<path d="M89.9237 49.0493H85.8363V53.1367H89.9237V49.0493Z" fill="white"/>
<path d="M94.0112 49.0493H89.9237V53.1367H94.0112V49.0493Z" fill="white"/>
<path d="M102.186 49.0493H98.0986V53.1367H102.186V49.0493Z" fill="white"/>
<path d="M4.08744 53.1367H0V57.2242H4.08744V53.1367Z" fill="white"/>
<path d="M8.17488 53.1367H4.08744V57.2242H8.17488V53.1367Z" fill="white"/>
<path d="M32.6995 53.1367H28.6121V57.2242H32.6995V53.1367Z" fill="white"/>
<path d="M36.787 53.1367H32.6995V57.2242H36.787V53.1367Z" fill="white"/>
<path d="M40.8744 53.1367H36.787V57.2242H40.8744V53.1367Z" fill="white"/>
<path d="M53.1367 53.1367H49.0493V57.2242H53.1367V53.1367Z" fill="white"/>
<path d="M61.3116 53.1367H57.2242V57.2242H61.3116V53.1367Z" fill="white"/>
<path d="M65.3991 53.1367H61.3116V57.2242H65.3991V53.1367Z" fill="white"/>
<path d="M69.4865 53.1367H65.3991V57.2242H69.4865V53.1367Z" fill="white"/>
<path d="M73.5739 53.1367H69.4865V57.2242H73.5739V53.1367Z" fill="white"/>
<path d="M85.8363 53.1367H81.7488V57.2242H85.8363V53.1367Z" fill="white"/>
<path d="M94.0112 53.1367H89.9237V57.2242H94.0112V53.1367Z" fill="white"/>
<path d="M98.0986 53.1367H94.0112V57.2242H98.0986V53.1367Z" fill="white"/>
<path d="M102.186 53.1367H98.0986V57.2242H102.186V53.1367Z" fill="white"/>
<path d="M4.08744 57.2242H0V61.3116H4.08744V57.2242Z" fill="white"/>
<path d="M8.17488 57.2242H4.08744V61.3116H8.17488V57.2242Z" fill="white"/>
<path d="M12.2623 57.2242H8.17488V61.3116H12.2623V57.2242Z" fill="white"/>
<path d="M28.6121 57.2242H24.5246V61.3116H28.6121V57.2242Z" fill="white"/>
<path d="M40.8744 57.2242H36.787V61.3116H40.8744V57.2242Z" fill="white"/>
<path d="M49.0493 57.2242H44.9619V61.3116H49.0493V57.2242Z" fill="white"/>
<path d="M53.1367 57.2242H49.0493V61.3116H53.1367V57.2242Z" fill="white"/>
<path d="M61.3116 57.2242H57.2242V61.3116H61.3116V57.2242Z" fill="white"/>
<path d="M73.5739 57.2242H69.4865V61.3116H73.5739V57.2242Z" fill="white"/>
<path d="M81.7488 57.2242H77.6614V61.3116H81.7488V57.2242Z" fill="white"/>
<path d="M85.8363 57.2242H81.7488V61.3116H85.8363V57.2242Z" fill="white"/>
<path d="M94.0112 57.2242H89.9237V61.3116H94.0112V57.2242Z" fill="white"/>
<path d="M8.17488 61.3116H4.08744V65.3991H8.17488V61.3116Z" fill="white"/>
<path d="M32.6995 61.3116L28.6121 61.3116V65.3991H32.6995V61.3116Z" fill="white"/>
<path d="M53.1367 61.3116H49.0493V65.3991H53.1367V61.3116Z" fill="white"/>
<path d="M61.3116 61.3116H57.2242V65.3991H61.3116V61.3116Z" fill="white"/>
<path d="M65.3991 61.3116L61.3116 61.3116V65.3991H65.3991V61.3116Z" fill="white"/>
<path d="M77.6614 61.3116H73.5739V65.3991H77.6614V61.3116Z" fill="white"/>
<path d="M85.8363 61.3116H81.7488V65.3991H85.8363V61.3116Z" fill="white"/>
<path d="M98.0986 61.3116L94.0112 61.3116V65.3991H98.0986V61.3116Z" fill="white"/>
<path d="M4.08744 65.3991H0V69.4865H4.08744V65.3991Z" fill="white"/>
<path d="M24.5246 65.3991H20.4372V69.4865H24.5246V65.3991Z" fill="white"/>
<path d="M28.6121 65.3991H24.5246V69.4865H28.6121V65.3991Z" fill="white"/>
<path d="M32.6995 65.3991H28.6121V69.4865H32.6995V65.3991Z" fill="white"/>
<path d="M40.8744 65.3991H36.787V69.4865H40.8744V65.3991Z" fill="white"/>
<path d="M44.9619 65.3991H40.8744V69.4865H44.9619V65.3991Z" fill="white"/>
<path d="M53.1367 65.3991H49.0493V69.4865H53.1367V65.3991Z" fill="white"/>
<path d="M65.3991 65.3991H61.3116L61.3116 69.4865H65.3991V65.3991Z" fill="white"/>
<path d="M69.4865 65.3991H65.3991V69.4865H69.4865V65.3991Z" fill="white"/>
<path d="M73.5739 65.3991H69.4865V69.4865H73.5739V65.3991Z" fill="white"/>
<path d="M77.6614 65.3991H73.5739V69.4865H77.6614V65.3991Z" fill="white"/>
<path d="M81.7488 65.3991H77.6614V69.4865H81.7488V65.3991Z" fill="white"/>
<path d="M85.8363 65.3991H81.7488V69.4865H85.8363V65.3991Z" fill="white"/>
<path d="M89.9237 65.3991H85.8363V69.4865H89.9237V65.3991Z" fill="white"/>
<path d="M98.0986 65.3991H94.0112V69.4865H98.0986V65.3991Z" fill="white"/>
<path d="M36.787 69.4865H32.6995V73.5739H36.787V69.4865Z" fill="white"/>
<path d="M44.9619 69.4865H40.8744V73.5739H44.9619V69.4865Z" fill="white"/>
<path d="M53.1367 69.4865H49.0493V73.5739H53.1367V69.4865Z" fill="white"/>
<path d="M65.3991 69.4865H61.3116V73.5739H65.3991V69.4865Z" fill="white"/>
<path d="M69.4865 69.4865H65.3991V73.5739H69.4865V69.4865Z" fill="white"/>
<path d="M85.8363 69.4865H81.7488V73.5739H85.8363V69.4865Z" fill="white"/>
<path d="M89.9237 69.4865H85.8363V73.5739H89.9237V69.4865Z" fill="white"/>
<path d="M94.0112 69.4865H89.9237V73.5739H94.0112V69.4865Z" fill="white"/>
<path d="M4.08744 73.5739H0V77.6614H4.08744V73.5739Z" fill="white"/>
<path d="M8.17488 73.5739H4.08744V77.6614H8.17488V73.5739Z" fill="white"/>
<path d="M12.2623 73.5739H8.17488V77.6614H12.2623V73.5739Z" fill="white"/>
<path d="M16.3498 73.5739H12.2623V77.6614H16.3498V73.5739Z" fill="white"/>
<path d="M20.4372 73.5739H16.3498V77.6614H20.4372V73.5739Z" fill="white"/>
<path d="M24.5246 73.5739H20.4372V77.6614H24.5246V73.5739Z" fill="white"/>
<path d="M28.6121 73.5739H24.5246V77.6614H28.6121V73.5739Z" fill="white"/>
<path d="M36.787 73.5739H32.6995V77.6614H36.787V73.5739Z" fill="white"/>
<path d="M53.1367 73.5739H49.0493V77.6614H53.1367V73.5739Z" fill="white"/>
<path d="M65.3991 73.5739H61.3116V77.6614H65.3991V73.5739Z" fill="white"/>
<path d="M69.4865 73.5739H65.3991V77.6614H69.4865V73.5739Z" fill="white"/>
<path d="M77.6614 73.5739H73.5739V77.6614H77.6614V73.5739Z" fill="white"/>
<path d="M85.8363 73.5739H81.7488V77.6614H85.8363V73.5739Z" fill="white"/>
<path d="M89.9237 73.5739H85.8363V77.6614H89.9237V73.5739Z" fill="white"/>
<path d="M94.0112 73.5739H89.9237V77.6614H94.0112V73.5739Z" fill="white"/>
<path d="M102.186 73.5739H98.0986V77.6614H102.186V73.5739Z" fill="white"/>
<path d="M4.08744 77.6614H0V81.7488H4.08744V77.6614Z" fill="white"/>
<path d="M28.6121 77.6614H24.5246L24.5246 81.7488H28.6121V77.6614Z" fill="white"/>
<path d="M36.787 77.6614H32.6995V81.7488H36.787V77.6614Z" fill="white"/>
<path d="M44.9619 77.6614H40.8744V81.7488H44.9619V77.6614Z" fill="white"/>
<path d="M61.3116 77.6614H57.2242V81.7488H61.3116L61.3116 77.6614Z" fill="white"/>
<path d="M69.4865 77.6614H65.3991V81.7488H69.4865V77.6614Z" fill="white"/>
<path d="M85.8363 77.6614H81.7488V81.7488H85.8363V77.6614Z" fill="white"/>
<path d="M94.0112 77.6614H89.9237V81.7488H94.0112V77.6614Z" fill="white"/>
<path d="M4.08744 81.7488H0V85.8363H4.08744V81.7488Z" fill="white"/>
<path d="M12.2623 81.7488H8.17488V85.8363H12.2623V81.7488Z" fill="white"/>
<path d="M16.3498 81.7488H12.2623V85.8363H16.3498V81.7488Z" fill="white"/>
<path d="M20.4372 81.7488H16.3498V85.8363H20.4372V81.7488Z" fill="white"/>
<path d="M28.6121 81.7488H24.5246V85.8363H28.6121V81.7488Z" fill="white"/>
<path d="M36.787 81.7488H32.6995V85.8363H36.787V81.7488Z" fill="white"/>
<path d="M40.8744 81.7488H36.787V85.8363H40.8744V81.7488Z" fill="white"/>
<path d="M44.9619 81.7488H40.8744V85.8363H44.9619V81.7488Z" fill="white"/>
<path d="M57.2242 81.7488H53.1367V85.8363H57.2242V81.7488Z" fill="white"/>
<path d="M61.3116 81.7488H57.2242V85.8363H61.3116V81.7488Z" fill="white"/>
<path d="M69.4865 81.7488H65.3991V85.8363H69.4865V81.7488Z" fill="white"/>
<path d="M73.5739 81.7488H69.4865V85.8363H73.5739V81.7488Z" fill="white"/>
<path d="M77.6614 81.7488H73.5739V85.8363H77.6614V81.7488Z" fill="white"/>
<path d="M81.7488 81.7488H77.6614V85.8363H81.7488V81.7488Z" fill="white"/>
<path d="M85.8363 81.7488H81.7488V85.8363H85.8363V81.7488Z" fill="white"/>
<path d="M102.186 81.7488H98.0986V85.8363H102.186V81.7488Z" fill="white"/>
<path d="M4.08744 85.8363H0V89.9237H4.08744V85.8363Z" fill="white"/>
<path d="M12.2623 85.8363H8.17488V89.9237H12.2623V85.8363Z" fill="white"/>
<path d="M16.3498 85.8363H12.2623V89.9237H16.3498V85.8363Z" fill="white"/>
<path d="M20.4372 85.8363H16.3498V89.9237H20.4372V85.8363Z" fill="white"/>
<path d="M28.6121 85.8363H24.5246V89.9237H28.6121V85.8363Z" fill="white"/>
<path d="M36.787 85.8363H32.6995V89.9237H36.787V85.8363Z" fill="white"/>
<path d="M53.1367 85.8363H49.0493V89.9237H53.1367V85.8363Z" fill="white"/>
<path d="M69.4865 85.8363H65.3991V89.9237H69.4865V85.8363Z" fill="white"/>
<path d="M73.5739 85.8363H69.4865V89.9237H73.5739V85.8363Z" fill="white"/>
<path d="M89.9237 85.8363H85.8363V89.9237H89.9237V85.8363Z" fill="white"/>
<path d="M4.08744 89.9237H0V94.0112H4.08744V89.9237Z" fill="white"/>
<path d="M12.2623 89.9237H8.17488V94.0112H12.2623V89.9237Z" fill="white"/>
<path d="M16.3498 89.9237H12.2623V94.0112H16.3498V89.9237Z" fill="white"/>
<path d="M20.4372 89.9237H16.3498V94.0112H20.4372V89.9237Z" fill="white"/>
<path d="M28.6121 89.9237H24.5246V94.0112H28.6121V89.9237Z" fill="white"/>
<path d="M49.0493 89.9237H44.9619V94.0112H49.0493V89.9237Z" fill="white"/>
<path d="M53.1367 89.9237H49.0493V94.0112H53.1367V89.9237Z" fill="white"/>
<path d="M61.3116 89.9237H57.2242V94.0112H61.3116V89.9237Z" fill="white"/>
<path d="M65.3991 89.9237H61.3116V94.0112H65.3991V89.9237Z" fill="white"/>
<path d="M69.4865 89.9237H65.3991V94.0112H69.4865V89.9237Z" fill="white"/>
<path d="M81.7488 89.9237H77.6614V94.0112H81.7488V89.9237Z" fill="white"/>
<path d="M85.8363 89.9237H81.7488V94.0112H85.8363V89.9237Z" fill="white"/>
<path d="M94.0112 89.9237H89.9237V94.0112H94.0112V89.9237Z" fill="white"/>
<path d="M98.0986 89.9237H94.0112V94.0112H98.0986V89.9237Z" fill="white"/>
<path d="M102.186 89.9237H98.0986V94.0112H102.186V89.9237Z" fill="white"/>
<path d="M4.08744 94.0112H0V98.0986H4.08744V94.0112Z" fill="white"/>
<path d="M28.6121 94.0112H24.5246V98.0986H28.6121V94.0112Z" fill="white"/>
<path d="M40.8744 94.0112H36.787V98.0986H40.8744V94.0112Z" fill="white"/>
<path d="M44.9619 94.0112H40.8744V98.0986H44.9619V94.0112Z" fill="white"/>
<path d="M49.0493 94.0112H44.9619V98.0986H49.0493V94.0112Z" fill="white"/>
<path d="M57.2242 94.0112H53.1367V98.0986H57.2242V94.0112Z" fill="white"/>
<path d="M61.3116 94.0112H57.2242V98.0986H61.3116V94.0112Z" fill="white"/>
<path d="M73.5739 94.0112H69.4865V98.0986H73.5739V94.0112Z" fill="white"/>
<path d="M77.6614 94.0112H73.5739V98.0986H77.6614V94.0112Z" fill="white"/>
<path d="M81.7488 94.0112H77.6614V98.0986H81.7488V94.0112Z" fill="white"/>
<path d="M85.8363 94.0112H81.7488V98.0986H85.8363V94.0112Z" fill="white"/>
<path d="M94.0112 94.0112H89.9237V98.0986H94.0112V94.0112Z" fill="white"/>
<path d="M98.0986 94.0112H94.0112V98.0986H98.0986V94.0112Z" fill="white"/>
<path d="M102.186 94.0112H98.0986V98.0986H102.186V94.0112Z" fill="white"/>
<path d="M4.08744 98.0986H0V102.186H4.08744V98.0986Z" fill="white"/>
<path d="M8.17488 98.0986H4.08744V102.186H8.17488V98.0986Z" fill="white"/>
<path d="M12.2623 98.0986H8.17488V102.186H12.2623V98.0986Z" fill="white"/>
<path d="M16.3498 98.0986H12.2623V102.186H16.3498V98.0986Z" fill="white"/>
<path d="M20.4372 98.0986H16.3498V102.186H20.4372V98.0986Z" fill="white"/>
<path d="M24.5246 98.0986H20.4372V102.186H24.5246L24.5246 98.0986Z" fill="white"/>
<path d="M28.6121 98.0986H24.5246L24.5246 102.186H28.6121V98.0986Z" fill="white"/>
<path d="M36.787 98.0986H32.6995V102.186H36.787V98.0986Z" fill="white"/>
<path d="M49.0493 98.0986H44.9619V102.186H49.0493V98.0986Z" fill="white"/>
<path d="M53.1367 98.0986H49.0493V102.186H53.1367V98.0986Z" fill="white"/>
<path d="M69.4865 98.0986H65.3991V102.186H69.4865V98.0986Z" fill="white"/>
<path d="M89.9237 98.0986H85.8363V102.186H89.9237V98.0986Z" fill="white"/>
<path d="M102.186 98.0986H98.0986V102.186H102.186V98.0986Z" fill="white"/>
</mask>
<g mask="url(#mask0_47_1012)">
<rect x="-7.2998" y="-7.29883" width="116.784" height="116.784" fill="white"/>
</g>
</svg>
