<svg width="46" height="46" viewBox="0 0 46 46" fill="none" xmlns="http://www.w3.org/2000/svg">
<circle cx="23" cy="23" r="23" fill="#FFBD02"/>
<path d="M13.7689 14H13V14.7689H13.7689V14Z" fill="white"/>
<path d="M14.5378 14H13.7689V14.7689H14.5378V14Z" fill="white"/>
<path d="M15.3067 14H14.5378V14.7689H15.3067V14Z" fill="white"/>
<path d="M16.0755 14H15.3067V14.7689H16.0755V14Z" fill="white"/>
<path d="M16.8444 14H16.0755V14.7689H16.8444V14Z" fill="white"/>
<path d="M17.6133 14H16.8444V14.7689H17.6133V14Z" fill="white"/>
<path d="M18.3822 14H17.6133V14.7689H18.3822V14Z" fill="white"/>
<path d="M19.92 14H19.1511V14.7689H19.92V14Z" fill="white"/>
<path d="M20.6889 14H19.92V14.7689H20.6889V14Z" fill="white"/>
<path d="M23.7644 14H22.9955V14.7689H23.7644V14Z" fill="white"/>
<path d="M26.0711 14H25.3022V14.7689H26.0711V14Z" fill="white"/>
<path d="M27.6088 14H26.84V14.7689H27.6088V14Z" fill="white"/>
<path d="M28.3777 14H27.6088V14.7689H28.3777V14Z" fill="white"/>
<path d="M29.1466 14H28.3777V14.7689H29.1466V14Z" fill="white"/>
<path d="M29.9155 14H29.1466V14.7689H29.9155V14Z" fill="white"/>
<path d="M30.6844 14H29.9155V14.7689H30.6844V14Z" fill="white"/>
<path d="M31.4533 14H30.6844V14.7689H31.4533V14Z" fill="white"/>
<path d="M32.2222 14H31.4533V14.7689H32.2222V14Z" fill="white"/>
<path d="M13.7689 14.7689H13V15.5378H13.7689V14.7689Z" fill="white"/>
<path d="M18.3822 14.7689H17.6133L17.6133 15.5378H18.3822V14.7689Z" fill="white"/>
<path d="M22.9955 14.7689H22.2266V15.5378H22.9955V14.7689Z" fill="white"/>
<path d="M23.7644 14.7689H22.9955V15.5378H23.7644V14.7689Z" fill="white"/>
<path d="M26.0711 14.7689H25.3022V15.5378H26.0711V14.7689Z" fill="white"/>
<path d="M27.6088 14.7689H26.84V15.5378H27.6088V14.7689Z" fill="white"/>
<path d="M32.2222 14.7689H31.4533V15.5378H32.2222V14.7689Z" fill="white"/>
<path d="M13.7689 15.5378H13V16.3067H13.7689V15.5378Z" fill="white"/>
<path d="M15.3067 15.5378H14.5378V16.3067H15.3067V15.5378Z" fill="white"/>
<path d="M16.0755 15.5378H15.3067V16.3067H16.0755V15.5378Z" fill="white"/>
<path d="M16.8444 15.5378H16.0755V16.3067H16.8444V15.5378Z" fill="white"/>
<path d="M18.3822 15.5378H17.6133V16.3067H18.3822V15.5378Z" fill="white"/>
<path d="M20.6889 15.5378H19.92V16.3067H20.6889V15.5378Z" fill="white"/>
<path d="M21.4578 15.5378H20.6889V16.3067H21.4578V15.5378Z" fill="white"/>
<path d="M22.2266 15.5378H21.4578V16.3067H22.2266V15.5378Z" fill="white"/>
<path d="M22.9955 15.5378H22.2266V16.3067H22.9955V15.5378Z" fill="white"/>
<path d="M23.7644 15.5378H22.9955V16.3067H23.7644V15.5378Z" fill="white"/>
<path d="M26.0711 15.5378H25.3022V16.3067H26.0711V15.5378Z" fill="white"/>
<path d="M27.6088 15.5378H26.84V16.3067H27.6088V15.5378Z" fill="white"/>
<path d="M29.1466 15.5378H28.3777V16.3067H29.1466V15.5378Z" fill="white"/>
<path d="M29.9155 15.5378H29.1466V16.3067H29.9155V15.5378Z" fill="white"/>
<path d="M30.6844 15.5378H29.9155V16.3067H30.6844V15.5378Z" fill="white"/>
<path d="M32.2222 15.5378H31.4533V16.3067H32.2222V15.5378Z" fill="white"/>
<path d="M13.7689 16.3067H13V17.0755H13.7689V16.3067Z" fill="white"/>
<path d="M15.3067 16.3067H14.5378V17.0755H15.3067V16.3067Z" fill="white"/>
<path d="M16.0755 16.3067H15.3067V17.0755H16.0755V16.3067Z" fill="white"/>
<path d="M16.8444 16.3067H16.0755V17.0755H16.8444V16.3067Z" fill="white"/>
<path d="M18.3822 16.3067H17.6133V17.0755H18.3822V16.3067Z" fill="white"/>
<path d="M20.6889 16.3067H19.92V17.0755H20.6889V16.3067Z" fill="white"/>
<path d="M21.4578 16.3067H20.6889V17.0755H21.4578V16.3067Z" fill="white"/>
<path d="M23.7644 16.3067H22.9955V17.0755H23.7644V16.3067Z" fill="white"/>
<path d="M27.6088 16.3067H26.84V17.0755H27.6088V16.3067Z" fill="white"/>
<path d="M29.1466 16.3067H28.3777V17.0755H29.1466V16.3067Z" fill="white"/>
<path d="M29.9155 16.3067H29.1466V17.0755H29.9155V16.3067Z" fill="white"/>
<path d="M30.6844 16.3067H29.9155V17.0755H30.6844V16.3067Z" fill="white"/>
<path d="M32.2222 16.3067H31.4533V17.0755H32.2222V16.3067Z" fill="white"/>
<path d="M13.7689 17.0755H13V17.8444H13.7689V17.0755Z" fill="white"/>
<path d="M15.3067 17.0755H14.5378V17.8444H15.3067V17.0755Z" fill="white"/>
<path d="M16.0755 17.0755H15.3067V17.8444H16.0755V17.0755Z" fill="white"/>
<path d="M16.8444 17.0755H16.0755V17.8444H16.8444V17.0755Z" fill="white"/>
<path d="M18.3822 17.0755H17.6133V17.8444H18.3822V17.0755Z" fill="white"/>
<path d="M19.92 17.0755H19.1511V17.8444H19.92V17.0755Z" fill="white"/>
<path d="M21.4578 17.0755H20.6889V17.8444H21.4578V17.0755Z" fill="white"/>
<path d="M22.2266 17.0755H21.4578V17.8444H22.2266V17.0755Z" fill="white"/>
<path d="M22.9955 17.0755H22.2266V17.8444H22.9955V17.0755Z" fill="white"/>
<path d="M24.5333 17.0755H23.7644V17.8444H24.5333V17.0755Z" fill="white"/>
<path d="M27.6088 17.0755H26.84V17.8444H27.6088V17.0755Z" fill="white"/>
<path d="M29.1466 17.0755H28.3777V17.8444H29.1466V17.0755Z" fill="white"/>
<path d="M29.9155 17.0755H29.1466V17.8444H29.9155V17.0755Z" fill="white"/>
<path d="M30.6844 17.0755H29.9155V17.8444H30.6844V17.0755Z" fill="white"/>
<path d="M32.2222 17.0755H31.4533V17.8444H32.2222V17.0755Z" fill="white"/>
<path d="M13.7689 17.8444H13V18.6133H13.7689V17.8444Z" fill="white"/>
<path d="M18.3822 17.8444H17.6133V18.6133H18.3822V17.8444Z" fill="white"/>
<path d="M24.5333 17.8444H23.7644V18.6133H24.5333V17.8444Z" fill="white"/>
<path d="M27.6088 17.8444H26.84V18.6133H27.6088V17.8444Z" fill="white"/>
<path d="M32.2222 17.8444H31.4533V18.6133H32.2222V17.8444Z" fill="white"/>
<path d="M13.7689 18.6133H13V19.3822H13.7689V18.6133Z" fill="white"/>
<path d="M14.5378 18.6133L13.7689 18.6133V19.3822H14.5378V18.6133Z" fill="white"/>
<path d="M15.3067 18.6133H14.5378V19.3822H15.3067V18.6133Z" fill="white"/>
<path d="M16.0755 18.6133H15.3067V19.3822H16.0755V18.6133Z" fill="white"/>
<path d="M16.8444 18.6133H16.0755V19.3822H16.8444V18.6133Z" fill="white"/>
<path d="M17.6133 18.6133L16.8444 18.6133V19.3822H17.6133L17.6133 18.6133Z" fill="white"/>
<path d="M18.3822 18.6133H17.6133L17.6133 19.3822H18.3822V18.6133Z" fill="white"/>
<path d="M19.92 18.6133H19.1511V19.3822H19.92V18.6133Z" fill="white"/>
<path d="M21.4578 18.6133H20.6889V19.3822H21.4578V18.6133Z" fill="white"/>
<path d="M22.9955 18.6133H22.2266V19.3822H22.9955V18.6133Z" fill="white"/>
<path d="M24.5333 18.6133H23.7644V19.3822H24.5333V18.6133Z" fill="white"/>
<path d="M26.0711 18.6133H25.3022V19.3822H26.0711V18.6133Z" fill="white"/>
<path d="M27.6088 18.6133H26.84V19.3822H27.6088V18.6133Z" fill="white"/>
<path d="M28.3777 18.6133L27.6088 18.6133V19.3822H28.3777V18.6133Z" fill="white"/>
<path d="M29.1466 18.6133H28.3777V19.3822H29.1466V18.6133Z" fill="white"/>
<path d="M29.9155 18.6133H29.1466V19.3822H29.9155V18.6133Z" fill="white"/>
<path d="M30.6844 18.6133H29.9155V19.3822H30.6844V18.6133Z" fill="white"/>
<path d="M31.4533 18.6133L30.6844 18.6133V19.3822H31.4533V18.6133Z" fill="white"/>
<path d="M32.2222 18.6133H31.4533V19.3822H32.2222V18.6133Z" fill="white"/>
<path d="M19.92 19.3822H19.1511V20.1511H19.92V19.3822Z" fill="white"/>
<path d="M21.4578 19.3822H20.6889V20.1511H21.4578V19.3822Z" fill="white"/>
<path d="M22.9955 19.3822H22.2266V20.1511H22.9955V19.3822Z" fill="white"/>
<path d="M23.7644 19.3822H22.9955V20.1511H23.7644V19.3822Z" fill="white"/>
<path d="M25.3022 19.3822H24.5333L24.5333 20.1511H25.3022V19.3822Z" fill="white"/>
<path d="M26.0711 19.3822H25.3022V20.1511H26.0711V19.3822Z" fill="white"/>
<path d="M13.7689 20.1511H13V20.92H13.7689V20.1511Z" fill="white"/>
<path d="M16.0755 20.1511H15.3067V20.92H16.0755V20.1511Z" fill="white"/>
<path d="M16.8444 20.1511H16.0755V20.92H16.8444V20.1511Z" fill="white"/>
<path d="M17.6133 20.1511H16.8444V20.92H17.6133V20.1511Z" fill="white"/>
<path d="M18.3822 20.1511H17.6133V20.92H18.3822V20.1511Z" fill="white"/>
<path d="M19.1511 20.1511H18.3822V20.92H19.1511V20.1511Z" fill="white"/>
<path d="M19.92 20.1511H19.1511V20.92H19.92V20.1511Z" fill="white"/>
<path d="M20.6889 20.1511H19.92V20.92H20.6889V20.1511Z" fill="white"/>
<path d="M23.7644 20.1511H22.9955V20.92H23.7644V20.1511Z" fill="white"/>
<path d="M26.0711 20.1511H25.3022V20.92H26.0711V20.1511Z" fill="white"/>
<path d="M26.84 20.1511H26.0711V20.92H26.84V20.1511Z" fill="white"/>
<path d="M27.6088 20.1511H26.84V20.92H27.6088V20.1511Z" fill="white"/>
<path d="M29.1466 20.1511H28.3777V20.92H29.1466V20.1511Z" fill="white"/>
<path d="M32.2222 20.1511H31.4533V20.92H32.2222V20.1511Z" fill="white"/>
<path d="M14.5378 20.92H13.7689V21.6889H14.5378V20.92Z" fill="white"/>
<path d="M16.0755 20.92H15.3067V21.6889H16.0755V20.92Z" fill="white"/>
<path d="M16.8444 20.92H16.0755V21.6889H16.8444V20.92Z" fill="white"/>
<path d="M19.1511 20.92H18.3822V21.6889H19.1511V20.92Z" fill="white"/>
<path d="M19.92 20.92H19.1511V21.6889H19.92V20.92Z" fill="white"/>
<path d="M22.9955 20.92H22.2266V21.6889H22.9955V20.92Z" fill="white"/>
<path d="M25.3022 20.92H24.5333V21.6889H25.3022V20.92Z" fill="white"/>
<path d="M26.84 20.92H26.0711V21.6889H26.84V20.92Z" fill="white"/>
<path d="M27.6088 20.92H26.84V21.6889H27.6088V20.92Z" fill="white"/>
<path d="M29.1466 20.92H28.3777V21.6889H29.1466V20.92Z" fill="white"/>
<path d="M29.9155 20.92H29.1466V21.6889H29.9155V20.92Z" fill="white"/>
<path d="M30.6844 20.92H29.9155V21.6889H30.6844V20.92Z" fill="white"/>
<path d="M31.4533 20.92H30.6844V21.6889H31.4533V20.92Z" fill="white"/>
<path d="M32.2222 20.92H31.4533V21.6889H32.2222V20.92Z" fill="white"/>
<path d="M13.7689 21.6889H13V22.4578H13.7689V21.6889Z" fill="white"/>
<path d="M14.5378 21.6889H13.7689V22.4578H14.5378V21.6889Z" fill="white"/>
<path d="M16.0755 21.6889H15.3067V22.4578H16.0755V21.6889Z" fill="white"/>
<path d="M16.8444 21.6889H16.0755V22.4578H16.8444V21.6889Z" fill="white"/>
<path d="M17.6133 21.6889H16.8444V22.4578H17.6133V21.6889Z" fill="white"/>
<path d="M18.3822 21.6889H17.6133V22.4578H18.3822V21.6889Z" fill="white"/>
<path d="M19.1511 21.6889H18.3822V22.4578H19.1511V21.6889Z" fill="white"/>
<path d="M20.6889 21.6889H19.92V22.4578H20.6889V21.6889Z" fill="white"/>
<path d="M22.2266 21.6889H21.4578V22.4578H22.2266V21.6889Z" fill="white"/>
<path d="M22.9955 21.6889H22.2266V22.4578H22.9955V21.6889Z" fill="white"/>
<path d="M24.5333 21.6889H23.7644V22.4578H24.5333L24.5333 21.6889Z" fill="white"/>
<path d="M26.0711 21.6889H25.3022V22.4578H26.0711V21.6889Z" fill="white"/>
<path d="M26.84 21.6889H26.0711V22.4578H26.84V21.6889Z" fill="white"/>
<path d="M27.6088 21.6889H26.84V22.4578H27.6088V21.6889Z" fill="white"/>
<path d="M28.3777 21.6889H27.6088V22.4578H28.3777V21.6889Z" fill="white"/>
<path d="M29.1466 21.6889H28.3777V22.4578H29.1466V21.6889Z" fill="white"/>
<path d="M29.9155 21.6889H29.1466V22.4578H29.9155V21.6889Z" fill="white"/>
<path d="M30.6844 21.6889H29.9155V22.4578H30.6844V21.6889Z" fill="white"/>
<path d="M31.4533 21.6889H30.6844V22.4578H31.4533V21.6889Z" fill="white"/>
<path d="M13.7689 22.4578H13V23.2266H13.7689V22.4578Z" fill="white"/>
<path d="M16.8444 22.4578H16.0755V23.2266H16.8444V22.4578Z" fill="white"/>
<path d="M17.6133 22.4578H16.8444V23.2266H17.6133V22.4578Z" fill="white"/>
<path d="M19.1511 22.4578H18.3822V23.2266H19.1511V22.4578Z" fill="white"/>
<path d="M20.6889 22.4578H19.92V23.2266H20.6889V22.4578Z" fill="white"/>
<path d="M21.4578 22.4578H20.6889V23.2266H21.4578V22.4578Z" fill="white"/>
<path d="M24.5333 22.4578H23.7644V23.2266H24.5333V22.4578Z" fill="white"/>
<path d="M25.3022 22.4578H24.5333V23.2266H25.3022V22.4578Z" fill="white"/>
<path d="M29.1466 22.4578H28.3777V23.2266H29.1466V22.4578Z" fill="white"/>
<path d="M30.6844 22.4578H29.9155V23.2266H30.6844V22.4578Z" fill="white"/>
<path d="M31.4533 22.4578H30.6844V23.2266H31.4533V22.4578Z" fill="white"/>
<path d="M13.7689 23.2266H13V23.9955H13.7689V23.2266Z" fill="white"/>
<path d="M16.0755 23.2266H15.3067V23.9955H16.0755V23.2266Z" fill="white"/>
<path d="M16.8444 23.2266H16.0755V23.9955H16.8444V23.2266Z" fill="white"/>
<path d="M17.6133 23.2266H16.8444V23.9955H17.6133V23.2266Z" fill="white"/>
<path d="M18.3822 23.2266H17.6133V23.9955H18.3822V23.2266Z" fill="white"/>
<path d="M19.1511 23.2266H18.3822V23.9955H19.1511V23.2266Z" fill="white"/>
<path d="M19.92 23.2266H19.1511V23.9955H19.92V23.2266Z" fill="white"/>
<path d="M21.4578 23.2266H20.6889V23.9955H21.4578V23.2266Z" fill="white"/>
<path d="M22.2266 23.2266H21.4578V23.9955H22.2266V23.2266Z" fill="white"/>
<path d="M23.7644 23.2266H22.9955V23.9955H23.7644V23.2266Z" fill="white"/>
<path d="M24.5333 23.2266H23.7644V23.9955H24.5333V23.2266Z" fill="white"/>
<path d="M26.0711 23.2266H25.3022V23.9955H26.0711V23.2266Z" fill="white"/>
<path d="M28.3777 23.2266H27.6088V23.9955H28.3777V23.2266Z" fill="white"/>
<path d="M29.9155 23.2266H29.1466V23.9955H29.9155V23.2266Z" fill="white"/>
<path d="M30.6844 23.2266H29.9155V23.9955H30.6844V23.2266Z" fill="white"/>
<path d="M32.2222 23.2266H31.4533V23.9955H32.2222V23.2266Z" fill="white"/>
<path d="M13.7689 23.9955H13V24.7644H13.7689V23.9955Z" fill="white"/>
<path d="M14.5378 23.9955H13.7689V24.7644H14.5378V23.9955Z" fill="white"/>
<path d="M19.1511 23.9955H18.3822V24.7644H19.1511V23.9955Z" fill="white"/>
<path d="M19.92 23.9955H19.1511V24.7644H19.92V23.9955Z" fill="white"/>
<path d="M20.6889 23.9955H19.92V24.7644H20.6889V23.9955Z" fill="white"/>
<path d="M22.9955 23.9955H22.2266V24.7644H22.9955V23.9955Z" fill="white"/>
<path d="M24.5333 23.9955H23.7644V24.7644H24.5333V23.9955Z" fill="white"/>
<path d="M25.3022 23.9955H24.5333V24.7644H25.3022V23.9955Z" fill="white"/>
<path d="M26.0711 23.9955H25.3022V24.7644H26.0711V23.9955Z" fill="white"/>
<path d="M26.84 23.9955H26.0711V24.7644H26.84V23.9955Z" fill="white"/>
<path d="M29.1466 23.9955H28.3777V24.7644H29.1466V23.9955Z" fill="white"/>
<path d="M30.6844 23.9955H29.9155V24.7644H30.6844V23.9955Z" fill="white"/>
<path d="M31.4533 23.9955H30.6844V24.7644H31.4533V23.9955Z" fill="white"/>
<path d="M32.2222 23.9955H31.4533V24.7644H32.2222V23.9955Z" fill="white"/>
<path d="M13.7689 24.7644H13V25.5333H13.7689V24.7644Z" fill="white"/>
<path d="M14.5378 24.7644H13.7689V25.5333H14.5378V24.7644Z" fill="white"/>
<path d="M15.3067 24.7644H14.5378V25.5333H15.3067V24.7644Z" fill="white"/>
<path d="M18.3822 24.7644H17.6133V25.5333H18.3822V24.7644Z" fill="white"/>
<path d="M20.6889 24.7644H19.92V25.5333H20.6889V24.7644Z" fill="white"/>
<path d="M22.2266 24.7644H21.4578V25.5333H22.2266V24.7644Z" fill="white"/>
<path d="M22.9955 24.7644H22.2266V25.5333H22.9955V24.7644Z" fill="white"/>
<path d="M24.5333 24.7644H23.7644V25.5333H24.5333V24.7644Z" fill="white"/>
<path d="M26.84 24.7644H26.0711V25.5333H26.84V24.7644Z" fill="white"/>
<path d="M28.3777 24.7644H27.6088V25.5333H28.3777V24.7644Z" fill="white"/>
<path d="M29.1466 24.7644H28.3777V25.5333H29.1466V24.7644Z" fill="white"/>
<path d="M30.6844 24.7644H29.9155V25.5333H30.6844V24.7644Z" fill="white"/>
<path d="M14.5378 25.5333H13.7689V26.3022H14.5378V25.5333Z" fill="white"/>
<path d="M19.1511 25.5333L18.3822 25.5333V26.3022H19.1511V25.5333Z" fill="white"/>
<path d="M22.9955 25.5333H22.2266V26.3022H22.9955V25.5333Z" fill="white"/>
<path d="M24.5333 25.5333H23.7644V26.3022H24.5333V25.5333Z" fill="white"/>
<path d="M25.3022 25.5333L24.5333 25.5333V26.3022H25.3022V25.5333Z" fill="white"/>
<path d="M27.6088 25.5333H26.84V26.3022H27.6088V25.5333Z" fill="white"/>
<path d="M29.1466 25.5333H28.3777V26.3022H29.1466V25.5333Z" fill="white"/>
<path d="M31.4533 25.5333L30.6844 25.5333V26.3022H31.4533V25.5333Z" fill="white"/>
<path d="M13.7689 26.3022H13V27.0711H13.7689V26.3022Z" fill="white"/>
<path d="M17.6133 26.3022H16.8444V27.0711H17.6133V26.3022Z" fill="white"/>
<path d="M18.3822 26.3022H17.6133V27.0711H18.3822V26.3022Z" fill="white"/>
<path d="M19.1511 26.3022H18.3822V27.0711H19.1511V26.3022Z" fill="white"/>
<path d="M20.6889 26.3022H19.92V27.0711H20.6889V26.3022Z" fill="white"/>
<path d="M21.4578 26.3022H20.6889V27.0711H21.4578V26.3022Z" fill="white"/>
<path d="M22.9955 26.3022H22.2266V27.0711H22.9955V26.3022Z" fill="white"/>
<path d="M25.3022 26.3022H24.5333L24.5333 27.0711H25.3022V26.3022Z" fill="white"/>
<path d="M26.0711 26.3022H25.3022V27.0711H26.0711V26.3022Z" fill="white"/>
<path d="M26.84 26.3022H26.0711V27.0711H26.84V26.3022Z" fill="white"/>
<path d="M27.6088 26.3022H26.84V27.0711H27.6088V26.3022Z" fill="white"/>
<path d="M28.3777 26.3022H27.6088V27.0711H28.3777V26.3022Z" fill="white"/>
<path d="M29.1466 26.3022H28.3777V27.0711H29.1466V26.3022Z" fill="white"/>
<path d="M29.9155 26.3022H29.1466V27.0711H29.9155V26.3022Z" fill="white"/>
<path d="M31.4533 26.3022H30.6844V27.0711H31.4533V26.3022Z" fill="white"/>
<path d="M19.92 27.0711H19.1511V27.84H19.92V27.0711Z" fill="white"/>
<path d="M21.4578 27.0711H20.6889V27.84H21.4578V27.0711Z" fill="white"/>
<path d="M22.9955 27.0711H22.2266V27.84H22.9955V27.0711Z" fill="white"/>
<path d="M25.3022 27.0711H24.5333V27.84H25.3022V27.0711Z" fill="white"/>
<path d="M26.0711 27.0711H25.3022V27.84H26.0711V27.0711Z" fill="white"/>
<path d="M29.1466 27.0711H28.3777V27.84H29.1466V27.0711Z" fill="white"/>
<path d="M29.9155 27.0711H29.1466V27.84H29.9155V27.0711Z" fill="white"/>
<path d="M30.6844 27.0711H29.9155V27.84H30.6844V27.0711Z" fill="white"/>
<path d="M13.7689 27.84H13V28.6088H13.7689V27.84Z" fill="white"/>
<path d="M14.5378 27.84H13.7689V28.6088H14.5378V27.84Z" fill="white"/>
<path d="M15.3067 27.84H14.5378V28.6088H15.3067V27.84Z" fill="white"/>
<path d="M16.0755 27.84H15.3067V28.6088H16.0755V27.84Z" fill="white"/>
<path d="M16.8444 27.84H16.0755V28.6088H16.8444V27.84Z" fill="white"/>
<path d="M17.6133 27.84H16.8444V28.6088H17.6133V27.84Z" fill="white"/>
<path d="M18.3822 27.84H17.6133V28.6088H18.3822V27.84Z" fill="white"/>
<path d="M19.92 27.84H19.1511V28.6088H19.92V27.84Z" fill="white"/>
<path d="M22.9955 27.84H22.2266V28.6088H22.9955V27.84Z" fill="white"/>
<path d="M25.3022 27.84H24.5333V28.6088H25.3022V27.84Z" fill="white"/>
<path d="M26.0711 27.84H25.3022V28.6088H26.0711V27.84Z" fill="white"/>
<path d="M27.6088 27.84H26.84V28.6088H27.6088V27.84Z" fill="white"/>
<path d="M29.1466 27.84H28.3777V28.6088H29.1466V27.84Z" fill="white"/>
<path d="M29.9155 27.84H29.1466V28.6088H29.9155V27.84Z" fill="white"/>
<path d="M30.6844 27.84H29.9155V28.6088H30.6844V27.84Z" fill="white"/>
<path d="M32.2222 27.84H31.4533V28.6088H32.2222V27.84Z" fill="white"/>
<path d="M13.7689 28.6088H13V29.3777H13.7689V28.6088Z" fill="white"/>
<path d="M18.3822 28.6088H17.6133L17.6133 29.3777H18.3822V28.6088Z" fill="white"/>
<path d="M19.92 28.6088H19.1511V29.3777H19.92V28.6088Z" fill="white"/>
<path d="M21.4578 28.6088H20.6889V29.3777H21.4578V28.6088Z" fill="white"/>
<path d="M24.5333 28.6088H23.7644V29.3777H24.5333L24.5333 28.6088Z" fill="white"/>
<path d="M26.0711 28.6088H25.3022V29.3777H26.0711V28.6088Z" fill="white"/>
<path d="M29.1466 28.6088H28.3777V29.3777H29.1466V28.6088Z" fill="white"/>
<path d="M30.6844 28.6088H29.9155V29.3777H30.6844V28.6088Z" fill="white"/>
<path d="M13.7689 29.3777H13V30.1466H13.7689V29.3777Z" fill="white"/>
<path d="M15.3067 29.3777H14.5378V30.1466H15.3067V29.3777Z" fill="white"/>
<path d="M16.0755 29.3777H15.3067V30.1466H16.0755V29.3777Z" fill="white"/>
<path d="M16.8444 29.3777H16.0755V30.1466H16.8444V29.3777Z" fill="white"/>
<path d="M18.3822 29.3777H17.6133V30.1466H18.3822V29.3777Z" fill="white"/>
<path d="M19.92 29.3777H19.1511V30.1466H19.92V29.3777Z" fill="white"/>
<path d="M20.6889 29.3777H19.92V30.1466H20.6889V29.3777Z" fill="white"/>
<path d="M21.4578 29.3777H20.6889V30.1466H21.4578V29.3777Z" fill="white"/>
<path d="M23.7644 29.3777H22.9955V30.1466H23.7644V29.3777Z" fill="white"/>
<path d="M24.5333 29.3777H23.7644V30.1466H24.5333V29.3777Z" fill="white"/>
<path d="M26.0711 29.3777H25.3022V30.1466H26.0711V29.3777Z" fill="white"/>
<path d="M26.84 29.3777H26.0711V30.1466H26.84V29.3777Z" fill="white"/>
<path d="M27.6088 29.3777H26.84V30.1466H27.6088V29.3777Z" fill="white"/>
<path d="M28.3777 29.3777H27.6088V30.1466H28.3777V29.3777Z" fill="white"/>
<path d="M29.1466 29.3777H28.3777V30.1466H29.1466V29.3777Z" fill="white"/>
<path d="M32.2222 29.3777H31.4533V30.1466H32.2222V29.3777Z" fill="white"/>
<path d="M13.7689 30.1466H13V30.9155H13.7689V30.1466Z" fill="white"/>
<path d="M15.3067 30.1466H14.5378V30.9155H15.3067V30.1466Z" fill="white"/>
<path d="M16.0755 30.1466H15.3067V30.9155H16.0755V30.1466Z" fill="white"/>
<path d="M16.8444 30.1466H16.0755V30.9155H16.8444V30.1466Z" fill="white"/>
<path d="M18.3822 30.1466H17.6133V30.9155H18.3822V30.1466Z" fill="white"/>
<path d="M19.92 30.1466H19.1511V30.9155H19.92V30.1466Z" fill="white"/>
<path d="M22.9955 30.1466H22.2266V30.9155H22.9955V30.1466Z" fill="white"/>
<path d="M26.0711 30.1466H25.3022V30.9155H26.0711V30.1466Z" fill="white"/>
<path d="M26.84 30.1466H26.0711V30.9155H26.84V30.1466Z" fill="white"/>
<path d="M29.9155 30.1466H29.1466V30.9155H29.9155V30.1466Z" fill="white"/>
<path d="M13.7689 30.9155H13V31.6844H13.7689V30.9155Z" fill="white"/>
<path d="M15.3067 30.9155H14.5378V31.6844H15.3067V30.9155Z" fill="white"/>
<path d="M16.0755 30.9155H15.3067V31.6844H16.0755V30.9155Z" fill="white"/>
<path d="M16.8444 30.9155H16.0755V31.6844H16.8444V30.9155Z" fill="white"/>
<path d="M18.3822 30.9155H17.6133V31.6844H18.3822V30.9155Z" fill="white"/>
<path d="M22.2266 30.9155H21.4578V31.6844H22.2266V30.9155Z" fill="white"/>
<path d="M22.9955 30.9155H22.2266V31.6844H22.9955V30.9155Z" fill="white"/>
<path d="M24.5333 30.9155H23.7644V31.6844H24.5333V30.9155Z" fill="white"/>
<path d="M25.3022 30.9155H24.5333V31.6844H25.3022V30.9155Z" fill="white"/>
<path d="M26.0711 30.9155H25.3022V31.6844H26.0711V30.9155Z" fill="white"/>
<path d="M28.3777 30.9155H27.6088V31.6844H28.3777V30.9155Z" fill="white"/>
<path d="M29.1466 30.9155H28.3777V31.6844H29.1466V30.9155Z" fill="white"/>
<path d="M30.6844 30.9155H29.9155V31.6844H30.6844V30.9155Z" fill="white"/>
<path d="M31.4533 30.9155H30.6844V31.6844H31.4533V30.9155Z" fill="white"/>
<path d="M32.2222 30.9155H31.4533V31.6844H32.2222V30.9155Z" fill="white"/>
<path d="M13.7689 31.6844H13V32.4533H13.7689V31.6844Z" fill="white"/>
<path d="M18.3822 31.6844H17.6133V32.4533H18.3822V31.6844Z" fill="white"/>
<path d="M20.6889 31.6844H19.92V32.4533H20.6889V31.6844Z" fill="white"/>
<path d="M21.4578 31.6844H20.6889V32.4533H21.4578V31.6844Z" fill="white"/>
<path d="M22.2266 31.6844H21.4578V32.4533H22.2266V31.6844Z" fill="white"/>
<path d="M23.7644 31.6844H22.9955V32.4533H23.7644V31.6844Z" fill="white"/>
<path d="M24.5333 31.6844H23.7644V32.4533H24.5333V31.6844Z" fill="white"/>
<path d="M26.84 31.6844H26.0711V32.4533H26.84V31.6844Z" fill="white"/>
<path d="M27.6088 31.6844H26.84V32.4533H27.6088V31.6844Z" fill="white"/>
<path d="M28.3777 31.6844H27.6088V32.4533H28.3777V31.6844Z" fill="white"/>
<path d="M29.1466 31.6844H28.3777V32.4533H29.1466V31.6844Z" fill="white"/>
<path d="M30.6844 31.6844H29.9155V32.4533H30.6844V31.6844Z" fill="white"/>
<path d="M31.4533 31.6844H30.6844V32.4533H31.4533V31.6844Z" fill="white"/>
<path d="M32.2222 31.6844H31.4533V32.4533H32.2222V31.6844Z" fill="white"/>
<path d="M13.7689 32.4533H13V33.2222H13.7689V32.4533Z" fill="white"/>
<path d="M14.5378 32.4533H13.7689V33.2222H14.5378V32.4533Z" fill="white"/>
<path d="M15.3067 32.4533H14.5378V33.2222H15.3067V32.4533Z" fill="white"/>
<path d="M16.0755 32.4533H15.3067V33.2222H16.0755V32.4533Z" fill="white"/>
<path d="M16.8444 32.4533H16.0755V33.2222H16.8444V32.4533Z" fill="white"/>
<path d="M17.6133 32.4533H16.8444V33.2222H17.6133L17.6133 32.4533Z" fill="white"/>
<path d="M18.3822 32.4533H17.6133L17.6133 33.2222H18.3822V32.4533Z" fill="white"/>
<path d="M19.92 32.4533H19.1511V33.2222H19.92V32.4533Z" fill="white"/>
<path d="M22.2266 32.4533H21.4578V33.2222H22.2266V32.4533Z" fill="white"/>
<path d="M22.9955 32.4533H22.2266V33.2222H22.9955V32.4533Z" fill="white"/>
<path d="M26.0711 32.4533H25.3022V33.2222H26.0711V32.4533Z" fill="white"/>
<path d="M29.9155 32.4533H29.1466V33.2222H29.9155V32.4533Z" fill="white"/>
<path d="M32.2222 32.4533H31.4533V33.2222H32.2222V32.4533Z" fill="white"/>
<path d="M33 11H35.5V19H33V13.6667H28V11H33ZM13 11H18V13.6667H13V19H10.5V11H13ZM33 32.3333V27H35.5V35H28V32.3333H33ZM13 32.3333H18V35H10.5V27H13V32.3333Z" fill="#2C2C2C"/>
</svg>
